<svg width="14" height="14" viewBox="0 0 14 14" fill="none" xmlns="http://www.w3.org/2000/svg">
<path fill-rule="evenodd" clip-rule="evenodd" d="M13 7C13 6.72386 12.7761 6.5 12.5 6.5H1.5C1.22386 6.5 1 6.72386 1 7C1 7.27614 1.22386 7.5 1.5 7.5H12.5C12.7761 7.5 13 7.27614 13 7Z" fill="#0093FF"/>
<path fill-rule="evenodd" clip-rule="evenodd" d="M7 1C6.72386 1 6.5 1.22386 6.5 1.5V12.5C6.5 12.7761 6.72386 13 7 13C7.27614 13 7.5 12.7761 7.5 12.5V1.5C7.5 1.22386 7.27614 1 7 1Z" fill="#0093FF"/>
<path fill-rule="evenodd" clip-rule="evenodd" d="M13 7C13 6.72386 12.7761 6.5 12.5 6.5H1.5C1.22386 6.5 1 6.72386 1 7C1 7.27614 1.22386 7.5 1.5 7.5H12.5C12.7761 7.5 13 7.27614 13 7Z" stroke="#0093FF" stroke-width="0.5" stroke-linecap="round" stroke-linejoin="round"/>
<path fill-rule="evenodd" clip-rule="evenodd" d="M7 1C6.72386 1 6.5 1.22386 6.5 1.5V12.5C6.5 12.7761 6.72386 13 7 13C7.27614 13 7.5 12.7761 7.5 12.5V1.5C7.5 1.22386 7.27614 1 7 1Z" stroke="#0093FF" stroke-width="0.5" stroke-linecap="round" stroke-linejoin="round"/>
</svg>
