<svg width="31" height="33" viewBox="0 0 31 33" fill="none" xmlns="http://www.w3.org/2000/svg">
<path fill-rule="evenodd" clip-rule="evenodd" d="M0.5 5.5C0.5 4.11929 1.61929 3 3 3H28C29.3807 3 30.5 4.11929 30.5 5.5V30.5C30.5 31.8807 29.3807 33 28 33H3C1.61929 33 0.5 31.8807 0.5 30.5V5.5ZM28 5.5H3V30.5H28V5.5Z" fill="#1F2933"/>
<path fill-rule="evenodd" clip-rule="evenodd" d="M23 0.5C23.6904 0.5 24.25 1.05964 24.25 1.75V6.75C24.25 7.44036 23.6904 8 23 8C22.3096 8 21.75 7.44036 21.75 6.75V1.75C21.75 1.05964 22.3096 0.5 23 0.5Z" fill="#1F2933"/>
<path fill-rule="evenodd" clip-rule="evenodd" d="M8 0.5C8.69036 0.5 9.25 1.05964 9.25 1.75V6.75C9.25 7.44036 8.69036 8 8 8C7.30964 8 6.75 7.44036 6.75 6.75V1.75C6.75 1.05964 7.30964 0.5 8 0.5Z" fill="#1F2933"/>
<path fill-rule="evenodd" clip-rule="evenodd" d="M0.5 11.75C0.5 11.0596 1.05964 10.5 1.75 10.5H29.25C29.9404 10.5 30.5 11.0596 30.5 11.75C30.5 12.4404 29.9404 13 29.25 13H1.75C1.05964 13 0.5 12.4404 0.5 11.75Z" fill="#1F2933"/>
<path fill-rule="evenodd" clip-rule="evenodd" d="M9.875 21.75C9.875 21.0596 10.4346 20.5 11.125 20.5H19.875C20.5654 20.5 21.125 21.0596 21.125 21.75C21.125 22.4404 20.5654 23 19.875 23H11.125C10.4346 23 9.875 22.4404 9.875 21.75Z" fill="#1F2933"/>
<path fill-rule="evenodd" clip-rule="evenodd" d="M15.5 16.125C16.1904 16.125 16.75 16.6846 16.75 17.375V26.125C16.75 26.8154 16.1904 27.375 15.5 27.375C14.8096 27.375 14.25 26.8154 14.25 26.125V17.375C14.25 16.6846 14.8096 16.125 15.5 16.125Z" fill="#1F2933"/>
</svg>
