<svg width="8" height="15" viewBox="0 0 8 15" fill="none" xmlns="http://www.w3.org/2000/svg">
<path d="M6.3998 5.76946L1.8098 1.17946C1.62244 0.993213 1.36899 0.888672 1.1048 0.888672C0.840616 0.888672 0.587165 0.993213 0.399802 1.17946C0.306074 1.27243 0.23168 1.38303 0.180911 1.50489C0.130142 1.62675 0.104004 1.75745 0.104004 1.88946C0.104004 2.02148 0.130142 2.15218 0.180911 2.27404C0.23168 2.3959 0.306074 2.5065 0.399802 2.59946L4.9998 7.17947C5.09353 7.27243 5.16793 7.38303 5.21869 7.50489C5.26946 7.62675 5.2956 7.75745 5.2956 7.88947C5.2956 8.02148 5.26946 8.15218 5.21869 8.27404C5.16793 8.3959 5.09353 8.5065 4.9998 8.59947L0.399802 13.1795C0.211499 13.3664 0.105184 13.6206 0.104246 13.8859C0.103308 14.1513 0.207825 14.4062 0.394803 14.5945C0.581781 14.7828 0.835903 14.8891 1.10127 14.89C1.36663 14.891 1.6215 14.7864 1.8098 14.5995L6.3998 10.0095C6.96161 9.44696 7.27716 8.68447 7.27716 7.88947C7.27716 7.09446 6.96161 6.33197 6.3998 5.76946Z" fill="white"/>
</svg>
