<svg width="14" height="26" viewBox="0 0 14 26" fill="none" xmlns="http://www.w3.org/2000/svg">
<path d="M12.2327 9.11316L3.81773 0.698159C3.47423 0.356699 3.00957 0.165039 2.52523 0.165039C2.04089 0.165039 1.57622 0.356699 1.23273 0.698159C1.06089 0.868591 0.924502 1.07136 0.831426 1.29477C0.73835 1.51818 0.69043 1.7578 0.69043 1.99983C0.69043 2.24185 0.73835 2.48147 0.831426 2.70488C0.924502 2.92829 1.06089 3.13106 1.23273 3.30149L9.66606 11.6982C9.8379 11.8686 9.97429 12.0714 10.0674 12.2948C10.1604 12.5182 10.2084 12.7578 10.2084 12.9998C10.2084 13.2418 10.1604 13.4815 10.0674 13.7049C9.97429 13.9283 9.8379 14.1311 9.66606 14.3015L1.23273 22.6982C0.887503 23.041 0.692593 23.5068 0.690874 23.9933C0.689155 24.4798 0.880769 24.9471 1.22356 25.2923C1.56635 25.6376 2.03224 25.8325 2.51875 25.8342C3.00525 25.8359 3.47251 25.6443 3.81773 25.3015L12.2327 16.8865C13.2627 15.8552 13.8412 14.4573 13.8412 12.9998C13.8412 11.5423 13.2627 10.1444 12.2327 9.11316Z" fill="white"/>
</svg>
