<svg width="6" height="11" viewBox="0 0 6 11" fill="none" xmlns="http://www.w3.org/2000/svg">
<path d="M2.06666 5.88662C2.00417 5.82465 1.95457 5.75091 1.92073 5.66967C1.88688 5.58843 1.86946 5.5013 1.86946 5.41329C1.86946 5.32528 1.88688 5.23814 1.92073 5.1569C1.95457 5.07566 2.00417 5.00193 2.06666 4.93996L5.12666 1.88662C5.18914 1.82465 5.23874 1.75091 5.27258 1.66967C5.30643 1.58843 5.32385 1.5013 5.32385 1.41329C5.32385 1.32528 5.30643 1.23814 5.27258 1.1569C5.23874 1.07566 5.18914 1.00193 5.12666 0.939955C5.00175 0.815788 4.83278 0.746094 4.65666 0.746094C4.48053 0.746094 4.31156 0.815788 4.18666 0.939955L1.12665 3.99996C0.75212 4.37496 0.541748 4.88329 0.541748 5.41329C0.541748 5.94329 0.75212 6.45162 1.12665 6.82662L4.18666 9.88662C4.31083 10.0098 4.47843 10.0792 4.65332 10.08C4.74106 10.0805 4.82804 10.0636 4.90926 10.0305C4.99049 9.99729 5.06436 9.94841 5.12666 9.88662C5.18914 9.82465 5.23874 9.75091 5.27258 9.66967C5.30643 9.58843 5.32385 9.5013 5.32385 9.41329C5.32385 9.32528 5.30643 9.23814 5.27258 9.1569C5.23874 9.07566 5.18914 9.00193 5.12666 8.93996L2.06666 5.88662Z" fill="#007FDD"/>
</svg>
