<svg width="27" height="28" viewBox="0 0 27 28" fill="none" xmlns="http://www.w3.org/2000/svg">
<g clip-path="url(#clip0_1812_4345)">
<path fill-rule="evenodd" clip-rule="evenodd" d="M20.8694 14.8434C20.8367 11.429 23.6591 9.78348 23.7864 9.7055C22.2016 7.38208 19.729 7.06402 18.8484 7.02685C16.7464 6.81578 14.7461 8.26607 13.6789 8.26607C12.6146 8.26607 10.9666 7.059 9.22469 7.09332C6.93103 7.12521 4.81821 8.42487 3.6373 10.4765C1.2575 14.6086 3.02898 20.7282 5.34975 24.0804C6.48245 25.7173 7.8363 27.5639 9.61159 27.4972C11.3241 27.4301 11.9688 26.3928 14.0342 26.3928C16.1011 26.3928 16.6816 27.4972 18.4929 27.4631C20.3306 27.4301 21.499 25.7912 22.6247 24.1476C23.9261 22.2438 24.4619 20.4008 24.4931 20.3051C24.4535 20.2907 20.9065 18.9289 20.8693 14.8434L20.8694 14.8434Z" fill="white"/>
<path fill-rule="evenodd" clip-rule="evenodd" d="M17.4731 4.81246C18.4165 3.66897 19.0495 2.0822 18.8761 0.5C17.5182 0.553948 15.8717 1.40644 14.899 2.54636C14.0247 3.55791 13.2595 5.17321 13.4669 6.72228C14.9818 6.84007 16.5292 5.95375 17.4731 4.81246Z" fill="white"/>
</g>
<defs>
<clipPath id="clip0_1812_4345">
<rect width="27" height="27" fill="white" transform="translate(0 0.5)"/>
</clipPath>
</defs>
</svg>
