<svg width="18" height="18" viewBox="0 0 18 18" fill="none" xmlns="http://www.w3.org/2000/svg">
<path fill-rule="evenodd" clip-rule="evenodd" d="M2.25 3.375C2.25 2.75368 2.75368 2.25 3.375 2.25H14.625C15.2463 2.25 15.75 2.75368 15.75 3.375V14.625C15.75 15.2463 15.2463 15.75 14.625 15.75H3.375C2.75368 15.75 2.25 15.2463 2.25 14.625V3.375ZM14.625 3.375H3.375V14.625H14.625V3.375Z" fill="#52606D"/>
<path fill-rule="evenodd" clip-rule="evenodd" d="M12.375 1.125C12.6857 1.125 12.9375 1.37684 12.9375 1.6875V3.9375C12.9375 4.24816 12.6857 4.5 12.375 4.5C12.0643 4.5 11.8125 4.24816 11.8125 3.9375V1.6875C11.8125 1.37684 12.0643 1.125 12.375 1.125Z" fill="#52606D"/>
<path fill-rule="evenodd" clip-rule="evenodd" d="M5.625 1.125C5.93566 1.125 6.1875 1.37684 6.1875 1.6875V3.9375C6.1875 4.24816 5.93566 4.5 5.625 4.5C5.31434 4.5 5.0625 4.24816 5.0625 3.9375V1.6875C5.0625 1.37684 5.31434 1.125 5.625 1.125Z" fill="#52606D"/>
<path fill-rule="evenodd" clip-rule="evenodd" d="M2.25 6.1875C2.25 5.87684 2.50184 5.625 2.8125 5.625H15.1875C15.4982 5.625 15.75 5.87684 15.75 6.1875C15.75 6.49816 15.4982 6.75 15.1875 6.75H2.8125C2.50184 6.75 2.25 6.49816 2.25 6.1875Z" fill="#52606D"/>
<path fill-rule="evenodd" clip-rule="evenodd" d="M5.90625 9C5.90625 8.68934 6.15809 8.4375 6.46875 8.4375H8.4375C8.65373 8.4375 8.85082 8.56144 8.94448 8.75633C9.03815 8.95122 9.01181 9.18255 8.87674 9.35139L8.25416 10.1296C8.43656 10.2519 8.59382 10.409 8.71661 10.5923C8.87113 10.8231 8.9663 11.0884 8.9937 11.3648C9.02109 11.6412 8.97985 11.92 8.87363 12.1766C8.76742 12.4332 8.59951 12.6597 8.38482 12.8358C8.17011 13.012 7.91526 13.1324 7.64285 13.1865C7.37044 13.2405 7.0889 13.2265 6.82321 13.1457C6.55751 13.0648 6.31588 12.9197 6.11974 12.723C5.90034 12.5031 5.90077 12.147 6.1207 11.9276C6.34064 11.7081 6.69679 11.7086 6.9162 11.9285C6.98158 11.9941 7.06212 12.0424 7.15069 12.0694C7.23925 12.0963 7.3331 12.101 7.4239 12.083C7.5147 12.065 7.59966 12.0248 7.67122 11.9661C7.74279 11.9074 7.79876 11.8319 7.83416 11.7464C7.86957 11.6608 7.88331 11.5679 7.87418 11.4758C7.86505 11.3836 7.83333 11.2952 7.78182 11.2183C7.73031 11.1414 7.66062 11.0783 7.57892 11.0348C7.49722 10.9913 7.40604 10.9686 7.31346 10.9687C7.09706 10.9691 6.89964 10.8453 6.80573 10.6504C6.71182 10.4554 6.73808 10.2238 6.87326 10.0549L7.26715 9.5625H6.46875C6.15809 9.5625 5.90625 9.31066 5.90625 9Z" fill="#52606D"/>
<path fill-rule="evenodd" clip-rule="evenodd" d="M11.5016 8.49689C11.6922 8.59217 11.8125 8.78694 11.8125 9V12.6563C11.8125 12.9669 11.5607 13.2188 11.25 13.2188C10.9394 13.2188 10.6875 12.9669 10.6875 12.6563V10.125L10.4625 10.2938C10.214 10.4801 9.86143 10.4298 9.67503 10.1813C9.48864 9.93272 9.539 9.58015 9.78753 9.39375L10.9125 8.55C11.083 8.42217 11.311 8.40161 11.5016 8.49689Z" fill="#52606D"/>
</svg>
