<svg width="16" height="17" viewBox="0 0 16 17" fill="none" xmlns="http://www.w3.org/2000/svg">
<path d="M12 14.9276H8.66663V2.14289L11.5333 5.00956C11.659 5.131 11.8274 5.19819 12.0022 5.19667C12.177 5.19516 12.3442 5.12504 12.4678 5.00144C12.5914 4.87783 12.6616 4.71062 12.6631 4.53583C12.6646 4.36103 12.5974 4.19263 12.476 4.06689L9.17863 0.769561C9.02386 0.61475 8.84011 0.491945 8.63787 0.408159C8.43563 0.324374 8.21887 0.28125 7.99996 0.28125C7.78106 0.28125 7.56429 0.324374 7.36206 0.408159C7.15982 0.491945 6.97607 0.61475 6.8213 0.769561L3.5213 4.06956C3.39629 4.19492 3.3262 4.3648 3.32645 4.54183C3.3267 4.71887 3.39727 4.88855 3.52263 5.01356C3.64799 5.13856 3.81787 5.20865 3.99491 5.2084C4.17194 5.20815 4.34162 5.13758 4.46663 5.01223L7.3333 2.14556V14.9276H3.99996C3.82315 14.9276 3.65358 14.9978 3.52856 15.1228C3.40353 15.2478 3.3333 15.4174 3.3333 15.5942C3.3333 15.771 3.40353 15.9406 3.52856 16.0656C3.65358 16.1906 3.82315 16.2609 3.99996 16.2609H12C12.1768 16.2609 12.3463 16.1906 12.4714 16.0656C12.5964 15.9406 12.6666 15.771 12.6666 15.5942C12.6666 15.4174 12.5964 15.2478 12.4714 15.1228C12.3463 14.9978 12.1768 14.9276 12 14.9276Z" fill="white"/>
</svg>
