<svg width="17" height="14" viewBox="0 0 17 14" fill="none" xmlns="http://www.w3.org/2000/svg">
<path d="M16.5003 6.99999C16.4946 6.3862 16.2473 5.79938 15.812 5.36666L10.807 0.35C10.5884 0.132708 10.2927 0.0107422 9.98449 0.0107422C9.67628 0.0107422 9.38058 0.132708 9.16199 0.35C9.05264 0.458457 8.96585 0.587491 8.90662 0.72966C8.84739 0.871829 8.81689 1.02432 8.81689 1.17833C8.81689 1.33235 8.84739 1.48484 8.90662 1.627C8.96585 1.76917 9.05264 1.89821 9.16199 2.00666L13.0003 5.83333H1.33366C1.02424 5.83333 0.727494 5.95624 0.508701 6.17504C0.289909 6.39383 0.166992 6.69057 0.166992 6.99999C0.166992 7.30941 0.289909 7.60616 0.508701 7.82495C0.727494 8.04374 1.02424 8.16666 1.33366 8.16666H13.0003L9.16199 12.005C8.9423 12.2231 8.81827 12.5196 8.81718 12.8292C8.81608 13.1388 8.93802 13.4361 9.15616 13.6558C9.3743 13.8755 9.67078 13.9995 9.98037 14.0006C10.29 14.0017 10.5873 13.8798 10.807 13.6617L15.812 8.64499C16.2502 8.20942 16.4977 7.61783 16.5003 6.99999Z" fill="#49207E"/>
</svg>
