<svg width="15" height="14" viewBox="0 0 15 14" fill="none" xmlns="http://www.w3.org/2000/svg">
<path fill-rule="evenodd" clip-rule="evenodd" d="M0 7C0 6.65482 0.279822 6.375 0.625 6.375H14.375C14.7202 6.375 15 6.65482 15 7C15 7.34518 14.7202 7.625 14.375 7.625H0.625C0.279822 7.625 0 7.34518 0 7Z" fill="white"/>
<path fill-rule="evenodd" clip-rule="evenodd" d="M8.30806 0.933058C8.55214 0.688981 8.94786 0.688981 9.19194 0.933058L14.8169 6.55806C15.061 6.80214 15.061 7.19786 14.8169 7.44194L9.19194 13.0669C8.94786 13.311 8.55214 13.311 8.30806 13.0669C8.06398 12.8229 8.06398 12.4271 8.30806 12.1831L13.4911 7L8.30806 1.81694C8.06398 1.57286 8.06398 1.17714 8.30806 0.933058Z" fill="white"/>
</svg>
