<svg width="12" height="14" viewBox="0 0 12 14" fill="none" xmlns="http://www.w3.org/2000/svg">
<path fill-rule="evenodd" clip-rule="evenodd" d="M6 0.25C5.68934 0.25 5.4375 0.50184 5.4375 0.8125V13.1875C5.4375 13.4982 5.68934 13.75 6 13.75C6.31066 13.75 6.5625 13.4982 6.5625 13.1875V0.8125C6.5625 0.50184 6.31066 0.25 6 0.25Z" fill="#52606D"/>
<path fill-rule="evenodd" clip-rule="evenodd" d="M11.4602 7.72725C11.2406 7.50758 10.8844 7.50758 10.6648 7.72725L6 12.392L1.33525 7.72725C1.11558 7.50758 0.759422 7.50758 0.539752 7.72725C0.320083 7.94692 0.320083 8.30308 0.539752 8.52275L5.60225 13.5852C5.82192 13.8049 6.17808 13.8049 6.39775 13.5852L11.4602 8.52275C11.6799 8.30308 11.6799 7.94692 11.4602 7.72725Z" fill="#52606D"/>
</svg>
