<svg width="17" height="14" viewBox="0 0 17 14" fill="none" xmlns="http://www.w3.org/2000/svg">
<path d="M17.0003 6.99999C16.9946 6.3862 16.7473 5.79938 16.312 5.36666L11.307 0.35C11.0884 0.132708 10.7927 0.0107422 10.4845 0.0107422C10.1763 0.0107422 9.88058 0.132708 9.66199 0.35C9.55264 0.458457 9.46585 0.587491 9.40662 0.72966C9.34739 0.871829 9.31689 1.02432 9.31689 1.17833C9.31689 1.33235 9.34739 1.48484 9.40662 1.627C9.46585 1.76917 9.55264 1.89821 9.66199 2.00666L13.5003 5.83333H1.83366C1.52424 5.83333 1.22749 5.95624 1.0087 6.17504C0.789909 6.39383 0.666992 6.69057 0.666992 6.99999C0.666992 7.30941 0.789909 7.60616 1.0087 7.82495C1.22749 8.04374 1.52424 8.16666 1.83366 8.16666H13.5003L9.66199 12.005C9.4423 12.2231 9.31827 12.5196 9.31718 12.8292C9.31608 13.1388 9.43802 13.4361 9.65616 13.6558C9.8743 13.8755 10.1708 13.9995 10.4804 14.0006C10.79 14.0017 11.0873 13.8798 11.307 13.6617L16.312 8.64499C16.7502 8.20942 16.9977 7.61783 17.0003 6.99999Z" fill="white"/>
</svg>
