<svg width="36" height="47" viewBox="0 0 36 47" fill="none" xmlns="http://www.w3.org/2000/svg">
<path fill-rule="evenodd" clip-rule="evenodd" d="M1.39792 8.51218C2.06602 7.84408 2.97216 7.46875 3.91699 7.46875H25.292C26.2368 7.46875 27.143 7.84408 27.8111 8.51218C28.4792 9.18028 28.8545 10.0864 28.8545 11.0312V44.875C28.8545 45.5422 28.4816 46.1535 27.8883 46.4588C27.295 46.7641 26.5809 46.7123 26.0379 46.3245L14.6045 38.1577L3.17107 46.3245C2.62812 46.7123 1.91396 46.7641 1.32068 46.4588C0.727392 46.1535 0.354492 45.5422 0.354492 44.875V11.0312C0.354492 10.0864 0.729827 9.18028 1.39792 8.51218ZM25.292 11.0312H3.91699L3.91699 41.4137L13.5692 34.5193C14.1885 34.0769 15.0205 34.0769 15.6398 34.5193L25.292 41.4137L25.292 11.0312Z" fill="white"/>
<path fill-rule="evenodd" clip-rule="evenodd" d="M8.52293 1.38718C9.19102 0.719085 10.0972 0.34375 11.042 0.34375H32.417C33.3618 0.34375 34.268 0.719084 34.9361 1.38718C35.6042 2.05528 35.9795 2.96142 35.9795 3.90625V37.75C35.9795 38.4175 35.6063 39.029 35.0126 39.3342C34.4189 39.6394 33.7045 39.587 33.1616 39.1985L26.0366 34.0997C25.2366 33.5272 25.0522 32.4146 25.6247 31.6146C26.1972 30.8145 27.3098 30.6301 28.1099 31.2026L32.417 34.2849V3.90625H11.042V9.25C11.042 10.2338 10.2445 11.0312 9.26074 11.0312C8.27699 11.0312 7.47949 10.2338 7.47949 9.25V3.90625C7.47949 2.96142 7.85483 2.05528 8.52293 1.38718Z" fill="white"/>
</svg>
