<svg width="18" height="19" viewBox="0 0 18 19" fill="none" xmlns="http://www.w3.org/2000/svg">
<path d="M14.25 1.91406H13.5V1.16406C13.5 0.96515 13.421 0.774385 13.2803 0.633732C13.1397 0.49308 12.9489 0.414063 12.75 0.414062C12.5511 0.414063 12.3603 0.49308 12.2197 0.633732C12.079 0.774385 12 0.96515 12 1.16406V1.91406H6V1.16406C6 0.96515 5.92098 0.774385 5.78033 0.633732C5.63968 0.49308 5.44891 0.414063 5.25 0.414062C5.05109 0.414063 4.86032 0.49308 4.71967 0.633732C4.57902 0.774385 4.5 0.96515 4.5 1.16406V1.91406H3.75C2.7558 1.91525 1.80267 2.31072 1.09966 3.01373C0.396661 3.71673 0.00119089 4.66987 0 5.66406L0 14.6641C0.00119089 15.6583 0.396661 16.6114 1.09966 17.3144C1.80267 18.0174 2.7558 18.4129 3.75 18.4141H14.25C15.2442 18.4129 16.1973 18.0174 16.9003 17.3144C17.6033 16.6114 17.9988 15.6583 18 14.6641V5.66406C17.9988 4.66987 17.6033 3.71673 16.9003 3.01373C16.1973 2.31072 15.2442 1.91525 14.25 1.91406ZM1.5 5.66406C1.5 5.06733 1.73705 4.49503 2.15901 4.07307C2.58097 3.65112 3.15326 3.41406 3.75 3.41406H14.25C14.8467 3.41406 15.419 3.65112 15.841 4.07307C16.2629 4.49503 16.5 5.06733 16.5 5.66406V6.41406H1.5V5.66406ZM14.25 16.9141H3.75C3.15326 16.9141 2.58097 16.677 2.15901 16.2551C1.73705 15.8331 1.5 15.2608 1.5 14.6641V7.91406H16.5V14.6641C16.5 15.2608 16.2629 15.8331 15.841 16.2551C15.419 16.677 14.8467 16.9141 14.25 16.9141Z" fill="#52606D"/>
<path d="M9 12.7891C9.62132 12.7891 10.125 12.2854 10.125 11.6641C10.125 11.0427 9.62132 10.5391 9 10.5391C8.37868 10.5391 7.875 11.0427 7.875 11.6641C7.875 12.2854 8.37868 12.7891 9 12.7891Z" fill="#52606D"/>
<path d="M5.25 12.7891C5.87132 12.7891 6.375 12.2854 6.375 11.6641C6.375 11.0427 5.87132 10.5391 5.25 10.5391C4.62868 10.5391 4.125 11.0427 4.125 11.6641C4.125 12.2854 4.62868 12.7891 5.25 12.7891Z" fill="#52606D"/>
<path d="M12.75 12.7891C13.3713 12.7891 13.875 12.2854 13.875 11.6641C13.875 11.0427 13.3713 10.5391 12.75 10.5391C12.1287 10.5391 11.625 11.0427 11.625 11.6641C11.625 12.2854 12.1287 12.7891 12.75 12.7891Z" fill="#52606D"/>
</svg>
