<svg width="38" height="30" viewBox="0 0 38 30" fill="none" xmlns="http://www.w3.org/2000/svg">
<path d="M0.25 27.8125C0.25 28.3927 0.480468 28.9491 0.890704 29.3593C1.30094 29.7695 1.85734 30 2.4375 30H35.5625C36.1427 30 36.6991 29.7695 37.1093 29.3593C37.5195 28.9491 37.75 28.3927 37.75 27.8125V11.25H0.25V27.8125ZM37.75 4.6875C37.75 4.10734 37.5195 3.55094 37.1093 3.1407C36.6991 2.73047 36.1427 2.5 35.5625 2.5H15.6281L11.8781 0H2.4375C1.85734 0 1.30094 0.230468 0.890704 0.640704C0.480468 1.05094 0.25 1.60734 0.25 2.1875V8.75H37.75V4.6875Z" fill="#F0B429"/>
</svg>
