<svg width="14" height="10" viewBox="0 0 14 10" fill="none" xmlns="http://www.w3.org/2000/svg">
<path d="M13.0189 0.580849L4.95779 8.64135C4.9036 8.69576 4.83919 8.73893 4.76827 8.76839C4.69734 8.79785 4.6213 8.81302 4.5445 8.81302C4.4677 8.81302 4.39166 8.79785 4.32074 8.76839C4.24982 8.73893 4.18541 8.69576 4.13121 8.64135L1.01388 5.5211C0.95968 5.46669 0.895272 5.42351 0.824349 5.39405C0.753426 5.36459 0.677383 5.34943 0.600585 5.34943C0.523787 5.34943 0.447745 5.36459 0.376822 5.39405C0.305899 5.42351 0.241491 5.46669 0.187294 5.5211C0.132882 5.57529 0.0897083 5.6397 0.060249 5.71063C0.0307897 5.78155 0.015625 5.85759 0.015625 5.93439C0.015625 6.01119 0.0307897 6.08723 0.060249 6.15815C0.0897083 6.22908 0.132882 6.29348 0.187294 6.34768L3.30579 9.4656C3.63476 9.79396 4.08058 9.97838 4.54538 9.97838C5.01018 9.97838 5.45599 9.79396 5.78496 9.4656L13.8455 1.40685C13.8998 1.35266 13.9429 1.28829 13.9723 1.21742C14.0017 1.14655 14.0168 1.07058 14.0168 0.993848C14.0168 0.91712 14.0017 0.841145 13.9723 0.770276C13.9429 0.699406 13.8998 0.635035 13.8455 0.580849C13.7913 0.526437 13.7269 0.483263 13.6559 0.453804C13.585 0.424345 13.509 0.40918 13.4322 0.40918C13.3554 0.40918 13.2793 0.424345 13.2084 0.453804C13.1375 0.483263 13.0731 0.526437 13.0189 0.580849Z" fill="white"/>
</svg>
