<svg width="104" height="103" viewBox="0 0 104 103" fill="none" xmlns="http://www.w3.org/2000/svg">
<path fill-rule="evenodd" clip-rule="evenodd" d="M72.2265 39.6219C73.4655 40.9082 73.4171 42.9456 72.1184 44.1727L48.2715 66.7039C47.015 67.8911 45.0382 67.8903 43.7828 66.702L31.8796 55.4364C30.582 54.2083 30.5353 52.1708 31.7754 50.8856C33.0155 49.6004 35.0727 49.5542 36.3704 50.7823L46.03 59.9247L67.6316 39.5148C68.9303 38.2878 70.9876 38.3357 72.2265 39.6219Z" fill="#27AB83"/>
<path fill-rule="evenodd" clip-rule="evenodd" d="M52 16.0938C32.2558 16.0938 16.25 31.9457 16.25 51.5C16.25 71.0543 32.2558 86.9062 52 86.9062C71.7442 86.9062 87.75 71.0543 87.75 51.5C87.75 31.9457 71.7442 16.0938 52 16.0938ZM9.75 51.5C9.75 28.3903 28.666 9.65625 52 9.65625C75.334 9.65625 94.25 28.3903 94.25 51.5C94.25 74.6097 75.334 93.3438 52 93.3438C28.666 93.3438 9.75 74.6097 9.75 51.5Z" fill="#27AB83"/>
</svg>
