<svg width="16" height="17" viewBox="0 0 16 17" fill="none" xmlns="http://www.w3.org/2000/svg">
<path d="M4.66667 9.7474C4.66667 9.92421 4.59643 10.0938 4.4714 10.2188C4.34638 10.3438 4.17681 10.4141 4 10.4141H3.33333C3.15652 10.4141 2.98695 10.3438 2.86193 10.2188C2.7369 10.0938 2.66667 9.92421 2.66667 9.7474C2.66667 9.57059 2.7369 9.40102 2.86193 9.27599C2.98695 9.15097 3.15652 9.08073 3.33333 9.08073H4C4.17681 9.08073 4.34638 9.15097 4.4714 9.27599C4.59643 9.40102 4.66667 9.57059 4.66667 9.7474ZM7.33333 9.08073H6.66667C6.48986 9.08073 6.32029 9.15097 6.19526 9.27599C6.07024 9.40102 6 9.57059 6 9.7474C6 9.92421 6.07024 10.0938 6.19526 10.2188C6.32029 10.3438 6.48986 10.4141 6.66667 10.4141H7.33333C7.51014 10.4141 7.67971 10.3438 7.80474 10.2188C7.92976 10.0938 8 9.92421 8 9.7474C8 9.57059 7.92976 9.40102 7.80474 9.27599C7.67971 9.15097 7.51014 9.08073 7.33333 9.08073ZM4 11.7474H3.33333C3.15652 11.7474 2.98695 11.8176 2.86193 11.9427C2.7369 12.0677 2.66667 12.2373 2.66667 12.4141C2.66667 12.5909 2.7369 12.7604 2.86193 12.8855C2.98695 13.0105 3.15652 13.0807 3.33333 13.0807H4C4.17681 13.0807 4.34638 13.0105 4.4714 12.8855C4.59643 12.7604 4.66667 12.5909 4.66667 12.4141C4.66667 12.2373 4.59643 12.0677 4.4714 11.9427C4.34638 11.8176 4.17681 11.7474 4 11.7474ZM7.33333 11.7474H6.66667C6.48986 11.7474 6.32029 11.8176 6.19526 11.9427C6.07024 12.0677 6 12.2373 6 12.4141C6 12.5909 6.07024 12.7604 6.19526 12.8855C6.32029 13.0105 6.48986 13.0807 6.66667 13.0807H7.33333C7.51014 13.0807 7.67971 13.0105 7.80474 12.8855C7.92976 12.7604 8 12.5909 8 12.4141C8 12.2373 7.92976 12.0677 7.80474 11.9427C7.67971 11.8176 7.51014 11.7474 7.33333 11.7474ZM4 3.7474H3.33333C3.15652 3.7474 2.98695 3.81763 2.86193 3.94266C2.7369 4.06768 2.66667 4.23725 2.66667 4.41406C2.66667 4.59087 2.7369 4.76044 2.86193 4.88547C2.98695 5.01049 3.15652 5.08073 3.33333 5.08073H4C4.17681 5.08073 4.34638 5.01049 4.4714 4.88547C4.59643 4.76044 4.66667 4.59087 4.66667 4.41406C4.66667 4.23725 4.59643 4.06768 4.4714 3.94266C4.34638 3.81763 4.17681 3.7474 4 3.7474ZM7.33333 3.7474H6.66667C6.48986 3.7474 6.32029 3.81763 6.19526 3.94266C6.07024 4.06768 6 4.23725 6 4.41406C6 4.59087 6.07024 4.76044 6.19526 4.88547C6.32029 5.01049 6.48986 5.08073 6.66667 5.08073H7.33333C7.51014 5.08073 7.67971 5.01049 7.80474 4.88547C7.92976 4.76044 8 4.59087 8 4.41406C8 4.23725 7.92976 4.06768 7.80474 3.94266C7.67971 3.81763 7.51014 3.7474 7.33333 3.7474ZM4 6.41406H3.33333C3.15652 6.41406 2.98695 6.4843 2.86193 6.60932C2.7369 6.73435 2.66667 6.90392 2.66667 7.08073C2.66667 7.25754 2.7369 7.42711 2.86193 7.55213C2.98695 7.67716 3.15652 7.7474 3.33333 7.7474H4C4.17681 7.7474 4.34638 7.67716 4.4714 7.55213C4.59643 7.42711 4.66667 7.25754 4.66667 7.08073C4.66667 6.90392 4.59643 6.73435 4.4714 6.60932C4.34638 6.4843 4.17681 6.41406 4 6.41406ZM7.33333 6.41406H6.66667C6.48986 6.41406 6.32029 6.4843 6.19526 6.60932C6.07024 6.73435 6 6.90392 6 7.08073C6 7.25754 6.07024 7.42711 6.19526 7.55213C6.32029 7.67716 6.48986 7.7474 6.66667 7.7474H7.33333C7.51014 7.7474 7.67971 7.67716 7.80474 7.55213C7.92976 7.42711 8 7.25754 8 7.08073C8 6.90392 7.92976 6.73435 7.80474 6.60932C7.67971 6.4843 7.51014 6.41406 7.33333 6.41406ZM16 7.08073V13.0807C15.9989 13.9645 15.6474 14.8117 15.0225 15.4366C14.3976 16.0615 13.5504 16.413 12.6667 16.4141H3.33333C2.4496 16.413 1.60237 16.0615 0.97748 15.4366C0.352588 14.8117 0.00105857 13.9645 0 13.0807L0 3.7474C0.00105857 2.86367 0.352588 2.01643 0.97748 1.39154C1.60237 0.76665 2.4496 0.415121 3.33333 0.414063L7.33333 0.414062C8.21706 0.415121 9.0643 0.76665 9.68919 1.39154C10.3141 2.01643 10.6656 2.86367 10.6667 3.7474H12.6667C13.5504 3.74845 14.3976 4.09998 15.0225 4.72488C15.6474 5.34977 15.9989 6.197 16 7.08073V7.08073ZM3.33333 15.0807H9.33333V3.7474C9.33333 3.21696 9.12262 2.70826 8.74755 2.33318C8.37247 1.95811 7.86377 1.7474 7.33333 1.7474H3.33333C2.8029 1.7474 2.29419 1.95811 1.91912 2.33318C1.54405 2.70826 1.33333 3.21696 1.33333 3.7474V13.0807C1.33333 13.6112 1.54405 14.1199 1.91912 14.4949C2.29419 14.87 2.8029 15.0807 3.33333 15.0807ZM14.6667 7.08073C14.6667 6.5503 14.456 6.04159 14.0809 5.66652C13.7058 5.29144 13.1971 5.08073 12.6667 5.08073H10.6667V15.0807H12.6667C13.1971 15.0807 13.7058 14.87 14.0809 14.4949C14.456 14.1199 14.6667 13.6112 14.6667 13.0807V7.08073ZM12.6667 9.08073C12.5348 9.08073 12.4059 9.11983 12.2963 9.19308C12.1867 9.26634 12.1012 9.37046 12.0507 9.49227C12.0003 9.61409 11.9871 9.74814 12.0128 9.87746C12.0385 10.0068 12.102 10.1256 12.1953 10.2188C12.2885 10.312 12.4073 10.3755 12.5366 10.4013C12.6659 10.427 12.8 10.4138 12.9218 10.3633C13.0436 10.3129 13.1477 10.2274 13.221 10.1178C13.2942 10.0081 13.3333 9.87925 13.3333 9.7474C13.3333 9.57059 13.2631 9.40102 13.1381 9.27599C13.013 9.15097 12.8435 9.08073 12.6667 9.08073ZM12.6667 11.7474C12.5348 11.7474 12.4059 11.7865 12.2963 11.8597C12.1867 11.933 12.1012 12.0371 12.0507 12.1589C12.0003 12.2808 11.9871 12.4148 12.0128 12.5441C12.0385 12.6734 12.102 12.7922 12.1953 12.8855C12.2885 12.9787 12.4073 13.0422 12.5366 13.0679C12.6659 13.0936 12.8 13.0804 12.9218 13.03C13.0436 12.9795 13.1477 12.8941 13.221 12.7844C13.2942 12.6748 13.3333 12.5459 13.3333 12.4141C13.3333 12.2373 13.2631 12.0677 13.1381 11.9427C13.013 11.8176 12.8435 11.7474 12.6667 11.7474ZM12.6667 6.41406C12.5348 6.41406 12.4059 6.45316 12.2963 6.52642C12.1867 6.59967 12.1012 6.70379 12.0507 6.82561C12.0003 6.94742 11.9871 7.08147 12.0128 7.21079C12.0385 7.34011 12.102 7.4589 12.1953 7.55213C12.2885 7.64537 12.4073 7.70886 12.5366 7.73459C12.6659 7.76031 12.8 7.74711 12.9218 7.69665C13.0436 7.64619 13.1477 7.56074 13.221 7.45111C13.2942 7.34148 13.3333 7.21258 13.3333 7.08073C13.3333 6.90392 13.2631 6.73435 13.1381 6.60932C13.013 6.4843 12.8435 6.41406 12.6667 6.41406Z" fill="#52606D"/>
</svg>
