<svg width="18" height="21" viewBox="0 0 18 21" fill="none" xmlns="http://www.w3.org/2000/svg">
<path fill-rule="evenodd" clip-rule="evenodd" d="M9 4.5C4.85786 4.5 1.5 7.85786 1.5 12C1.5 16.1421 4.85786 19.5 9 19.5C13.1421 19.5 16.5 16.1421 16.5 12C16.5 7.85786 13.1421 4.5 9 4.5ZM0 12C0 7.02944 4.02944 3 9 3C13.9706 3 18 7.02944 18 12C18 16.9706 13.9706 21 9 21C4.02944 21 0 16.9706 0 12Z" fill="#7B8794"/>
<path fill-rule="evenodd" clip-rule="evenodd" d="M13.2428 7.75721C13.5357 8.0501 13.5357 8.52497 13.2428 8.81787L9.53033 12.5304C9.23744 12.8233 8.76256 12.8233 8.46967 12.5304C8.17678 12.2375 8.17678 11.7626 8.46967 11.4697L12.1822 7.75721C12.4751 7.46431 12.9499 7.46431 13.2428 7.75721Z" fill="#7B8794"/>
<path fill-rule="evenodd" clip-rule="evenodd" d="M6 0.75C6 0.335786 6.33579 0 6.75 0H11.25C11.6642 0 12 0.335786 12 0.75C12 1.16421 11.6642 1.5 11.25 1.5H6.75C6.33579 1.5 6 1.16421 6 0.75Z" fill="#7B8794"/>
</svg>
