<svg width="20" height="19" viewBox="0 0 20 19" fill="none" xmlns="http://www.w3.org/2000/svg">
<path d="M18.9997 0.50168C18.7184 0.220473 18.337 0.0625 17.9392 0.0625C17.5415 0.0625 17.16 0.220473 16.8787 0.50168L9.99973 7.38068L3.12073 0.50168C2.83944 0.220473 2.45797 0.0625 2.06023 0.0625C1.66248 0.0625 1.28102 0.220473 0.999727 0.50168C0.71852 0.782972 0.560547 1.16443 0.560547 1.56218C0.560547 1.95993 0.71852 2.34139 0.999727 2.62268L7.87873 9.50168L0.999727 16.3807C0.71852 16.662 0.560547 17.0434 0.560547 17.4412C0.560547 17.8389 0.71852 18.2204 0.999727 18.5017C1.28102 18.7829 1.66248 18.9409 2.06023 18.9409C2.45797 18.9409 2.83944 18.7829 3.12073 18.5017L9.99973 11.6227L16.8787 18.5017C17.16 18.7829 17.5415 18.9409 17.9392 18.9409C18.337 18.9409 18.7184 18.7829 18.9997 18.5017C19.2809 18.2204 19.4389 17.8389 19.4389 17.4412C19.4389 17.0434 19.2809 16.662 18.9997 16.3807L12.1207 9.50168L18.9997 2.62268C19.2809 2.34139 19.4389 1.95993 19.4389 1.56218C19.4389 1.16443 19.2809 0.782972 18.9997 0.50168Z" fill="#374957"/>
</svg>
