<svg width="20" height="14" viewBox="0 0 20 14" fill="none" xmlns="http://www.w3.org/2000/svg">
<path fill-rule="evenodd" clip-rule="evenodd" d="M8.78474 10.1596C9.02882 9.91551 9.42455 9.91551 9.66863 10.1596L11.8751 12.3661L14.0816 10.1596C14.3257 9.91551 14.7214 9.91551 14.9655 10.1596C15.2096 10.4037 15.2096 10.7994 14.9655 11.0435L12.3171 13.6919C12.073 13.936 11.6773 13.936 11.4332 13.6919L8.78474 11.0435C8.54067 10.7994 8.54067 10.4037 8.78474 10.1596Z" fill="white"/>
<path fill-rule="evenodd" clip-rule="evenodd" d="M11.875 6.375C12.2202 6.375 12.5 6.65482 12.5 7V13.25C12.5 13.5952 12.2202 13.875 11.875 13.875C11.5298 13.875 11.25 13.5952 11.25 13.25V7C11.25 6.65482 11.5298 6.375 11.875 6.375Z" fill="white"/>
<path fill-rule="evenodd" clip-rule="evenodd" d="M6.56009 5.23933C6.25429 5.16328 5.94035 5.12488 5.62523 5.125C4.63067 5.125 3.67661 5.52009 2.97335 6.22335C2.27009 6.92661 1.875 7.88044 1.875 8.875C1.875 9.86956 2.27009 10.8234 2.97335 11.5267C3.67661 12.2299 4.63044 12.625 5.625 12.625H7.5C7.84518 12.625 8.125 12.9048 8.125 13.25C8.125 13.5952 7.84518 13.875 7.5 13.875H5.625C4.29892 13.875 3.02715 13.3482 2.08947 12.4105C1.15178 11.4729 0.625 10.2011 0.625 8.875C0.625 7.54892 1.15178 6.27715 2.08947 5.33947C3.02709 4.40184 4.29877 3.87506 5.62477 3.875M5.62477 3.875C6.04165 3.87486 6.45723 3.92567 6.86179 4.02629C7.19676 4.1096 7.40077 4.44869 7.31746 4.78366C7.23415 5.11864 6.89506 5.32265 6.56009 5.23933" fill="white"/>
<path fill-rule="evenodd" clip-rule="evenodd" d="M14.2788 1.66366C13.4332 1.38181 12.5328 1.30492 11.6517 1.43933C10.7706 1.57375 9.93406 1.91562 9.211 2.43676C8.48795 2.95791 7.89909 3.64342 7.49294 4.4368C7.0868 5.23018 6.875 6.10871 6.875 7C6.875 7.34518 6.59518 7.625 6.25 7.625C5.90482 7.625 5.625 7.34518 5.625 7C5.625 5.91064 5.88387 4.83688 6.38026 3.8672C6.87666 2.89751 7.59638 2.05967 8.48012 1.42271C9.36385 0.785752 10.3863 0.367915 11.4632 0.20363C12.5401 0.0393461 13.6406 0.133318 14.6741 0.477803C15.7075 0.822288 16.6443 1.40742 17.4073 2.18499C18.1702 2.96256 18.7375 3.91029 19.0623 4.9501C19.3871 5.9899 19.4602 7.09201 19.2755 8.1656C19.0908 9.23919 18.6536 10.2535 18 11.125C17.7929 11.4011 17.4011 11.4571 17.125 11.25C16.8489 11.0429 16.7929 10.6511 17 10.375C17.5348 9.66197 17.8925 8.83206 18.0436 7.95367C18.1947 7.07528 18.1349 6.17356 17.8691 5.32281C17.6034 4.47206 17.1393 3.69664 16.515 3.06045C15.8908 2.42426 15.1243 1.94551 14.2788 1.66366Z" fill="white"/>
</svg>
