<svg width="18" height="8" viewBox="0 0 18 8" fill="none" xmlns="http://www.w3.org/2000/svg">
<path d="M9.00004 7.86156C8.56201 7.86234 8.12812 7.77678 7.72317 7.60977C7.31823 7.44276 6.95017 7.19757 6.64004 6.88822L1.19338 1.44156C1.06784 1.31602 0.997314 1.14576 0.997314 0.968223C0.997314 0.790688 1.06784 0.620425 1.19338 0.494889C1.31891 0.369353 1.48917 0.298828 1.66671 0.298828C1.84424 0.298828 2.01451 0.369353 2.14004 0.494889L7.58671 5.94156C7.96171 6.31609 8.47004 6.52646 9.00004 6.52646C9.53004 6.52646 10.0384 6.31609 10.4134 5.94156L15.86 0.494889C15.9856 0.369353 16.1558 0.298828 16.3334 0.298828C16.5109 0.298828 16.6812 0.369353 16.8067 0.494889C16.9322 0.620425 17.0028 0.790688 17.0028 0.968223C17.0028 1.14576 16.9322 1.31602 16.8067 1.44156L11.36 6.88822C11.0499 7.19757 10.6819 7.44276 10.2769 7.60977C9.87197 7.77678 9.43808 7.86234 9.00004 7.86156Z" fill="#52606D"/>
</svg>
