<svg width="10" height="10" viewBox="0 0 10 10" fill="none" xmlns="http://www.w3.org/2000/svg">
<path d="M9.00377 2.31387L6.90527 0.215834C6.76268 0.0751208 6.57272 -0.00274054 6.37337 7.37239e-05C6.17309 0.00148086 5.985 0.0812184 5.84617 0.221932L0.217167 5.8514C0.143997 5.92504 0.0886493 6.01088 0.0520639 6.10421C0.0469044 6.11641 0.042683 6.1286 0.0389307 6.1408C0.0136023 6.21632 0 6.29652 0 6.37861V8.47523C0 8.88893 0.336774 9.2257 0.750471 9.2257H2.84851C2.92637 9.2257 3.00376 9.21257 3.07693 9.18865C3.09522 9.18349 3.11351 9.17739 3.13087 9.16942C3.2214 9.13236 3.30488 9.07749 3.37477 9.00807L9.0094 3.37297C9.29974 3.07794 9.29599 2.60186 9.0033 2.31387H9.00377ZM0.906193 6.22382L4.87947 2.25289L5.66042 3.03385L1.68856 7.00619L0.906193 6.22382ZM0.749533 7.12814L2.09616 8.47476H0.750471L0.749063 7.12814H0.749533ZM3.00235 8.31951L2.21952 7.53668L6.19185 3.56434L6.97469 4.34718L3.00235 8.31951ZM7.50517 3.81669L5.41089 1.7224L6.38135 0.752421L8.47328 2.84858L7.50517 3.81669Z" fill="white"/>
</svg>
