<svg width="12" height="12" viewBox="0 0 12 12" fill="none" xmlns="http://www.w3.org/2000/svg">
<path d="M11.2608 4.46611C11.5995 4.12194 11.5951 3.56655 11.2537 3.23058L8.8056 0.783039C8.63926 0.618885 8.41765 0.528053 8.1851 0.531336C7.95145 0.532978 7.73203 0.625998 7.57006 0.790153L1.00335 7.35742C0.839193 7.52212 0.749455 7.74099 0.750002 7.97245V10.4183C0.750002 10.901 1.14288 11.2938 1.62549 11.2938H10.8181C11.06 11.2938 11.2559 11.0979 11.2559 10.8561C11.2559 10.6142 11.06 10.4183 10.8181 10.4183H5.30857L11.2608 4.46611ZM8.1944 1.40901L10.6348 3.85437L9.50544 4.98375L7.06228 2.54058L8.1944 1.40901ZM1.6233 7.97573L6.44232 3.15945L8.88549 5.60261L4.07084 10.4183H1.62549L1.6233 7.97573Z" fill="#9AA5B1"/>
</svg>
