<svg width="36" height="16" viewBox="0 0 36 16" fill="none" xmlns="http://www.w3.org/2000/svg">
<path d="M35.5669 12.25L35.9119 10.365C36.074 9.42546 35.9962 8.46017 35.686 7.55861C35.3757 6.65705 34.8429 5.84839 34.1369 5.20755C30.7069 2.05755 25.3494 0.490048 18.0619 0.500048C10.7869 0.510048 5.59189 2.09005 2.47689 5.23755C1.15689 6.57005 0.676889 8.54755 1.21439 10.425L1.75439 12.31C2.25939 14.07 3.96439 15.2476 5.73939 15.0601L9.29939 14.6875C10.0394 14.6147 10.7347 14.2995 11.2772 13.791C11.8197 13.2824 12.179 12.6089 12.2994 11.875L12.9844 7.86505C14.7054 7.05966 16.5748 6.62039 18.4744 6.57505C20.4419 6.51505 22.2444 6.83255 23.8794 7.53005L24.9844 11.815C25.1779 12.5679 25.5961 13.2439 26.1834 13.753C26.7708 14.2622 27.4992 14.5803 28.2719 14.665L31.8519 15.0251C32.7076 15.1215 33.5679 14.8882 34.2576 14.3726C34.9473 13.8571 35.4171 13.098 35.5669 12.25Z" fill="#CC3333"/>
</svg>
