<svg width="86" height="85" viewBox="0 0 86 85" fill="none" xmlns="http://www.w3.org/2000/svg">
<path fill-rule="evenodd" clip-rule="evenodd" d="M43 7.09375C23.2558 7.09375 7.25 22.9457 7.25 42.5C7.25 62.0543 23.2558 77.9062 43 77.9062C62.7442 77.9062 78.75 62.0543 78.75 42.5C78.75 22.9457 62.7442 7.09375 43 7.09375ZM0.75 42.5C0.75 19.3903 19.666 0.65625 43 0.65625C66.334 0.65625 85.25 19.3903 85.25 42.5C85.25 65.6097 66.334 84.3438 43 84.3438C19.666 84.3438 0.75 65.6097 0.75 42.5Z" fill="#E12D39"/>
<path fill-rule="evenodd" clip-rule="evenodd" d="M58.2981 27.349C59.5673 28.606 59.5673 30.644 58.2981 31.901L32.2981 57.651C31.0289 58.908 28.9711 58.908 27.7019 57.651C26.4327 56.394 26.4327 54.356 27.7019 53.099L53.7019 27.349C54.9711 26.092 57.0289 26.092 58.2981 27.349Z" fill="#E12D39"/>
<path fill-rule="evenodd" clip-rule="evenodd" d="M27.7019 27.349C28.9711 26.092 31.0289 26.092 32.2981 27.349L58.2981 53.099C59.5673 54.356 59.5673 56.394 58.2981 57.651C57.0289 58.908 54.9711 58.908 53.7019 57.651L27.7019 31.901C26.4327 30.644 26.4327 28.606 27.7019 27.349Z" fill="#E12D39"/>
</svg>
