<svg width="42" height="42" viewBox="0 0 42 42" fill="none" xmlns="http://www.w3.org/2000/svg">
<path d="M21 0C9.42019 0 0 9.42049 0 20.9998C0 32.5796 9.42019 42.0004 21 42.0004C32.5791 42.0004 42 32.5796 42 20.9998C42 9.42049 32.5791 0 21 0ZM26.9352 13.2568C26.9352 13.4637 26.7676 13.6313 26.5603 13.6317L24.1731 13.6332C22.598 13.6332 22.31 14.2466 22.31 15.4546V17.9607H26.4043C26.5119 17.9607 26.6146 18.0071 26.6855 18.0881C26.7563 18.1691 26.7893 18.2767 26.7762 18.3836L26.1932 22.8951C26.1692 23.0822 26.0095 23.222 25.8213 23.222H22.31V34.4246C22.31 34.6319 22.1424 34.7995 21.9351 34.7995H17.2769C17.0696 34.7995 16.902 34.6319 16.902 34.4246V23.222H13.3795C13.1721 23.222 13.0046 23.0545 13.0046 22.8471V18.3356C13.0046 18.1282 13.1721 17.9607 13.3795 17.9607H16.902V15.0081C16.902 11.0976 19.2686 8.66876 23.079 8.66876C24.7171 8.66876 26.1647 8.79061 26.6094 8.84947C26.7961 8.87422 26.9352 9.03319 26.9352 9.22103V13.2568Z" fill="white"/>
</svg>
