<svg width="28" height="28" viewBox="0 0 28 28" fill="none" xmlns="http://www.w3.org/2000/svg">
<g clip-path="url(#clip0_2170_2455)">
<path d="M6.20539 16.9207L5.23075 20.5592L1.66846 20.6346C0.603859 18.66 0 16.4008 0 14C0 11.6785 0.564594 9.4892 1.56538 7.56152H1.56614L4.73758 8.14296L6.12686 11.2954C5.83609 12.1431 5.6776 13.0531 5.6776 14C5.67771 15.0277 5.86387 16.0123 6.20539 16.9207Z" fill="#FBBB00"/>
<path d="M27.7552 11.3848C27.916 12.2317 27.9998 13.1063 27.9998 14.0001C27.9998 15.0025 27.8945 15.9802 27.6937 16.9232C27.0122 20.1325 25.2314 22.9348 22.7645 24.9178L22.7637 24.9171L18.7691 24.7133L18.2038 21.184C19.8407 20.224 21.1199 18.7217 21.7938 16.9232H14.3076V11.3848H27.7552Z" fill="#518EF8"/>
<path d="M22.7643 24.917L22.7651 24.9178C20.3659 26.8462 17.3182 28.0001 14.0005 28.0001C8.66895 28.0001 4.03358 25.0201 1.66895 20.6347L6.20587 16.9209C7.38816 20.0763 10.432 22.3224 14.0005 22.3224C15.5343 22.3224 16.9713 21.9078 18.2043 21.184L22.7643 24.917Z" fill="#28B446"/>
<path d="M22.9362 3.22306L18.4008 6.93613C17.1247 6.13845 15.6162 5.67766 14.0001 5.67766C10.3508 5.67766 7.25003 8.02687 6.12697 11.2954L1.5662 7.56153H1.56543C3.89545 3.06923 8.58927 0 14.0001 0C17.397 0 20.5116 1.21002 22.9362 3.22306Z" fill="#F14336"/>
</g>
<defs>
<clipPath id="clip0_2170_2455">
<rect width="28" height="28" fill="white"/>
</clipPath>
</defs>
</svg>
