<svg width="18" height="18" viewBox="0 0 18 18" fill="none" xmlns="http://www.w3.org/2000/svg">
<path fill-rule="evenodd" clip-rule="evenodd" d="M9 2.8125C5.58274 2.8125 2.8125 5.58274 2.8125 9C2.8125 12.4173 5.58274 15.1875 9 15.1875C12.4173 15.1875 15.1875 12.4173 15.1875 9C15.1875 5.58274 12.4173 2.8125 9 2.8125ZM1.6875 9C1.6875 4.96142 4.96142 1.6875 9 1.6875C13.0386 1.6875 16.3125 4.96142 16.3125 9C16.3125 13.0386 13.0386 16.3125 9 16.3125C4.96142 16.3125 1.6875 13.0386 1.6875 9Z" fill="#52606D"/>
<path d="M9 13.5C9.46599 13.5 9.84375 13.1222 9.84375 12.6562C9.84375 12.1903 9.46599 11.8125 9 11.8125C8.53401 11.8125 8.15625 12.1903 8.15625 12.6562C8.15625 13.1222 8.53401 13.5 9 13.5Z" fill="#52606D"/>
<path fill-rule="evenodd" clip-rule="evenodd" d="M8.03133 5.25518C8.49386 5.0636 9.00281 5.01347 9.49382 5.11114C9.98484 5.20881 10.4359 5.44989 10.7899 5.80389C11.1439 6.15789 11.3849 6.60891 11.4826 7.09993C11.5803 7.59094 11.5302 8.09989 11.3386 8.56242C11.147 9.02494 10.8225 9.42027 10.4063 9.69841C10.1482 9.87084 9.86204 9.99344 9.5625 10.0617V10.125C9.5625 10.4357 9.31066 10.6875 9 10.6875C8.68934 10.6875 8.4375 10.4357 8.4375 10.125V9.5625C8.4375 9.41332 8.49676 9.27024 8.60225 9.16475C8.70774 9.05926 8.85082 9 9 9C9.27813 9 9.55001 8.91753 9.78127 8.76301C10.0125 8.60848 10.1928 8.38886 10.2992 8.1319C10.4056 7.87494 10.4335 7.59219 10.3792 7.31941C10.325 7.04662 10.191 6.79605 9.99437 6.59938C9.7977 6.40272 9.54713 6.26878 9.27435 6.21452C9.00156 6.16026 8.71881 6.18811 8.46185 6.29455C8.20489 6.40098 7.98527 6.58122 7.83075 6.81248C7.67623 7.04374 7.59375 7.31562 7.59375 7.59375C7.59375 7.90441 7.34191 8.15625 7.03125 8.15625C6.72059 8.15625 6.46875 7.90441 6.46875 7.59375C6.46875 7.09312 6.61721 6.60373 6.89534 6.18746C7.17348 5.7712 7.56881 5.44677 8.03133 5.25518Z" fill="#52606D"/>
</svg>
