<svg width="18" height="18" viewBox="0 0 18 18" fill="none" xmlns="http://www.w3.org/2000/svg">
<path fill-rule="evenodd" clip-rule="evenodd" d="M8.24145 2.17897C8.44873 1.98971 8.71929 1.88477 9 1.88477C9.28071 1.88477 9.55127 1.98971 9.75855 2.17897L9.75937 2.17972L15.383 7.29017L15.3909 7.29751C15.5021 7.4025 15.5911 7.52866 15.6528 7.66857C15.7144 7.80849 15.7475 7.95933 15.7499 8.11221L15.75 8.12131V14.6252C15.75 14.9236 15.6315 15.2097 15.4205 15.4207C15.2095 15.6317 14.9234 15.7502 14.625 15.7502H11.25C10.9516 15.7502 10.6655 15.6317 10.4545 15.4207C10.2435 15.2097 10.125 14.9236 10.125 14.6252V11.2502H7.875V14.6252C7.875 14.9236 7.75647 15.2097 7.5455 15.4207C7.33452 15.6317 7.04837 15.7502 6.75 15.7502H3.375C3.07663 15.7502 2.79048 15.6317 2.5795 15.4207C2.36853 15.2097 2.25 14.9236 2.25 14.6252V8.12131L2.25007 8.11221C2.25255 7.95933 2.28559 7.80849 2.34724 7.66857C2.4089 7.52866 2.49793 7.4025 2.60909 7.29751L2.61701 7.29017L8.24062 2.17972L8.24145 2.17897ZM3.38033 8.11664L8.99861 3.01103L9 3.00977L9.00139 3.01103L14.6197 8.11664C14.6212 8.1183 14.6224 8.12019 14.6233 8.12224C14.6242 8.12437 14.6248 8.12664 14.625 8.12895V14.6252H11.25V11.2502C11.25 10.9518 11.1315 10.6657 10.9205 10.4547C10.7095 10.2437 10.4234 10.1252 10.125 10.1252H7.875C7.57663 10.1252 7.29048 10.2437 7.0795 10.4547C6.86853 10.6657 6.75 10.9518 6.75 11.2502V14.6252H3.375V8.12895C3.3752 8.12664 3.37578 8.12437 3.37671 8.12224C3.37762 8.12019 3.37884 8.1183 3.38033 8.11664Z" fill="white"/>
</svg>
