<svg width="42" height="42" viewBox="0 0 42 42" fill="none" xmlns="http://www.w3.org/2000/svg">
<path d="M21.0197 25.245C23.3398 25.245 25.2216 23.4224 25.2216 21.1751C25.2216 18.9255 23.3394 17.1045 21.0197 17.1045C18.7004 17.1045 16.8193 18.9255 16.8193 21.1751C16.8193 23.4221 18.7004 25.245 21.0197 25.245Z" fill="white"/>
<path d="M25.7797 17.2219H28.1437C28.6615 17.2219 29.0855 16.7978 29.0855 16.2793V14.0263C29.0855 13.5078 28.6615 13.083 28.1437 13.083H25.7797C25.2604 13.083 24.8379 13.5078 24.8379 14.0263V16.2793C24.8379 16.7978 25.2604 17.2219 25.7797 17.2219Z" fill="white"/>
<path d="M27.5231 21.4024C27.5231 24.8802 24.6106 27.7019 21.0195 27.7019C17.4291 27.7019 14.5174 24.8806 14.5174 21.4024C14.5174 20.7774 14.6126 20.176 14.787 19.6064H12.8662V28.4428C12.8662 28.9006 13.2396 29.2725 13.6974 29.2725H28.2628C28.7214 29.2725 29.0948 28.9006 29.0948 28.4428V19.6064H27.2539C27.4286 20.176 27.5231 20.7774 27.5231 21.4024Z" fill="white"/>
<path d="M20.9993 0C9.42019 0 0 9.42049 0 20.9998C0 32.5796 9.42019 42.0004 20.9993 42.0004C32.5791 42.0004 42 32.5796 42 20.9998C42 9.42049 32.5791 0 20.9993 0ZM31.4591 28.9933C31.4591 30.4698 30.2507 31.6771 28.7746 31.6771H13.2269C11.7504 31.6771 10.5416 30.4698 10.5416 28.9933V13.4461C10.5416 11.9689 11.7508 10.7609 13.2269 10.7609H28.775C30.2515 10.7609 31.4595 11.9689 31.4595 13.4461V28.9933H31.4591Z" fill="white"/>
</svg>
