<svg width="49" height="64" viewBox="0 0 49 64" fill="none" xmlns="http://www.w3.org/2000/svg">
<path fill-rule="evenodd" clip-rule="evenodd" d="M46.6875 60.8438C46.6875 59.6184 45.6941 58.625 44.4688 58.625H4.53125C3.30587 58.625 2.3125 59.6184 2.3125 60.8438C2.3125 62.0691 3.30587 63.0625 4.53125 63.0625H44.4688C45.6941 63.0625 46.6875 62.0691 46.6875 60.8438Z" fill="black"/>
<path fill-rule="evenodd" clip-rule="evenodd" d="M24.5 18.6875C28.1761 18.6875 31.1562 21.6676 31.1562 25.3438C31.1562 29.0199 28.1761 32 24.5 32C20.8239 32 17.8438 29.0199 17.8438 25.3438C17.8438 21.6676 20.8239 18.6875 24.5 18.6875ZM35.5938 25.3438C35.5938 19.2168 30.6269 14.25 24.5 14.25C18.3731 14.25 13.4062 19.2168 13.4062 25.3438C13.4062 31.4707 18.3731 36.4375 24.5 36.4375C30.6269 36.4375 35.5938 31.4707 35.5938 25.3438Z" fill="black"/>
<path fill-rule="evenodd" clip-rule="evenodd" d="M24.5 5.375C29.796 5.375 34.8752 7.47884 38.62 11.2237C42.3649 14.9686 44.4688 20.0477 44.4688 25.3438C44.4688 34.5293 39.3393 42.8933 33.9195 49.1261C31.2366 52.2114 28.5481 54.6989 26.5298 56.4144C25.7316 57.0929 25.0408 57.6484 24.5 58.0703C23.9592 57.6484 23.2684 57.0929 22.4702 56.4144C20.4519 54.6989 17.7634 52.2114 15.0805 49.1261C9.66066 42.8933 4.53125 34.5293 4.53125 25.3438C4.53125 20.0477 6.63509 14.9686 10.38 11.2237C14.1248 7.47884 19.204 5.375 24.5 5.375ZM24.5 60.8438C25.7724 62.6614 25.773 62.661 25.7737 62.6605L25.7755 62.6592L25.7807 62.6556L25.7971 62.644L25.8535 62.6039C25.9015 62.5696 25.9699 62.5204 26.0574 62.4565C26.2323 62.3288 26.4837 62.1425 26.8007 61.9002C27.4344 61.4159 28.3313 60.7071 29.4038 59.7955C31.5456 57.9749 34.404 55.3316 37.268 52.0379C42.9419 45.513 48.9062 36.127 48.9062 25.3438C48.9062 18.8708 46.3349 12.663 41.7578 8.08593C37.1808 3.50887 30.9729 0.9375 24.5 0.9375C18.0271 0.9375 11.8192 3.50887 7.24217 8.08593C2.66512 12.663 0.09375 18.8708 0.09375 25.3438C0.09375 36.127 6.05809 45.513 11.732 52.0379C14.596 55.3316 17.4544 57.9749 19.5962 59.7955C20.6687 60.7071 21.5656 61.4159 22.1993 61.9002C22.5163 62.1425 22.7677 62.3288 22.9426 62.4565C23.0301 62.5204 23.0985 62.5696 23.1465 62.6039L23.2029 62.644L23.2193 62.6556L23.2245 62.6592L23.2263 62.6605C23.227 62.661 23.2276 62.6614 24.5 60.8438ZM24.5 60.8438L23.2263 62.6605C23.9903 63.1953 25.0097 63.1953 25.7737 62.6605L24.5 60.8438Z" fill="black"/>
</svg>
