<svg width="81" height="80" viewBox="0 0 81 80" fill="none" xmlns="http://www.w3.org/2000/svg">
<circle cx="40.5" cy="40" r="40" fill="#FFE3E3"/>
<path fill-rule="evenodd" clip-rule="evenodd" d="M28.5 20C26.9087 20 25.3826 20.6321 24.2574 21.7574C23.1321 22.8826 22.5 24.4087 22.5 26V54C22.5 55.5913 23.1321 57.1174 24.2574 58.2426C25.3826 59.3679 26.9087 60 28.5 60H40.5C42.0913 60 43.6174 59.3679 44.7426 58.2426C45.8679 57.1174 46.5 55.5913 46.5 54V26C46.5 24.4087 45.8679 22.8826 44.7426 21.7574C43.6174 20.6321 42.0913 20 40.5 20H28.5ZM49.086 30.586C49.4611 30.2111 49.9697 30.0004 50.5 30.0004C51.0303 30.0004 51.5389 30.2111 51.914 30.586L59.914 38.586C60.2889 38.9611 60.4996 39.4697 60.4996 40C60.4996 40.5303 60.2889 41.0389 59.914 41.414L51.914 49.414C51.5368 49.7783 51.0316 49.9799 50.5072 49.9753C49.9828 49.9708 49.4812 49.7605 49.1104 49.3896C48.7395 49.0188 48.5292 48.5172 48.5247 47.9928C48.5201 47.4684 48.7217 46.9632 49.086 46.586L53.672 42H36.5C35.9696 42 35.4609 41.7893 35.0858 41.4142C34.7107 41.0391 34.5 40.5304 34.5 40C34.5 39.4696 34.7107 38.9609 35.0858 38.5858C35.4609 38.2107 35.9696 38 36.5 38H53.672L49.086 33.414C48.7111 33.0389 48.5004 32.5303 48.5004 32C48.5004 31.4697 48.7111 30.9611 49.086 30.586Z" fill="#CC3333"/>
</svg>
