<svg width="18" height="20" viewBox="0 0 18 20" fill="none" xmlns="http://www.w3.org/2000/svg">
<path fill-rule="evenodd" clip-rule="evenodd" d="M0 3.5C0 2.67157 0.671573 2 1.5 2H16.5C17.3284 2 18 2.67157 18 3.5V18.5C18 19.3284 17.3284 20 16.5 20H1.5C0.671573 20 0 19.3284 0 18.5V3.5ZM16.5 3.5H1.5V18.5H16.5V3.5Z" fill="#7B8794"/>
<path fill-rule="evenodd" clip-rule="evenodd" d="M13.5 0.5C13.9142 0.5 14.25 0.835786 14.25 1.25V4.25C14.25 4.66421 13.9142 5 13.5 5C13.0858 5 12.75 4.66421 12.75 4.25V1.25C12.75 0.835786 13.0858 0.5 13.5 0.5Z" fill="#7B8794"/>
<path fill-rule="evenodd" clip-rule="evenodd" d="M4.5 0.5C4.91421 0.5 5.25 0.835786 5.25 1.25V4.25C5.25 4.66421 4.91421 5 4.5 5C4.08579 5 3.75 4.66421 3.75 4.25V1.25C3.75 0.835786 4.08579 0.5 4.5 0.5Z" fill="#7B8794"/>
<path fill-rule="evenodd" clip-rule="evenodd" d="M0 7.25C0 6.83579 0.335786 6.5 0.75 6.5H17.25C17.6642 6.5 18 6.83579 18 7.25C18 7.66421 17.6642 8 17.25 8H0.75C0.335786 8 0 7.66421 0 7.25Z" fill="#7B8794"/>
<path fill-rule="evenodd" clip-rule="evenodd" d="M4.875 11C4.875 10.5858 5.21079 10.25 5.625 10.25H8.25C8.5383 10.25 8.80109 10.4153 8.92598 10.6751C9.05087 10.935 9.01575 11.2434 8.83565 11.4685L8.00554 12.5062C8.24875 12.6692 8.45842 12.8786 8.62215 13.1231C8.82817 13.4308 8.95507 13.7846 8.9916 14.1531C9.02812 14.5216 8.97313 14.8934 8.83151 15.2355C8.68989 15.5777 8.46602 15.8796 8.17975 16.1144C7.89349 16.3493 7.55368 16.5099 7.19046 16.582C6.82725 16.654 6.45187 16.6354 6.09761 16.5276C5.74335 16.4198 5.42117 16.2262 5.15965 15.9641C4.86712 15.6708 4.86769 15.1959 5.16094 14.9034C5.45418 14.6109 5.92906 14.6114 6.2216 14.9047C6.30877 14.9921 6.41616 15.0566 6.53425 15.0925C6.65233 15.1284 6.77746 15.1347 6.89853 15.1107C7.0196 15.0866 7.13287 15.0331 7.2283 14.9548C7.32372 14.8765 7.39834 14.7759 7.44555 14.6618C7.49275 14.5478 7.51108 14.4239 7.49891 14.301C7.48674 14.1782 7.44444 14.0603 7.37576 13.9577C7.30708 13.8551 7.21416 13.7711 7.10522 13.7131C6.99629 13.655 6.87471 13.6248 6.75128 13.625C6.46275 13.6255 6.19951 13.4604 6.0743 13.2005C5.94909 12.9405 5.9841 12.6318 6.16435 12.4065L6.68953 11.75H5.625C5.21079 11.75 4.875 11.4142 4.875 11Z" fill="#7B8794"/>
<path fill-rule="evenodd" clip-rule="evenodd" d="M12.3355 10.3292C12.5895 10.4562 12.75 10.7159 12.75 11V15.875C12.75 16.2892 12.4143 16.625 12 16.625C11.5858 16.625 11.25 16.2892 11.25 15.875V12.5L10.95 12.725C10.6187 12.9735 10.1486 12.9064 9.90004 12.575C9.65152 12.2436 9.71867 11.7735 10.05 11.525L11.55 10.4C11.7773 10.2296 12.0814 10.2021 12.3355 10.3292Z" fill="#7B8794"/>
</svg>
