<svg xmlns="http://www.w3.org/2000/svg"  viewBox="0 0 128 128" width="64px" height="64px"><path fill="#fff" d="M79,104c0,8.28-6.72,15-15,15s-15-6.72-15-15"/><path fill="#71c2ff" d="M13.54,46.4c-0.24,0-0.49-0.03-0.73-0.09c-1.61-0.4-2.58-2.03-2.18-3.64c3.12-12.48,10.55-23.53,20.91-31.1 c1.34-0.98,3.21-0.69,4.19,0.65c0.98,1.34,0.69,3.21-0.65,4.19c-9.23,6.74-15.84,16.58-18.63,27.71 C16.1,45.49,14.88,46.4,13.54,46.4z"/><path fill="#71c2ff" d="M114.46,46.4c-1.34,0-2.57-0.91-2.91-2.27c-2.78-11.12-9.4-20.97-18.63-27.71 c-1.34-0.98-1.63-2.85-0.65-4.19c0.98-1.34,2.86-1.63,4.19-0.65c10.36,7.57,17.79,18.61,20.91,31.1c0.4,1.61-0.58,3.24-2.18,3.64 C114.95,46.37,114.71,46.4,114.46,46.4z"/><path fill="#fff" d="M96.19,104H31.81c-6.51,0-11.28-6.11-9.7-12.43l10.83-43.32C36.5,34,49.31,24,64,24h0 c14.69,0,27.5,10,31.06,24.25l10.83,43.32C107.47,97.89,102.7,104,96.19,104z"/><path fill="#444b54" d="M96.19,107H31.81c-4.03,0-7.77-1.82-10.25-5c-2.48-3.18-3.34-7.24-2.37-11.15l10.83-43.32 C33.93,31.91,47.9,21,64,21s30.07,10.91,33.97,26.53l10.83,43.32c0.98,3.91,0.12,7.98-2.37,11.15 C103.96,105.18,100.22,107,96.19,107z M64,27c-13.34,0-24.92,9.04-28.15,21.98L25.02,92.3c-0.53,2.11-0.06,4.29,1.27,6.01 c1.34,1.71,3.35,2.69,5.52,2.69h64.38c2.17,0,4.18-0.98,5.52-2.69c1.34-1.71,1.8-3.9,1.27-6.01L92.15,48.98 C88.92,36.04,77.34,27,64,27z"/><path fill="#444b54" d="M72.97,113c-0.62,0-1.24,0.18-1.74,0.56C69.22,115.09,66.72,116,64,116s-5.22-0.91-7.23-2.44	c-0.5-0.38-1.11-0.56-1.74-0.56h0c-2.83,0-4.13,3.63-1.88,5.34C56.17,120.64,59.93,122,64,122s7.83-1.36,10.85-3.66	C77.1,116.63,75.8,113,72.97,113L72.97,113z"/></svg>