<svg width="19" height="16" viewBox="0 0 19 16" fill="none" xmlns="http://www.w3.org/2000/svg">
<path fill-rule="evenodd" clip-rule="evenodd" d="M1.11612 8.74112C1.35054 8.50669 1.66848 8.375 2 8.375H5.75C6.09518 8.375 6.375 8.65482 6.375 9C6.375 9.34518 6.09518 9.625 5.75 9.625L2 9.625V14.625H17V9.625H13.25C12.9048 9.625 12.625 9.34518 12.625 9C12.625 8.65482 12.9048 8.375 13.25 8.375H17C17.3315 8.375 17.6495 8.50669 17.8839 8.74112C18.1183 8.97554 18.25 9.29348 18.25 9.625V14.625C18.25 14.9565 18.1183 15.2745 17.8839 15.5089C17.6495 15.7433 17.3315 15.875 17 15.875H2C1.66848 15.875 1.35054 15.7433 1.11612 15.5089C0.881696 15.2745 0.75 14.9565 0.75 14.625V9.625C0.75 9.29348 0.881696 8.97554 1.11612 8.74112Z" fill="white"/>
<path fill-rule="evenodd" clip-rule="evenodd" d="M9.5 0.25C9.84518 0.25 10.125 0.529822 10.125 0.875V9C10.125 9.34518 9.84518 9.625 9.5 9.625C9.15482 9.625 8.875 9.34518 8.875 9V0.875C8.875 0.529822 9.15482 0.25 9.5 0.25Z" fill="white"/>
<path fill-rule="evenodd" clip-rule="evenodd" d="M9.05806 0.433058C9.30214 0.188981 9.69786 0.188981 9.94194 0.433058L13.6919 4.18306C13.936 4.42714 13.936 4.82286 13.6919 5.06694C13.4479 5.31102 13.0521 5.31102 12.8081 5.06694L9.5 1.75888L6.19194 5.06694C5.94786 5.31102 5.55214 5.31102 5.30806 5.06694C5.06398 4.82286 5.06398 4.42714 5.30806 4.18306L9.05806 0.433058Z" fill="white"/>
<path d="M14.1875 13.0625C14.7053 13.0625 15.125 12.6428 15.125 12.125C15.125 11.6072 14.7053 11.1875 14.1875 11.1875C13.6697 11.1875 13.25 11.6072 13.25 12.125C13.25 12.6428 13.6697 13.0625 14.1875 13.0625Z" fill="white"/>
</svg>
