<svg width="76" height="76" viewBox="0 0 76 76" fill="none" xmlns="http://www.w3.org/2000/svg">
<rect width="76" height="76" rx="38" fill="#323F4B"/>
<path fill-rule="evenodd" clip-rule="evenodd" d="M27.8416 40.6679C25.8493 42.4704 25.8489 45.39 27.8372 47.189C29.8256 48.988 33.0526 48.9876 35.0448 47.1851L48.1636 35.3157C50.1558 33.5132 50.1563 30.5936 48.1679 28.7946C46.1796 26.9955 42.9526 26.996 40.9604 28.7985L27.8416 40.6679ZM26.2904 48.5885C23.4463 46.0152 23.4497 41.8425 26.2948 39.2684L39.4136 27.399C42.2586 24.8249 46.8706 24.8218 49.7147 27.3951C52.5589 29.9683 52.5555 34.1411 49.7104 36.7152L36.5916 48.5846C33.7466 51.1587 29.1346 51.1617 26.2904 48.5885Z" fill="white"/>
<path fill-rule="evenodd" clip-rule="evenodd" d="M32.8512 33.3421C33.2783 32.9556 33.9708 32.9556 34.398 33.3421L43.148 41.2587C43.5751 41.6452 43.5751 42.2718 43.148 42.6582C42.7208 43.0447 42.0283 43.0447 41.6012 42.6582L32.8512 34.7416C32.424 34.3551 32.424 33.7285 32.8512 33.3421Z" fill="white"/>
<path fill-rule="evenodd" clip-rule="evenodd" d="M46.5106 32.4261C46.9305 32.8189 46.919 33.4454 46.4848 33.8254L43.1489 36.7447C42.7147 37.1246 42.0222 37.1142 41.6023 36.7213C41.1823 36.3285 41.1939 35.702 41.628 35.3221L44.964 32.4028C45.3982 32.0228 46.0906 32.0333 46.5106 32.4261Z" fill="white"/>
<path fill-rule="evenodd" clip-rule="evenodd" d="M27.8416 40.6679C25.8493 42.4704 25.8489 45.39 27.8372 47.189C29.8256 48.988 33.0526 48.9876 35.0448 47.1851L48.1636 35.3157C50.1558 33.5132 50.1563 30.5936 48.1679 28.7946C46.1796 26.9955 42.9526 26.996 40.9604 28.7985L27.8416 40.6679ZM26.2904 48.5885C23.4463 46.0152 23.4497 41.8425 26.2948 39.2684L39.4136 27.399C42.2586 24.8249 46.8706 24.8218 49.7147 27.3951C52.5589 29.9683 52.5555 34.1411 49.7104 36.7152L36.5916 48.5846C33.7466 51.1587 29.1346 51.1617 26.2904 48.5885Z" stroke="white" stroke-width="2" stroke-linecap="round" stroke-linejoin="round"/>
<path fill-rule="evenodd" clip-rule="evenodd" d="M32.8512 33.3421C33.2783 32.9556 33.9708 32.9556 34.398 33.3421L43.148 41.2587C43.5751 41.6452 43.5751 42.2718 43.148 42.6582C42.7208 43.0447 42.0283 43.0447 41.6012 42.6582L32.8512 34.7416C32.424 34.3551 32.424 33.7285 32.8512 33.3421Z" stroke="white" stroke-width="2" stroke-linecap="round" stroke-linejoin="round"/>
<path fill-rule="evenodd" clip-rule="evenodd" d="M46.5106 32.4261C46.9305 32.8189 46.919 33.4454 46.4848 33.8254L43.1489 36.7447C42.7147 37.1246 42.0222 37.1142 41.6023 36.7213C41.1823 36.3285 41.1939 35.702 41.628 35.3221L44.964 32.4028C45.3982 32.0228 46.0906 32.0333 46.5106 32.4261Z" stroke="white" stroke-width="2" stroke-linecap="round" stroke-linejoin="round"/>
</svg>
