<svg width="16" height="16" viewBox="0 0 16 16" fill="none" xmlns="http://www.w3.org/2000/svg">
<path fill-rule="evenodd" clip-rule="evenodd" d="M12.5 1.25C12.7761 1.25 13 1.47386 13 1.75V2.08535C13.1755 2.14737 13.336 2.24112 13.4746 2.3597L13.7608 2.19296C13.9994 2.05396 14.3055 2.13472 14.4445 2.37333C14.5835 2.61194 14.5028 2.91805 14.2642 3.05704L13.9749 3.22552C13.9914 3.31451 14 3.40625 14 3.5C14 3.59375 13.9914 3.68549 13.9749 3.77448L14.2642 3.94296C14.5028 4.08195 14.5835 4.38806 14.4445 4.62667C14.3055 4.86528 13.9994 4.94604 13.7608 4.80704L13.4746 4.6403C13.336 4.75888 13.1755 4.85262 13 4.91465V5.25C13 5.52614 12.7761 5.75 12.5 5.75C12.2239 5.75 12 5.52614 12 5.25V4.91465C11.8245 4.85262 11.664 4.75888 11.5254 4.6403L11.2392 4.80704C11.0006 4.94604 10.6945 4.86528 10.5555 4.62667C10.4165 4.38806 10.4972 4.08195 10.7358 3.94296L11.0251 3.77448C11.0086 3.68549 11 3.59375 11 3.5C11 3.40625 11.0086 3.31451 11.0251 3.22552L10.7358 3.05704C10.4972 2.91805 10.4165 2.61194 10.5555 2.37333C10.6945 2.13472 11.0006 2.05396 11.2392 2.19296L11.5254 2.3597C11.664 2.24112 11.8245 2.14738 12 2.08535V1.75C12 1.47386 12.2239 1.25 12.5 1.25ZM8.50826 2.52269C8.34039 2.5065 8.1718 2.49893 8.00316 2.49999L8 2.50001C6.91221 2.50001 5.84884 2.82257 4.94437 3.42692C4.0399 4.03127 3.33495 4.89025 2.91867 5.89524C2.50238 6.90023 2.39347 8.0061 2.60568 9.073C2.79682 10.0339 3.24071 10.9243 3.88896 11.6537C4.28245 11.0853 4.79104 10.6025 5.38441 10.2383C5.62728 10.0892 5.88141 9.96187 6.14385 9.857C5.44721 9.30764 5 8.45604 5 7.5C5 5.84315 6.34315 4.5 8 4.5C9.65686 4.5 11 5.84315 11 7.5C11 8.45604 10.5528 9.30764 9.85616 9.857C10.1186 9.96187 10.3727 10.0892 10.6156 10.2383C11.209 10.6025 11.7176 11.0853 12.111 11.6537C12.2779 11.4659 12.4324 11.2662 12.5731 11.0556C13.1774 10.1512 13.5 9.0878 13.5 8L13.5 7.99753C13.5011 7.77917 13.4878 7.56097 13.4602 7.34435C13.4254 7.07041 13.6192 6.82009 13.8932 6.78525C14.1671 6.7504 14.4174 6.94422 14.4523 7.21815C14.4853 7.47788 14.5012 7.7395 14.5 8.00131C14.4997 9.28644 14.1185 10.5427 13.4046 11.6112C13.1094 12.053 12.7628 12.4544 12.3739 12.8082C12.3569 12.826 12.3384 12.8427 12.3185 12.8581C11.7793 13.3374 11.1611 13.7262 10.4874 14.0052C9.29973 14.4972 7.99279 14.6259 6.73192 14.3751C5.59609 14.1492 4.5436 13.6244 3.68149 12.858C3.66162 12.8427 3.64313 12.826 3.62611 12.8082C3.55047 12.7394 3.47635 12.6687 3.40381 12.5962C2.49477 11.6872 1.8757 10.529 1.6249 9.26809C1.37409 8.00721 1.50282 6.70028 1.99479 5.51256C2.48676 4.32484 3.31988 3.30968 4.3888 2.59545C5.45728 1.88151 6.7134 1.50031 7.99843 1.5C8.2007 1.49878 8.4029 1.50789 8.60425 1.52731C8.87911 1.55382 9.08045 1.79813 9.05394 2.07299C9.02744 2.34786 8.78313 2.5492 8.50826 2.52269ZM4.62923 12.346C5.30099 12.867 6.08707 13.2272 6.92701 13.3943C7.9939 13.6065 9.09977 13.4976 10.1048 13.0813C10.5601 12.8927 10.9855 12.6449 11.3708 12.346C11.046 11.8377 10.6095 11.4079 10.0925 11.0906C9.46307 10.7042 8.73884 10.5 8 10.5C7.26117 10.5 6.53694 10.7042 5.90753 11.0906C5.39054 11.4079 4.954 11.8377 4.62923 12.346ZM12.5 3C12.2239 3 12 3.22386 12 3.5C12 3.77614 12.2239 4 12.5 4C12.7761 4 13 3.77614 13 3.5C13 3.22386 12.7761 3 12.5 3ZM8 5.5C6.89543 5.5 6 6.39543 6 7.5C6 8.60457 6.89543 9.5 8 9.5C9.10457 9.5 10 8.60457 10 7.5C10 6.39543 9.10457 5.5 8 5.5Z" fill="#007FDD"/>
</svg>
