<svg width="12" height="13" viewBox="0 0 12 13" fill="none" xmlns="http://www.w3.org/2000/svg">
<path d="M6.0001 1.50014C6.66335 1.50231 7.31959 1.63601 7.93084 1.89348C8.54208 2.15096 9.09619 2.5271 9.5611 3.00014H8.0001C7.86749 3.00014 7.74032 3.05282 7.64655 3.14659C7.55278 3.24035 7.5001 3.36753 7.5001 3.50014C7.5001 3.63275 7.55278 3.75992 7.64655 3.85369C7.74032 3.94746 7.86749 4.00014 8.0001 4.00014H10.0716C10.3178 4.00001 10.5539 3.90214 10.728 3.72804C10.9021 3.55394 11 3.31785 11.0001 3.07164V1.00014C11.0001 0.86753 10.9474 0.740353 10.8537 0.646585C10.7599 0.552816 10.6327 0.500138 10.5001 0.500138V0.500138C10.3675 0.500138 10.2403 0.552816 10.1465 0.646585C10.0528 0.740353 10.0001 0.86753 10.0001 1.00014V2.03914C9.17369 1.29486 8.15639 0.795343 7.06215 0.596513C5.96791 0.397682 4.83991 0.507394 3.80449 0.913362C2.76907 1.31933 1.86711 2.00552 1.19961 2.8951C0.532105 3.78468 0.125422 4.84251 0.0251012 5.95014C0.0186429 6.01977 0.0267591 6.08998 0.0489327 6.1563C0.0711063 6.22262 0.106851 6.28359 0.153889 6.33533C0.200928 6.38707 0.258228 6.42845 0.32214 6.45683C0.386052 6.4852 0.455174 6.49995 0.525101 6.50014V6.50014C0.647395 6.5017 0.765868 6.45756 0.85733 6.37636C0.948793 6.29516 1.00666 6.18276 1.0196 6.06114C1.13091 4.81651 1.70359 3.65849 2.62514 2.81456C3.54669 1.97062 4.75051 1.50178 6.0001 1.50014Z" fill="#007FDD"/>
<path d="M11.4755 6.50004C11.3532 6.49848 11.2347 6.54262 11.1433 6.62382C11.0518 6.70501 10.9939 6.81742 10.981 6.93904C10.8983 7.89066 10.5445 8.7986 9.96133 9.55515C9.37819 10.3117 8.59028 10.8851 7.69107 11.2073C6.79187 11.5296 5.8191 11.5871 4.88818 11.3731C3.95725 11.1591 3.10725 10.6826 2.439 10H4C4.13261 10 4.25979 9.94737 4.35355 9.8536C4.44732 9.75983 4.5 9.63266 4.5 9.50005C4.5 9.36744 4.44732 9.24026 4.35355 9.14649C4.25979 9.05272 4.13261 9.00005 4 9.00005H1.9285C1.80655 8.99998 1.68578 9.02395 1.5731 9.07059C1.46042 9.11723 1.35804 9.18562 1.2718 9.27185C1.18557 9.35808 1.11718 9.46047 1.07054 9.57315C1.02391 9.68583 0.999934 9.8066 1 9.92855V12.0001C1 12.1327 1.05268 12.2598 1.14645 12.3536C1.24021 12.4474 1.36739 12.5001 1.5 12.5001C1.63261 12.5001 1.75979 12.4474 1.85355 12.3536C1.94732 12.2598 2 12.1327 2 12.0001V10.9611C2.82642 11.7053 3.84371 12.2048 4.93795 12.4037C6.0322 12.6025 7.16019 12.4928 8.19561 12.0868C9.23103 11.6809 10.133 10.9947 10.8005 10.1051C11.468 9.21551 11.8747 8.15767 11.975 7.05004C11.9815 6.98041 11.9733 6.9102 11.9512 6.84388C11.929 6.77756 11.8933 6.71659 11.8462 6.66485C11.7992 6.61311 11.7419 6.57173 11.678 6.54335C11.6141 6.51498 11.5449 6.50023 11.475 6.50004H11.4755Z" fill="#007FDD"/>
</svg>
