<svg width="17" height="17" viewBox="0 0 17 17" fill="none" xmlns="http://www.w3.org/2000/svg">
<path d="M16.8045 15.8619L12.8252 11.8825C13.9096 10.5563 14.4428 8.86392 14.3144 7.15556C14.1861 5.44721 13.406 3.85354 12.1356 2.7042C10.8652 1.55486 9.20158 0.937783 7.48895 0.980604C5.77632 1.02343 4.14566 1.72287 2.93426 2.93426C1.72287 4.14566 1.02343 5.77632 0.980604 7.48895C0.937783 9.20158 1.55486 10.8652 2.7042 12.1356C3.85354 13.406 5.44721 14.1861 7.15556 14.3144C8.86392 14.4428 10.5563 13.9096 11.8825 12.8252L15.8619 16.8045C15.9876 16.926 16.156 16.9932 16.3308 16.9916C16.5056 16.9901 16.6728 16.92 16.7964 16.7964C16.92 16.6728 16.9901 16.5056 16.9916 16.3308C16.9932 16.156 16.926 15.9876 16.8045 15.8619ZM7.66652 12.9999C6.61169 12.9999 5.58054 12.6871 4.70348 12.101C3.82642 11.515 3.14283 10.682 2.73916 9.7075C2.3355 8.73296 2.22988 7.66061 2.43567 6.62604C2.64145 5.59147 3.1494 4.64117 3.89529 3.89529C4.64117 3.1494 5.59147 2.64145 6.62604 2.43567C7.66061 2.22988 8.73296 2.3355 9.7075 2.73916C10.682 3.14283 11.515 3.82642 12.101 4.70348C12.6871 5.58054 12.9999 6.61169 12.9999 7.66652C12.9983 9.08052 12.4359 10.4362 11.436 11.436C10.4362 12.4359 9.08052 12.9983 7.66652 12.9999Z" fill="#CBD2D9"/>
</svg>
