<svg width="29" height="28" viewBox="0 0 29 28" fill="none" xmlns="http://www.w3.org/2000/svg">
<path d="M27.9354 1.0283C27.5022 0.604953 26.9632 0.296635 26.3705 0.13314C25.7779 -0.0303553 25.1515 -0.0435018 24.5521 0.0949708L5.21873 4.02664C4.10535 4.17406 3.0567 4.61869 2.19089 5.31045C1.32509 6.00221 0.676503 6.91362 0.318186 7.94205C-0.040131 8.97047 -0.0939497 10.0751 0.162791 11.1314C0.419531 12.1878 0.976633 13.154 1.77136 13.9211L3.84727 15.9243C3.95963 16.0328 4.04873 16.1615 4.10948 16.3033C4.17023 16.445 4.20144 16.5969 4.20132 16.7503V20.4463C4.20398 20.966 4.32788 21.4784 4.56382 21.9455L4.55415 21.9536L4.58557 21.984C4.93962 22.6713 5.51789 23.2272 6.23132 23.566L6.26273 23.5963L6.27119 23.587C6.75496 23.8148 7.28567 23.9344 7.8239 23.937H11.6519C11.9722 23.9367 12.2794 24.0593 12.5062 24.2776L14.5809 26.2808C15.1374 26.824 15.7997 27.2556 16.5297 27.5505C17.2597 27.8454 18.0429 27.998 18.8342 27.9993C19.4937 27.9985 20.1486 27.8945 20.7736 27.6913C21.829 27.3567 22.7666 26.744 23.4806 25.9223C24.1945 25.1006 24.6565 24.1026 24.8143 23.041L28.8924 4.33347C29.0433 3.74972 29.0344 3.13813 28.8666 2.55869C28.6988 1.97926 28.3779 1.45189 27.9354 1.0283ZM5.55827 14.277L3.48115 12.2738C2.99748 11.8181 2.65848 11.2386 2.50395 10.6033C2.34942 9.96808 2.38577 9.30346 2.60873 8.68747C2.8249 8.05551 3.2245 7.4968 3.76003 7.07778C4.29555 6.65875 4.94446 6.39706 5.62957 6.3238L24.7708 2.43297L6.61557 19.9645V16.7503C6.6174 16.291 6.52489 15.836 6.34341 15.4114C6.16193 14.9869 5.89508 14.6013 5.55827 14.277ZM22.4399 22.642C22.3471 23.2864 22.0702 23.893 21.6401 24.3939C21.21 24.8947 20.6439 25.2699 20.0053 25.4774C19.3666 25.6848 18.6807 25.7163 18.0246 25.5683C17.3684 25.4202 16.768 25.0985 16.2907 24.6393L14.2124 22.6326C13.8769 22.307 13.4779 22.0487 13.0384 21.8729C12.5989 21.6971 12.1276 21.6071 11.6519 21.6083H8.32294L26.4806 4.08264L22.4399 22.642Z" fill="white"/>
</svg>
