<svg width="16" height="16" viewBox="0 0 16 16" fill="none" xmlns="http://www.w3.org/2000/svg">
<path d="M8.28055 4.35883C6.11761 4.35883 4.35813 6.11831 4.35813 8.28125C4.35813 10.4442 6.11761 12.2037 8.28055 12.2037C10.4435 12.2037 12.203 10.4442 12.203 8.28125C12.203 6.11831 10.4435 4.35883 8.28055 4.35883ZM8.28055 11.083C6.7354 11.083 5.47882 9.8264 5.47882 8.28125C5.47882 6.7361 6.7354 5.47952 8.28055 5.47952C9.8257 5.47952 11.0823 6.7361 11.0823 8.28125C11.0823 9.8264 9.8257 11.083 8.28055 11.083Z" fill="white"/>
<path d="M15.7612 9.85022L14.7189 8.46266C14.721 8.33869 14.7189 8.2077 14.7168 8.10264L15.7612 6.71228C15.8648 6.5743 15.8992 6.39639 15.8543 6.22968C15.6792 5.58038 15.4201 4.9556 15.0846 4.37284C14.9984 4.22364 14.8485 4.12208 14.6783 4.09757L12.9601 3.85241C12.8789 3.76766 12.7948 3.68431 12.7094 3.60166L12.4642 1.8835C12.4397 1.71329 12.3389 1.5634 12.1897 1.47725C11.6069 1.14034 10.9814 0.881178 10.3314 0.706771C10.1647 0.661943 9.9875 0.696264 9.84952 0.799928L8.46686 1.83867C8.34289 1.83377 8.21891 1.83377 8.09423 1.83867L6.71158 0.800629C6.5736 0.696965 6.39569 0.662643 6.22898 0.707471C5.57968 0.882579 4.9549 1.14174 4.37213 1.47725C4.22294 1.5634 4.12138 1.71329 4.09686 1.8835L3.85101 3.60446C3.76766 3.68571 3.68501 3.76836 3.60376 3.85171L1.8828 4.09757C1.71259 4.12208 1.5627 4.22294 1.47655 4.37214C1.14104 4.9556 0.881879 5.58108 0.706771 6.23108C0.661943 6.39779 0.696264 6.575 0.799928 6.71298L1.84217 8.10054C1.84007 8.22451 1.84217 8.3555 1.84427 8.46056L0.799928 9.85022C0.696264 9.9882 0.661943 10.1661 0.706771 10.3328C0.881879 10.9821 1.14104 11.6069 1.47655 12.1897C1.5627 12.3389 1.71259 12.4404 1.8828 12.4649L3.60376 12.7108C3.68501 12.7941 3.76766 12.8768 3.85101 12.958L4.09686 14.679C4.12138 14.8492 4.22224 14.9991 4.37143 15.0853C4.95419 15.4222 5.57968 15.6813 6.22898 15.8557C6.27661 15.8683 6.32564 15.8746 6.37397 15.8746C6.49375 15.8746 6.61212 15.8361 6.71088 15.7626L8.09353 14.7238C8.21751 14.7287 8.34219 14.7287 8.46546 14.7238L9.84812 15.7626C9.9861 15.8662 10.164 15.9006 10.3307 15.8557C10.98 15.6806 11.6048 15.4215 12.1876 15.086C12.3368 14.9998 12.4383 14.8499 12.4628 14.6797L12.7087 12.9587C12.7934 12.8754 12.8831 12.7843 12.9545 12.7115L14.6769 12.4656C14.8471 12.4411 14.997 12.3403 15.0832 12.1911C15.4201 11.6083 15.6792 10.9828 15.8536 10.3328C15.8985 10.1661 15.8641 9.9889 15.7605 9.85092L15.7612 9.85022ZM14.2426 11.3947L12.6071 11.6286C12.4831 11.6461 12.369 11.705 12.2821 11.7953C12.1939 11.8871 11.9361 12.1525 11.803 12.2751C11.7078 12.3627 11.6461 12.4803 11.6279 12.6078L11.3947 14.2433C11.0438 14.4268 10.6767 14.5788 10.2992 14.6979L8.97538 13.7033C8.86471 13.6199 8.72743 13.5814 8.58944 13.5933C8.38491 13.6115 8.17829 13.6115 7.97376 13.5933C7.83577 13.5814 7.69849 13.6206 7.58782 13.7033L6.264 14.6979C5.88647 14.5795 5.51944 14.4275 5.16923 14.244L4.93528 12.6085C4.91707 12.4831 4.85753 12.3676 4.76578 12.2807C4.60048 12.1245 4.43798 11.962 4.28318 11.7981C4.19633 11.7064 4.08076 11.6461 3.95538 11.6286L2.31987 11.3954C2.13635 11.0445 1.98436 10.6774 1.86529 10.2999L2.8599 8.97608C2.93765 8.87242 2.97757 8.74424 2.97197 8.61466C2.96427 8.44515 2.95726 8.12085 2.97057 7.97446C2.98248 7.83647 2.94325 7.69919 2.8606 7.58852L1.86599 6.2647C1.98436 5.88717 2.13635 5.52014 2.31987 5.16993L3.95538 4.93598C4.08076 4.91777 4.19633 4.85824 4.28318 4.76648C4.43868 4.60188 4.60118 4.44008 4.76578 4.28388C4.85753 4.19703 4.91777 4.08146 4.93528 3.95608L5.16923 2.32057C5.52014 2.13705 5.88717 1.98506 6.2647 1.86599L7.58852 2.8606C7.69919 2.94395 7.83648 2.98318 7.97446 2.97057C8.17899 2.95236 8.38561 2.95236 8.59014 2.97057C8.72813 2.98318 8.86541 2.94325 8.97608 2.8606L10.3006 1.86599C10.6781 1.98436 11.0452 2.13635 11.3954 2.31987L11.6293 3.95538C11.6475 4.08356 11.7092 4.20053 11.8044 4.28808C11.9697 4.44008 12.128 4.59908 12.2758 4.75947C12.3634 4.85473 12.481 4.91707 12.6092 4.93528L14.2447 5.16923C14.4282 5.52014 14.5802 5.88717 14.6993 6.2647L13.7047 7.58852C13.627 7.69219 13.587 7.82036 13.5926 7.94994C13.6003 8.11945 13.6073 8.44375 13.594 8.59014C13.5821 8.72813 13.6213 8.86541 13.704 8.97608L14.6986 10.3006C14.5802 10.6781 14.4282 11.0452 14.2447 11.3954L14.2426 11.3947Z" fill="white"/>
</svg>
