<svg width="18" height="18" viewBox="0 0 18 18" fill="none" xmlns="http://www.w3.org/2000/svg">
<path d="M9.28055 5.35883C7.11761 5.35883 5.35813 7.11831 5.35813 9.28125C5.35813 11.4442 7.11761 13.2037 9.28055 13.2037C11.4435 13.2037 13.203 11.4442 13.203 9.28125C13.203 7.11831 11.4435 5.35883 9.28055 5.35883ZM9.28055 12.083C7.7354 12.083 6.47882 10.8264 6.47882 9.28125C6.47882 7.7361 7.7354 6.47952 9.28055 6.47952C10.8257 6.47952 12.0823 7.7361 12.0823 9.28125C12.0823 10.8264 10.8257 12.083 9.28055 12.083Z" fill="#52606D"/>
<path d="M16.7612 10.8502L15.7189 9.46266C15.721 9.33869 15.7189 9.2077 15.7168 9.10264L16.7612 7.71228C16.8648 7.5743 16.8992 7.39639 16.8543 7.22968C16.6792 6.58038 16.4201 5.9556 16.0846 5.37284C15.9984 5.22364 15.8485 5.12208 15.6783 5.09757L13.9601 4.85241C13.8789 4.76766 13.7948 4.68431 13.7094 4.60166L13.4642 2.8835C13.4397 2.71329 13.3389 2.5634 13.1897 2.47725C12.6069 2.14034 11.9814 1.88118 11.3314 1.70677C11.1647 1.66194 10.9875 1.69626 10.8495 1.79993L9.46686 2.83867C9.34289 2.83377 9.21891 2.83377 9.09423 2.83867L7.71158 1.80063C7.5736 1.69696 7.39569 1.66264 7.22898 1.70747C6.57968 1.88258 5.9549 2.14174 5.37213 2.47725C5.22294 2.5634 5.12138 2.71329 5.09686 2.8835L4.85101 4.60446C4.76766 4.68571 4.68501 4.76836 4.60376 4.85171L2.8828 5.09757C2.71259 5.12208 2.5627 5.22294 2.47655 5.37214C2.14104 5.9556 1.88188 6.58108 1.70677 7.23108C1.66194 7.39779 1.69626 7.575 1.79993 7.71298L2.84217 9.10054C2.84007 9.22451 2.84217 9.3555 2.84427 9.46056L1.79993 10.8502C1.69626 10.9882 1.66194 11.1661 1.70677 11.3328C1.88188 11.9821 2.14104 12.6069 2.47655 13.1897C2.5627 13.3389 2.71259 13.4404 2.8828 13.4649L4.60376 13.7108C4.68501 13.7941 4.76766 13.8768 4.85101 13.958L5.09686 15.679C5.12138 15.8492 5.22224 15.9991 5.37143 16.0853C5.95419 16.4222 6.57968 16.6813 7.22898 16.8557C7.27661 16.8683 7.32564 16.8746 7.37397 16.8746C7.49375 16.8746 7.61212 16.8361 7.71088 16.7626L9.09353 15.7238C9.21751 15.7287 9.34219 15.7287 9.46546 15.7238L10.8481 16.7626C10.9861 16.8662 11.164 16.9006 11.3307 16.8557C11.98 16.6806 12.6048 16.4215 13.1876 16.086C13.3368 15.9998 13.4383 15.8499 13.4628 15.6797L13.7087 13.9587C13.7934 13.8754 13.8831 13.7843 13.9545 13.7115L15.6769 13.4656C15.8471 13.4411 15.997 13.3403 16.0832 13.1911C16.4201 12.6083 16.6792 11.9828 16.8536 11.3328C16.8985 11.1661 16.8641 10.9889 16.7605 10.8509L16.7612 10.8502ZM15.2426 12.3947L13.6071 12.6286C13.4831 12.6461 13.369 12.705 13.2821 12.7953C13.1939 12.8871 12.9361 13.1525 12.803 13.2751C12.7078 13.3627 12.6461 13.4803 12.6279 13.6078L12.3947 15.2433C12.0438 15.4268 11.6767 15.5788 11.2992 15.6979L9.97538 14.7033C9.86471 14.6199 9.72743 14.5814 9.58944 14.5933C9.38491 14.6115 9.17829 14.6115 8.97376 14.5933C8.83577 14.5814 8.69849 14.6206 8.58782 14.7033L7.264 15.6979C6.88647 15.5795 6.51944 15.4275 6.16923 15.244L5.93528 13.6085C5.91707 13.4831 5.85753 13.3676 5.76578 13.2807C5.60048 13.1245 5.43798 12.962 5.28318 12.7981C5.19633 12.7064 5.08076 12.6461 4.95538 12.6286L3.31987 12.3954C3.13635 12.0445 2.98436 11.6774 2.86529 11.2999L3.8599 9.97608C3.93765 9.87242 3.97757 9.74424 3.97197 9.61466C3.96427 9.44515 3.95726 9.12085 3.97057 8.97446C3.98248 8.83647 3.94325 8.69919 3.8606 8.58852L2.86599 7.2647C2.98436 6.88717 3.13635 6.52014 3.31987 6.16993L4.95538 5.93598C5.08076 5.91777 5.19633 5.85824 5.28318 5.76648C5.43868 5.60188 5.60118 5.44008 5.76578 5.28388C5.85753 5.19703 5.91777 5.08146 5.93528 4.95608L6.16923 3.32057C6.52014 3.13705 6.88717 2.98506 7.2647 2.86599L8.58852 3.8606C8.69919 3.94395 8.83648 3.98318 8.97446 3.97057C9.17899 3.95236 9.38561 3.95236 9.59014 3.97057C9.72813 3.98318 9.86541 3.94325 9.97608 3.8606L11.3006 2.86599C11.6781 2.98436 12.0452 3.13635 12.3954 3.31987L12.6293 4.95538C12.6475 5.08356 12.7092 5.20053 12.8044 5.28808C12.9697 5.44008 13.128 5.59908 13.2758 5.75947C13.3634 5.85473 13.481 5.91707 13.6092 5.93528L15.2447 6.16923C15.4282 6.52014 15.5802 6.88717 15.6993 7.2647L14.7047 8.58852C14.627 8.69219 14.587 8.82036 14.5926 8.94994C14.6003 9.11945 14.6073 9.44375 14.594 9.59014C14.5821 9.72813 14.6213 9.86541 14.704 9.97608L15.6986 11.3006C15.5802 11.6781 15.4282 12.0452 15.2447 12.3954L15.2426 12.3947Z" fill="#52606D"/>
</svg>
