<svg width="237" height="26" viewBox="0 0 237 26" fill="none" xmlns="http://www.w3.org/2000/svg">
<circle cx="8.09086" cy="12.7217" r="8.09086" fill="#0093FF"/>
<path fill-rule="evenodd" clip-rule="evenodd" d="M12.285 2.81619C11.2926 2.40515 10.246 2.14628 9.18026 2.0466C8.63038 1.99516 8.1817 1.55229 8.1817 1V1C8.1817 0.447716 8.63011 -0.00408551 9.18069 0.0392806C10.5093 0.143926 11.8153 0.456852 13.0504 0.968436C14.5939 1.6078 15.9964 2.54492 17.1778 3.72631C18.3592 4.90769 19.2963 6.3102 19.9357 7.85376C20.575 9.39731 20.9041 11.0517 20.9041 12.7224C20.9041 14.3931 20.575 16.0475 19.9357 17.5911C19.2963 19.1346 18.3592 20.5371 17.1778 21.7185C15.9964 22.8999 14.5939 23.837 13.0504 24.4764C11.8153 24.988 10.5093 25.3009 9.18069 25.4055C8.63011 25.4489 8.1817 24.9971 8.1817 24.4448V24.4448C8.1817 23.8925 8.63038 23.4497 9.18026 23.3982C10.246 23.2985 11.2926 23.0397 12.285 22.6286C13.5859 22.0898 14.7679 21.3 15.7636 20.3043C16.7593 19.3086 17.5491 18.1266 18.0879 16.8257C18.6268 15.5248 18.9041 14.1305 18.9041 12.7224C18.9041 11.3143 18.6268 9.92003 18.0879 8.61912C17.5491 7.31822 16.7593 6.13619 15.7636 5.14052C14.7679 4.14485 13.5859 3.35505 12.285 2.81619Z" fill="#47B1FF"/>
<path d="M19.9041 12.7227L78.7874 12.7227" stroke="#47B1FF" stroke-width="2" stroke-linejoin="round"/>
<circle cx="85.8783" cy="12.7217" r="7.59086" fill="#0093FF" stroke="#0093FF"/>
<path d="M92.9692 12.7227H149.965" stroke="#0093FF" stroke-width="2" stroke-linejoin="round"/>
<circle cx="157.056" cy="12.7217" r="7.59086" fill="#0093FF" stroke="#0093FF"/>
<path d="M164.146 12.7227H221.142" stroke="#0093FF" stroke-width="2" stroke-linejoin="round"/>
<circle cx="228.233" cy="12.7217" r="7.59086" fill="#9AA5B1" stroke="#9AA5B1"/>
</svg>
