<svg width="237" height="26" viewBox="0 0 237 26" fill="none" xmlns="http://www.w3.org/2000/svg">
<circle cx="8.09086" cy="13.1651" r="8.09086" fill="#0093FF"/>
<path fill-rule="evenodd" clip-rule="evenodd" d="M12.2849 3.25955C11.2926 2.84851 10.2459 2.58964 9.1802 2.48996C8.63032 2.43852 8.18164 1.99564 8.18164 1.44336C8.18164 0.891075 8.63004 0.439274 9.18062 0.48264C10.5092 0.587285 11.8152 0.900212 13.0503 1.4118C14.5939 2.05116 15.9964 2.98828 17.1777 4.16967C18.3591 5.35105 19.2963 6.75356 19.9356 8.29711C20.575 9.84067 20.9041 11.495 20.9041 13.1658C20.9041 14.8365 20.575 16.4909 19.9356 18.0344C19.2963 19.578 18.3591 20.9805 17.1777 22.1619C15.9964 23.3433 14.5939 24.2804 13.0503 24.9197C11.8152 25.4313 10.5092 25.7443 9.18062 25.8489C8.63005 25.8923 8.18164 25.4405 8.18164 24.8882C8.18164 24.3359 8.63032 23.893 9.1802 23.8416C10.2459 23.7419 11.2926 23.483 12.2849 23.072C13.5858 22.5331 14.7679 21.7433 15.7635 20.7477C16.7592 19.752 17.549 18.57 18.0879 17.2691C18.6267 15.9682 18.9041 14.5739 18.9041 13.1658C18.9041 11.7577 18.6267 10.3634 18.0879 9.06248C17.549 7.76158 16.7592 6.57955 15.7635 5.58388C14.7679 4.58821 13.5858 3.79841 12.2849 3.25955Z" fill="#47B1FF"/>
<path d="M19.9043 13.166L78.7876 13.166" stroke="#47B1FF" stroke-width="2" stroke-linejoin="round"/>
<circle cx="85.8785" cy="13.1651" r="7.59086" fill="#9AA5B1" stroke="#9AA5B1"/>
<path d="M92.9692 13.166H149.965" stroke="#9AA5B1" stroke-width="2" stroke-linejoin="round"/>
<circle cx="157.056" cy="13.1651" r="7.59086" fill="#9AA5B1" stroke="#9AA5B1"/>
<path d="M164.146 13.166H221.142" stroke="#9AA5B1" stroke-width="2" stroke-linejoin="round"/>
<circle cx="228.233" cy="13.1651" r="7.59086" fill="#9AA5B1" stroke="#9AA5B1"/>
</svg>
