<svg width="237" height="27" viewBox="0 0 237 27" fill="none" xmlns="http://www.w3.org/2000/svg">
<circle cx="8.09086" cy="13.6905" r="8.09086" fill="#0093FF"/>
<path fill-rule="evenodd" clip-rule="evenodd" d="M12.2849 3.78494C11.2926 3.3739 10.2459 3.11503 9.1802 3.01535C8.63032 2.96391 8.18164 2.52104 8.18164 1.96875C8.18164 1.41647 8.63004 0.964664 9.18062 1.00803C10.5092 1.11268 11.8152 1.4256 13.0503 1.93719C14.5939 2.57655 15.9964 3.51367 17.1777 4.69506C18.3591 5.87644 19.2963 7.27895 19.9356 8.82251C20.575 10.3661 20.9041 12.0204 20.9041 13.6912C20.9041 15.3619 20.575 17.0163 19.9356 18.5598C19.2963 20.1034 18.3591 21.5059 17.1777 22.6873C15.9964 23.8687 14.5939 24.8058 13.0503 25.4451C11.8152 25.9567 10.5092 26.2696 9.18062 26.3743C8.63005 26.4177 8.18164 25.9659 8.18164 25.4136C8.18164 24.8613 8.63032 24.4184 9.1802 24.367C10.2459 24.2673 11.2926 24.0084 12.2849 23.5974C13.5858 23.0585 14.7679 22.2687 15.7635 21.2731C16.7592 20.2774 17.549 19.0954 18.0879 17.7945C18.6267 16.4935 18.9041 15.0992 18.9041 13.6912C18.9041 12.2831 18.6267 10.8888 18.0879 9.58787C17.549 8.28697 16.7592 7.10494 15.7635 6.10927C14.7679 5.1136 13.5858 4.3238 12.2849 3.78494Z" fill="#47B1FF"/>
<path d="M19.9041 13.6914L78.7874 13.6914" stroke="#47B1FF" stroke-width="2" stroke-linejoin="round"/>
<circle cx="85.8782" cy="13.6905" r="8.09086" fill="#0093FF"/>
<path d="M92.9692 13.6914H149.965" stroke="#0093FF" stroke-width="2" stroke-linejoin="round"/>
<circle cx="157.056" cy="13.6905" r="7.59086" fill="#9AA5B1" stroke="#9AA5B1"/>
<path d="M164.146 13.6914H221.142" stroke="#9AA5B1" stroke-width="2" stroke-linejoin="round"/>
<circle cx="228.233" cy="13.6905" r="7.59086" fill="#9AA5B1" stroke="#9AA5B1"/>
</svg>
