<svg width="237" height="27" viewBox="0 0 237 27" fill="none" xmlns="http://www.w3.org/2000/svg">
<circle cx="8.09086" cy="13.6905" r="8.09086" fill="#0093FF"/>
<path fill-rule="evenodd" clip-rule="evenodd" d="M12.2851 3.78494C11.2927 3.3739 10.246 3.11503 9.18033 3.01535C8.63044 2.96391 8.18176 2.52104 8.18176 1.96875C8.18176 1.41647 8.63017 0.964664 9.18075 1.00803C10.5093 1.11268 11.8153 1.4256 13.0504 1.93719C14.594 2.57655 15.9965 3.51367 17.1779 4.69506C18.3593 5.87644 19.2964 7.27895 19.9357 8.82251C20.5751 10.3661 20.9042 12.0204 20.9042 13.6912C20.9042 15.3619 20.5751 17.0163 19.9357 18.5598C19.2964 20.1034 18.3593 21.5059 17.1779 22.6873C15.9965 23.8687 14.594 24.8058 13.0504 25.4451C11.8153 25.9567 10.5093 26.2696 9.18075 26.3743C8.63017 26.4177 8.18176 25.9659 8.18176 25.4136C8.18176 24.8613 8.63044 24.4184 9.18033 24.367C10.246 24.2673 11.2927 24.0084 12.2851 23.5974C13.586 23.0585 14.768 22.2687 15.7637 21.2731C16.7593 20.2774 17.5491 19.0954 18.088 17.7945C18.6268 16.4935 18.9042 15.0992 18.9042 13.6912C18.9042 12.2831 18.6268 10.8888 18.088 9.58787C17.5491 8.28697 16.7593 7.10494 15.7637 6.10927C14.768 5.1136 13.586 4.3238 12.2851 3.78494Z" fill="#47B1FF"/>
<path d="M19.9042 13.6914L78.7875 13.6914" stroke="#47B1FF" stroke-width="2" stroke-linejoin="round"/>
<circle cx="85.8783" cy="13.6905" r="7.59086" fill="#0093FF" stroke="#0093FF"/>
<path d="M92.9691 13.6914H149.965" stroke="#0093FF" stroke-width="2" stroke-linejoin="round"/>
<circle cx="157.056" cy="13.6905" r="7.59086" fill="#0093FF" stroke="#0093FF"/>
<path d="M164.146 13.6914H221.142" stroke="#0093FF" stroke-width="2" stroke-linejoin="round"/>
<circle cx="228.233" cy="13.6905" r="8.09086" fill="#0093FF"/>
</svg>
