<svg width="1207" height="1118" viewBox="0 0 1207 1118" fill="none" xmlns="http://www.w3.org/2000/svg">
<path opacity="0.2" d="M1206.15 632.251C1206.15 626.62 1205.21 621.044 1203.38 615.841C1201.55 610.638 1198.86 605.91 1195.47 601.929C1192.08 597.947 1188.05 594.789 1183.62 592.637C1179.19 590.484 1174.45 589.38 1169.65 589.385H626.543C618.239 589.352 610.176 592.661 603.695 598.76C597.215 604.859 592.708 613.38 590.925 622.907L532.606 930.773L337.287 32.7225C335.353 23.7642 331.002 15.7824 324.884 9.9715C318.766 4.16059 311.21 0.832823 303.347 0.486663C302.888 0.415331 302.424 0.386258 301.961 0.400482C294.335 0.408331 286.902 3.21384 280.7 8.42435C274.497 13.6349 269.835 20.9903 267.364 29.464L66.425 723.213L34.8212 617.934C32.3135 609.579 27.6594 602.345 21.5013 597.231C15.3432 592.117 7.98492 589.376 0.443207 589.385H-418.805C-423.603 589.375 -428.355 590.476 -432.791 592.626C-437.226 594.776 -441.256 597.932 -444.652 601.913C-448.048 605.895 -450.742 610.623 -452.58 615.829C-454.418 621.035 -455.364 626.616 -455.364 632.251C-455.364 637.887 -454.418 643.467 -452.58 648.672C-450.742 653.878 -448.048 658.607 -444.652 662.589C-441.256 666.57 -437.226 669.727 -432.791 671.876C-428.355 674.026 -423.603 675.127 -418.805 675.117H-25.3944L25.6981 845.382L32.6313 868.445C35.1285 876.814 39.7784 884.065 45.9372 889.195C52.0959 894.325 59.4592 897.08 67.0093 897.08H67.2287C74.8198 897.033 82.2094 894.209 88.3706 889C94.5319 883.791 99.1581 876.457 101.606 868.016L296.925 193.557L499.761 1125.99C501.775 1135.2 506.338 1143.36 512.732 1149.2C519.127 1155.03 526.991 1158.21 535.088 1158.22H535.672C543.879 1158.07 551.802 1154.66 558.159 1148.57C564.517 1142.47 568.937 1134.03 570.706 1124.61L655.812 675.117H1169.65C1174.45 675.122 1179.19 674.016 1183.62 671.864C1188.05 669.712 1192.08 666.554 1195.47 662.573C1198.86 658.591 1201.55 653.864 1203.38 648.661C1205.21 643.458 1206.15 637.882 1206.15 632.251Z" fill="white"/>
</svg>
