<svg width="16" height="4" viewBox="0 0 16 4" fill="none" xmlns="http://www.w3.org/2000/svg">
<path d="M8 3.125C8.62132 3.125 9.125 2.62132 9.125 2C9.125 1.37868 8.62132 0.875 8 0.875C7.37868 0.875 6.875 1.37868 6.875 2C6.875 2.62132 7.37868 3.125 8 3.125Z" fill="#1F2933"/>
<path d="M14 3.125C14.6213 3.125 15.125 2.62132 15.125 2C15.125 1.37868 14.6213 0.875 14 0.875C13.3787 0.875 12.875 1.37868 12.875 2C12.875 2.62132 13.3787 3.125 14 3.125Z" fill="#1F2933"/>
<path d="M2 3.125C2.62132 3.125 3.125 2.62132 3.125 2C3.125 1.37868 2.62132 0.875 2 0.875C1.37868 0.875 0.875 1.37868 0.875 2C0.875 2.62132 1.37868 3.125 2 3.125Z" fill="#1F2933"/>
</svg>
