<svg width="42" height="42" viewBox="0 0 42 42" fill="none" xmlns="http://www.w3.org/2000/svg">
<path d="M20.9996 0C9.42057 0 0 9.42057 0 21C0 32.5798 9.42057 42.0007 20.9996 42.0007C32.5794 42.0007 42 32.5798 42 21C41.9996 9.42057 32.5791 0 20.9996 0ZM32.1764 15.523C31.6129 16.364 30.9245 17.0943 30.1277 17.6968C30.1311 17.8187 30.1334 17.9405 30.1334 18.0624C30.1334 24.1866 25.4733 30.521 17.6747 30.521C15.2913 30.521 12.9697 29.8413 10.9615 28.5549C10.8146 28.4608 10.752 28.2782 10.8108 28.1136C10.8689 27.9494 11.0324 27.8448 11.2067 27.8669C11.5356 27.9048 11.8614 27.9235 12.1756 27.9235C13.7053 27.9235 15.163 27.5122 16.4427 26.7264C14.898 26.3533 13.6254 25.2015 13.1275 23.644C13.0874 23.5177 13.1163 23.3801 13.204 23.2807C13.2921 23.1817 13.4264 23.1352 13.5557 23.1619C13.6262 23.1754 13.6971 23.187 13.7675 23.1967C12.4654 22.367 11.6207 20.9081 11.6207 19.2929V19.2393C11.6207 19.1066 11.6912 18.9836 11.8055 18.9165C11.9199 18.8486 12.0616 18.8471 12.1775 18.9116C12.3405 19.002 12.5096 19.0803 12.6832 19.1463C12.0256 18.3342 11.6552 17.3118 11.6552 16.2361C11.6552 15.4195 11.8715 14.6156 12.2806 13.9119C12.3424 13.8054 12.4523 13.736 12.5753 13.7263C12.7005 13.7169 12.8175 13.7675 12.8954 13.8631C14.8897 16.3085 17.7887 17.8468 20.907 18.1303C20.8849 17.9454 20.874 17.7583 20.874 17.5705C20.874 15.0221 22.9478 12.9487 25.4966 12.9487C26.699 12.9487 27.8624 13.423 28.7206 14.2561C29.5601 14.069 30.3602 13.7518 31.1018 13.3116C31.2353 13.231 31.4048 13.243 31.5266 13.3405C31.6485 13.4372 31.698 13.5992 31.6507 13.7477C31.4659 14.3273 31.1689 14.8597 30.7809 15.3179C31.0984 15.2219 31.4096 15.1064 31.7133 14.9714C31.8663 14.9047 32.0452 14.9452 32.1524 15.0731C32.2596 15.2009 32.2694 15.3843 32.1764 15.523Z" fill="white"/>
</svg>
