<svg width="40" height="22" viewBox="0 0 40 22" fill="none" xmlns="http://www.w3.org/2000/svg">
<path d="M13.0769 0.230469C3.84615 0.230469 0 1.48124 0 2.49047V19.4612C0 20.4474 3.84615 21.7689 13.0769 21.7689C22.3077 21.7689 26.1538 20.5182 26.1538 19.5089V2.53816C26.1538 1.55201 22.3077 0.230469 13.0769 0.230469ZM39.0385 0.278161C38.7799 0.288467 38.5296 0.372252 38.3169 0.5197L28.3169 6.96124C27.9323 7.25047 27.6923 7.72739 27.6923 8.21201V13.7874C27.6923 14.272 27.9323 14.7474 28.3169 15.0382L38.3169 21.4812C38.5877 21.6859 39.9046 22.3274 39.9046 20.2305V1.76893C39.9046 0.558161 39.4877 0.2597 39.0385 0.278161Z" fill="#252525"/>
</svg>
