<svg width="762" height="269" viewBox="0 0 762 269" fill="none" xmlns="http://www.w3.org/2000/svg">
<line x1="55.2568" y1="9.52344" x2="762" y2="9.52344" stroke="#CBD2D9" stroke-dasharray="5 7"/>
<line x1="55.2568" y1="59.5234" x2="762" y2="59.5234" stroke="#CBD2D9" stroke-dasharray="5 7"/>
<line x1="55.2568" y1="109.523" x2="762" y2="109.523" stroke="#CBD2D9" stroke-dasharray="5 7"/>
<line x1="55.2568" y1="159.523" x2="762" y2="159.523" stroke="#CBD2D9" stroke-dasharray="5 7"/>
<line x1="55.2568" y1="209.523" x2="762" y2="209.523" stroke="#CBD2D9" stroke-dasharray="5 7"/>
<path d="M58.2808 264.326C60.4248 264.326 61.5448 263.158 61.5448 260.79V253.03H56.2808V254.054H60.3768V260.838C60.3768 262.486 59.6728 263.302 58.2968 263.302C57.3048 263.302 56.4888 262.822 55.8808 261.926L55.1768 262.726C55.8648 263.75 57.0168 264.326 58.2808 264.326ZM67.8005 255.75C66.4725 255.75 65.2245 256.166 64.3765 256.886L64.8885 257.734C65.5765 257.126 66.6005 256.742 67.6885 256.742C69.2565 256.742 70.0725 257.526 70.0725 258.966V259.478H67.4005C64.9845 259.478 64.1525 260.566 64.1525 261.862C64.1525 263.318 65.3205 264.31 67.2245 264.31C68.6165 264.31 69.6085 263.782 70.1205 262.918V264.23H71.2085V259.014C71.2085 256.838 69.9765 255.75 67.8005 255.75ZM67.4005 263.414C66.0565 263.414 65.2725 262.806 65.2725 261.83C65.2725 260.966 65.8005 260.326 67.4325 260.326H70.0725V261.702C69.6245 262.806 68.6805 263.414 67.4005 263.414ZM78.582 255.75C77.126 255.75 75.99 256.342 75.382 257.366V255.814H74.294V264.23H75.43V259.814C75.43 257.894 76.566 256.774 78.374 256.774C79.974 256.774 80.902 257.686 80.902 259.462V264.23H82.038V259.35C82.038 256.934 80.63 255.75 78.582 255.75Z" fill="#52606D"/>
<path d="M123.761 254.054V253.03H116.081V264.23H117.265V259.478H123.057V258.454H117.265V254.054H123.761ZM133.029 260.022C133.029 257.494 131.317 255.75 128.949 255.75C126.581 255.75 124.837 257.526 124.837 260.022C124.837 262.518 126.629 264.31 129.253 264.31C130.581 264.31 131.749 263.83 132.501 262.934L131.861 262.198C131.221 262.934 130.309 263.302 129.285 263.302C127.445 263.302 126.101 262.134 125.973 260.374H133.013C133.013 260.246 133.029 260.118 133.029 260.022ZM128.949 256.726C130.597 256.726 131.797 257.878 131.941 259.526H125.973C126.117 257.878 127.317 256.726 128.949 256.726ZM139.677 255.75C138.333 255.75 137.181 256.326 136.477 257.414V252.358H135.341V264.23H136.429V262.566C137.117 263.702 138.285 264.31 139.677 264.31C142.077 264.31 143.869 262.566 143.869 260.022C143.869 257.478 142.077 255.75 139.677 255.75ZM139.597 263.302C137.805 263.302 136.461 261.99 136.461 260.022C136.461 258.054 137.805 256.742 139.597 256.742C141.373 256.742 142.733 258.054 142.733 260.022C142.733 261.99 141.373 263.302 139.597 263.302Z" fill="#52606D"/>
<path d="M187.737 253.03L182.921 261.334L178.057 253.03H177.081V264.23H178.217V255.318L182.617 262.806H183.177L187.577 255.27V264.23H188.713V253.03H187.737ZM195.066 255.75C193.738 255.75 192.49 256.166 191.642 256.886L192.154 257.734C192.842 257.126 193.866 256.742 194.954 256.742C196.522 256.742 197.338 257.526 197.338 258.966V259.478H194.666C192.25 259.478 191.418 260.566 191.418 261.862C191.418 263.318 192.586 264.31 194.49 264.31C195.882 264.31 196.874 263.782 197.386 262.918V264.23H198.474V259.014C198.474 256.838 197.242 255.75 195.066 255.75ZM194.666 263.414C193.322 263.414 192.538 262.806 192.538 261.83C192.538 260.966 193.066 260.326 194.698 260.326H197.338V261.702C196.89 262.806 195.946 263.414 194.666 263.414ZM202.648 257.462V255.814H201.56V264.23H202.696V259.942C202.696 257.958 203.768 256.838 205.528 256.838C205.608 256.838 205.704 256.854 205.8 256.854V255.75C204.248 255.75 203.176 256.342 202.648 257.462Z" fill="#52606D"/>
<path d="M247.449 264.23H248.697L243.577 253.03H242.409L237.289 264.23H238.521L239.865 261.238H246.105L247.449 264.23ZM240.297 260.278L242.985 254.262L245.673 260.278H240.297ZM254.646 255.75C253.254 255.75 252.086 256.358 251.398 257.478V255.814H250.31V267.334H251.446V262.646C252.15 263.734 253.302 264.31 254.646 264.31C257.046 264.31 258.838 262.582 258.838 260.022C258.838 257.478 257.046 255.75 254.646 255.75ZM254.566 263.302C252.774 263.302 251.43 261.99 251.43 260.022C251.43 258.07 252.774 256.742 254.566 256.742C256.342 256.742 257.702 258.07 257.702 260.022C257.702 261.99 256.342 263.302 254.566 263.302ZM262.241 257.462V255.814H261.153V264.23H262.289V259.942C262.289 257.958 263.361 256.838 265.121 256.838C265.201 256.838 265.297 256.854 265.393 256.854V255.75C263.841 255.75 262.769 256.342 262.241 257.462Z" fill="#52606D"/>
<path d="M308.737 253.03L303.921 261.334L299.057 253.03H298.081V264.23H299.217V255.318L303.617 262.806H304.177L308.577 255.27V264.23H309.713V253.03H308.737ZM316.066 255.75C314.738 255.75 313.49 256.166 312.642 256.886L313.154 257.734C313.842 257.126 314.866 256.742 315.954 256.742C317.522 256.742 318.338 257.526 318.338 258.966V259.478H315.666C313.25 259.478 312.418 260.566 312.418 261.862C312.418 263.318 313.586 264.31 315.49 264.31C316.882 264.31 317.874 263.782 318.386 262.918V264.23H319.474V259.014C319.474 256.838 318.242 255.75 316.066 255.75ZM315.666 263.414C314.322 263.414 313.538 262.806 313.538 261.83C313.538 260.966 314.066 260.326 315.698 260.326H318.338V261.702C317.89 262.806 316.946 263.414 315.666 263.414ZM328.355 255.814L325.187 262.966L322.019 255.814H320.835L324.595 264.214L324.227 265.03C323.747 266.086 323.235 266.438 322.483 266.438C321.875 266.438 321.363 266.214 320.947 265.798L320.419 266.646C320.931 267.158 321.683 267.414 322.467 267.414C323.667 267.414 324.563 266.886 325.267 265.238L329.475 255.814H328.355Z" fill="#52606D"/>
<path d="M363.281 264.326C365.425 264.326 366.545 263.158 366.545 260.79V253.03H361.281V254.054H365.377V260.838C365.377 262.486 364.673 263.302 363.297 263.302C362.305 263.302 361.489 262.822 360.881 261.926L360.177 262.726C360.865 263.75 362.017 264.326 363.281 264.326ZM376.304 255.814V260.23C376.304 262.15 375.2 263.286 373.44 263.286C371.84 263.286 370.912 262.374 370.912 260.582V255.814H369.776V260.694C369.776 263.11 371.184 264.31 373.328 264.31C374.672 264.31 375.76 263.718 376.352 262.694V264.23H377.44V255.814H376.304ZM384.91 255.75C383.454 255.75 382.318 256.342 381.71 257.366V255.814H380.622V264.23H381.758V259.814C381.758 257.894 382.894 256.774 384.702 256.774C386.302 256.774 387.23 257.686 387.23 259.462V264.23H388.366V259.35C388.366 256.934 386.958 255.75 384.91 255.75Z" fill="#52606D"/>
<path d="M423.281 264.326C425.425 264.326 426.545 263.158 426.545 260.79V253.03H421.281V254.054H425.377V260.838C425.377 262.486 424.673 263.302 423.297 263.302C422.305 263.302 421.489 262.822 420.881 261.926L420.177 262.726C420.865 263.75 422.017 264.326 423.281 264.326ZM436.304 255.814V260.23C436.304 262.15 435.2 263.286 433.44 263.286C431.84 263.286 430.912 262.374 430.912 260.582V255.814H429.776V260.694C429.776 263.11 431.184 264.31 433.328 264.31C434.672 264.31 435.76 263.718 436.352 262.694V264.23H437.44V255.814H436.304ZM440.622 264.23H441.758V252.358H440.622V264.23Z" fill="#52606D"/>
<path d="M484.449 264.23H485.697L480.577 253.03H479.409L474.289 264.23H475.521L476.865 261.238H483.105L484.449 264.23ZM477.297 260.278L479.985 254.262L482.673 260.278H477.297ZM493.601 255.814V260.23C493.601 262.15 492.497 263.286 490.737 263.286C489.137 263.286 488.209 262.374 488.209 260.582V255.814H487.073V260.694C487.073 263.11 488.481 264.31 490.625 264.31C491.969 264.31 493.057 263.718 493.649 262.694V264.23H494.737V255.814H493.601ZM504.623 255.814V257.43C503.919 256.326 502.703 255.75 501.295 255.75C498.895 255.75 497.071 257.398 497.071 259.814C497.071 262.23 498.895 263.91 501.295 263.91C502.671 263.91 503.871 263.35 504.575 262.278V263.35C504.575 265.43 503.599 266.406 501.471 266.406C500.175 266.406 498.959 265.974 498.159 265.254L497.583 266.118C498.463 266.95 499.967 267.414 501.503 267.414C504.287 267.414 505.711 266.102 505.711 263.206V255.814H504.623ZM501.407 262.902C499.551 262.902 498.223 261.638 498.223 259.814C498.223 257.99 499.551 256.742 501.407 256.742C503.263 256.742 504.607 257.99 504.607 259.814C504.607 261.638 503.263 262.902 501.407 262.902Z" fill="#52606D"/>
<path d="M543.169 264.326C546.033 264.326 547.345 262.918 547.345 261.27C547.345 257.19 540.449 259.046 540.449 255.974C540.449 254.854 541.361 253.942 543.409 253.942C544.401 253.942 545.521 254.246 546.481 254.87L546.881 253.926C545.985 253.302 544.673 252.934 543.409 252.934C540.561 252.934 539.281 254.358 539.281 256.006C539.281 260.15 546.177 258.262 546.177 261.334C546.177 262.438 545.265 263.318 543.169 263.318C541.697 263.318 540.273 262.742 539.473 261.958L539.009 262.87C539.841 263.734 541.489 264.326 543.169 264.326ZM557.029 260.022C557.029 257.494 555.317 255.75 552.949 255.75C550.581 255.75 548.837 257.526 548.837 260.022C548.837 262.518 550.629 264.31 553.253 264.31C554.581 264.31 555.749 263.83 556.501 262.934L555.861 262.198C555.221 262.934 554.309 263.302 553.285 263.302C551.445 263.302 550.101 262.134 549.973 260.374H557.013C557.013 260.246 557.029 260.118 557.029 260.022ZM552.949 256.726C554.597 256.726 555.797 257.878 555.941 259.526H549.973C550.117 257.878 551.317 256.726 552.949 256.726ZM563.677 255.75C562.285 255.75 561.117 256.358 560.429 257.478V255.814H559.341V267.334H560.477V262.646C561.181 263.734 562.333 264.31 563.677 264.31C566.077 264.31 567.869 262.582 567.869 260.022C567.869 257.478 566.077 255.75 563.677 255.75ZM563.597 263.302C561.805 263.302 560.461 261.99 560.461 260.022C560.461 258.07 561.805 256.742 563.597 256.742C565.373 256.742 566.733 258.07 566.733 260.022C566.733 261.99 565.373 263.302 563.597 263.302ZM574.217 262.902C573.897 263.19 573.433 263.334 572.969 263.334C572.025 263.334 571.513 262.79 571.513 261.798V256.774H574.073V255.814H571.513V253.974H570.377V255.814H568.873V256.774H570.377V261.862C570.377 263.414 571.257 264.31 572.841 264.31C573.497 264.31 574.169 264.118 574.617 263.718L574.217 262.902Z" fill="#52606D"/>
<path d="M611.977 264.326C615.337 264.326 617.849 261.91 617.849 258.63C617.849 255.35 615.337 252.934 611.977 252.934C608.585 252.934 606.089 255.366 606.089 258.63C606.089 261.894 608.585 264.326 611.977 264.326ZM611.977 263.27C609.273 263.27 607.257 261.302 607.257 258.63C607.257 255.958 609.273 253.99 611.977 253.99C614.665 253.99 616.665 255.958 616.665 258.63C616.665 261.302 614.665 263.27 611.977 263.27ZM623.751 264.31C625.175 264.31 626.375 263.734 627.047 262.646L626.199 262.07C625.623 262.918 624.727 263.302 623.751 263.302C621.911 263.302 620.567 262.006 620.567 260.022C620.567 258.054 621.911 256.742 623.751 256.742C624.727 256.742 625.623 257.142 626.199 257.99L627.047 257.414C626.375 256.31 625.175 255.75 623.751 255.75C621.239 255.75 619.415 257.51 619.415 260.022C619.415 262.534 621.239 264.31 623.751 264.31ZM633.404 262.902C633.084 263.19 632.62 263.334 632.156 263.334C631.212 263.334 630.7 262.79 630.7 261.798V256.774H633.26V255.814H630.7V253.974H629.564V255.814H628.06V256.774H629.564V261.862C629.564 263.414 630.444 264.31 632.028 264.31C632.684 264.31 633.356 264.118 633.804 263.718L633.404 262.902Z" fill="#52606D"/>
<path d="M675.273 253.03V262.118L668.057 253.03H667.081V264.23H668.265V255.142L675.465 264.23H676.441V253.03H675.273ZM683.296 264.31C685.76 264.31 687.568 262.518 687.568 260.022C687.568 257.526 685.76 255.75 683.296 255.75C680.832 255.75 679.008 257.526 679.008 260.022C679.008 262.518 680.832 264.31 683.296 264.31ZM683.296 263.302C681.504 263.302 680.16 261.99 680.16 260.022C680.16 258.054 681.504 256.742 683.296 256.742C685.088 256.742 686.416 258.054 686.416 260.022C686.416 261.99 685.088 263.302 683.296 263.302ZM695.605 255.814L692.421 262.982L689.269 255.814H688.085L691.813 264.23H692.981L696.725 255.814H695.605Z" fill="#52606D"/>
<path d="M729.081 264.23H733.641C737.225 264.23 739.641 261.926 739.641 258.63C739.641 255.334 737.225 253.03 733.641 253.03H729.081V264.23ZM730.265 263.206V254.054H733.577C736.553 254.054 738.473 255.942 738.473 258.63C738.473 261.318 736.553 263.206 733.577 263.206H730.265ZM749.404 260.022C749.404 257.494 747.692 255.75 745.324 255.75C742.956 255.75 741.212 257.526 741.212 260.022C741.212 262.518 743.004 264.31 745.628 264.31C746.956 264.31 748.124 263.83 748.876 262.934L748.236 262.198C747.596 262.934 746.684 263.302 745.66 263.302C743.82 263.302 742.476 262.134 742.348 260.374H749.388C749.388 260.246 749.404 260.118 749.404 260.022ZM745.324 256.726C746.972 256.726 748.172 257.878 748.316 259.526H742.348C742.492 257.878 743.692 256.726 745.324 256.726ZM755.204 264.31C756.628 264.31 757.828 263.734 758.5 262.646L757.652 262.07C757.076 262.918 756.18 263.302 755.204 263.302C753.364 263.302 752.02 262.006 752.02 260.022C752.02 258.054 753.364 256.742 755.204 256.742C756.18 256.742 757.076 257.142 757.652 257.99L758.5 257.414C757.828 256.31 756.628 255.75 755.204 255.75C752.692 255.75 750.868 257.51 750.868 260.022C750.868 262.534 752.692 264.31 755.204 264.31Z" fill="#52606D"/>
<path d="M2.32 14.9994L6.128 11.2554C7.632 9.78344 7.968 8.82344 7.968 7.75144C7.968 5.87944 6.528 4.72744 4.256 4.72744C2.544 4.72744 1.152 5.30344 0.288 6.32744L1.104 7.03144C1.84 6.18344 2.848 5.78344 4.16 5.78344C5.872 5.78344 6.784 6.58344 6.784 7.87944C6.784 8.64744 6.544 9.39944 5.28 10.6474L0.624 15.2074V16.0234H8.48V14.9994H2.32ZM12.8698 9.41544H11.4298L11.8138 5.84744H16.9338V4.82344H10.8058L10.2298 10.4394H12.6138C15.4618 10.4394 16.3578 11.3354 16.3578 12.7754C16.3578 14.1354 15.3498 15.0634 13.4458 15.0634C12.0058 15.0634 10.7258 14.5194 10.0058 13.7674L9.44575 14.6794C10.3098 15.5594 11.8458 16.1194 13.4618 16.1194C16.1978 16.1194 17.5258 14.6314 17.5258 12.7274C17.5258 10.7434 16.2458 9.41544 12.8698 9.41544Z" fill="#52606D"/>
<path d="M2.32 64.9994L6.128 61.2554C7.632 59.7834 7.968 58.8234 7.968 57.7514C7.968 55.8794 6.528 54.7274 4.256 54.7274C2.544 54.7274 1.152 55.3034 0.288 56.3274L1.104 57.0314C1.84 56.1834 2.848 55.7834 4.16 55.7834C5.872 55.7834 6.784 56.5834 6.784 57.8794C6.784 58.6474 6.544 59.3994 5.28 60.6474L0.624 65.2074V66.0234H8.48V64.9994H2.32ZM14.3273 66.1194C16.9193 66.1194 18.8073 63.9914 18.8073 60.4234C18.8073 56.8554 16.9193 54.7274 14.3273 54.7274C11.7353 54.7274 9.86325 56.8554 9.86325 60.4234C9.86325 63.9914 11.7353 66.1194 14.3273 66.1194ZM14.3273 65.0634C12.3753 65.0634 11.0312 63.4154 11.0312 60.4234C11.0312 57.4314 12.3753 55.7834 14.3273 55.7834C16.2793 55.7834 17.6233 57.4314 17.6233 60.4234C17.6233 63.4154 16.2793 65.0634 14.3273 65.0634Z" fill="#52606D"/>
<path d="M0.144 104.823V105.847H2.784V116.023H3.936V104.823H0.144ZM9.55725 109.415H8.11725L8.50125 105.847H13.6213V104.823H7.49325L6.91725 110.439H9.30125C12.1493 110.439 13.0453 111.335 13.0453 112.775C13.0453 114.135 12.0373 115.063 10.1333 115.063C8.69325 115.063 7.41325 114.519 6.69325 113.767L6.13325 114.679C6.99725 115.559 8.53325 116.119 10.1493 116.119C12.8853 116.119 14.2133 114.631 14.2133 112.727C14.2133 110.743 12.9333 109.415 9.55725 109.415Z" fill="#52606D"/>
<path d="M3.776 159.415H2.336L2.72 155.847H7.84V154.823H1.712L1.136 160.439H3.52C6.368 160.439 7.264 161.335 7.264 162.775C7.264 164.135 6.256 165.063 4.352 165.063C2.912 165.063 1.632 164.519 0.912 163.767L0.352 164.679C1.216 165.559 2.752 166.119 4.368 166.119C7.104 166.119 8.432 164.631 8.432 162.727C8.432 160.743 7.152 159.415 3.776 159.415Z" fill="#52606D"/>
<path d="M5.296 216.119C7.888 216.119 9.776 213.991 9.776 210.423C9.776 206.855 7.888 204.727 5.296 204.727C2.704 204.727 0.832 206.855 0.832 210.423C0.832 213.991 2.704 216.119 5.296 216.119ZM5.296 215.063C3.344 215.063 2 213.415 2 210.423C2 207.431 3.344 205.783 5.296 205.783C7.248 205.783 8.592 207.431 8.592 210.423C8.592 213.415 7.248 215.063 5.296 215.063Z" fill="#52606D"/>
<path d="M55.998 209.74L124.586 173.678L191.845 198.535L245.331 95.5479L305.703 183.146L363.708 173.678L421.713 95.5479L479.718 198.535L541.274 29.2559L594.544 112.121L651.365 81.3428L715.289 198.535" stroke="#1992D4" stroke-width="2" stroke-linecap="round"/>
<line x1="312.272" y1="209.74" x2="312.272" y2="10.0229" stroke="#F86A6A" stroke-dasharray="5 7"/>
<circle cx="312.238" cy="211.787" r="4.07812" fill="#F86A6A"/>
</svg>
