<svg width="1220" height="280" viewBox="0 0 1220 280" fill="none" xmlns="http://www.w3.org/2000/svg">
<line x1="55" y1="9.5" x2="1220" y2="9.5" stroke="#CBD2D9" stroke-dasharray="5 7"/>
<line x1="55" y1="59.5" x2="1220" y2="59.5" stroke="#CBD2D9" stroke-dasharray="5 7"/>
<line x1="55" y1="109.5" x2="1220" y2="109.5" stroke="#CBD2D9" stroke-dasharray="5 7"/>
<line x1="55" y1="159.5" x2="1220" y2="159.5" stroke="#CBD2D9" stroke-dasharray="5 7"/>
<line x1="55" y1="209.5" x2="1220" y2="209.5" stroke="#CBD2D9" stroke-dasharray="5 7"/>
<path d="M592.02 103V114.36L583 103H581.78V117H583.26V105.64L592.26 117H593.48V103H592.02ZM602.05 117.1C605.13 117.1 607.39 114.86 607.39 111.74C607.39 108.62 605.13 106.4 602.05 106.4C598.97 106.4 596.69 108.62 596.69 111.74C596.69 114.86 598.97 117.1 602.05 117.1ZM602.05 115.84C599.81 115.84 598.13 114.2 598.13 111.74C598.13 109.28 599.81 107.64 602.05 107.64C604.29 107.64 605.95 109.28 605.95 111.74C605.95 114.2 604.29 115.84 602.05 115.84ZM623.703 102.16V108.48C622.823 107.12 621.383 106.4 619.703 106.4C616.703 106.4 614.463 108.56 614.463 111.74C614.463 114.92 616.703 117.1 619.703 117.1C621.443 117.1 622.903 116.34 623.763 114.92V117H625.123V102.16H623.703ZM619.823 115.84C617.583 115.84 615.903 114.2 615.903 111.74C615.903 109.28 617.583 107.64 619.823 107.64C622.043 107.64 623.723 109.28 623.723 111.74C623.723 114.2 622.043 115.84 619.823 115.84ZM632.758 106.4C631.098 106.4 629.538 106.92 628.478 107.82L629.118 108.88C629.978 108.12 631.258 107.64 632.618 107.64C634.578 107.64 635.598 108.62 635.598 110.42V111.06H632.258C629.238 111.06 628.198 112.42 628.198 114.04C628.198 115.86 629.658 117.1 632.038 117.1C633.778 117.1 635.018 116.44 635.658 115.36V117H637.018V110.48C637.018 107.76 635.478 106.4 632.758 106.4ZM632.258 115.98C630.578 115.98 629.598 115.22 629.598 114C629.598 112.92 630.258 112.12 632.298 112.12H635.598V113.84C635.038 115.22 633.858 115.98 632.258 115.98ZM645.915 115.34C645.515 115.7 644.935 115.88 644.355 115.88C643.175 115.88 642.535 115.2 642.535 113.96V107.68H645.735V106.48H642.535V104.18H641.115V106.48H639.235V107.68H641.115V114.04C641.115 115.98 642.215 117.1 644.195 117.1C645.015 117.1 645.855 116.86 646.415 116.36L645.915 115.34ZM652.68 106.4C651.02 106.4 649.46 106.92 648.4 107.82L649.04 108.88C649.9 108.12 651.18 107.64 652.54 107.64C654.5 107.64 655.52 108.62 655.52 110.42V111.06H652.18C649.16 111.06 648.12 112.42 648.12 114.04C648.12 115.86 649.58 117.1 651.96 117.1C653.7 117.1 654.94 116.44 655.58 115.36V117H656.94V110.48C656.94 107.76 655.4 106.4 652.68 106.4ZM652.18 115.98C650.5 115.98 649.52 115.22 649.52 114C649.52 112.92 650.18 112.12 652.22 112.12H655.52V113.84C654.96 115.22 653.78 115.98 652.18 115.98ZM673.471 106.48L669.511 115.42L665.551 106.48H664.071L668.771 116.98L668.311 118C667.711 119.32 667.071 119.76 666.131 119.76C665.371 119.76 664.731 119.48 664.211 118.96L663.551 120.02C664.191 120.66 665.131 120.98 666.111 120.98C667.611 120.98 668.731 120.32 669.611 118.26L674.871 106.48H673.471ZM685.758 111.74C685.758 108.58 683.618 106.4 680.658 106.4C677.698 106.4 675.518 108.62 675.518 111.74C675.518 114.86 677.758 117.1 681.038 117.1C682.698 117.1 684.158 116.5 685.098 115.38L684.298 114.46C683.498 115.38 682.358 115.84 681.078 115.84C678.778 115.84 677.098 114.38 676.938 112.18H685.738C685.738 112.02 685.758 111.86 685.758 111.74ZM680.658 107.62C682.718 107.62 684.218 109.06 684.398 111.12H676.938C677.118 109.06 678.618 107.62 680.658 107.62ZM693.688 115.34C693.288 115.7 692.708 115.88 692.128 115.88C690.948 115.88 690.308 115.2 690.308 113.96V107.68H693.508V106.48H690.308V104.18H688.888V106.48H687.008V107.68H688.888V114.04C688.888 115.98 689.988 117.1 691.968 117.1C692.788 117.1 693.628 116.86 694.188 116.36L693.688 115.34Z" fill="#9AA5B1"/>
<path d="M58.024 264.096C60.168 264.096 61.288 262.928 61.288 260.56V252.8H56.024V253.824H60.12V260.608C60.12 262.256 59.416 263.072 58.04 263.072C57.048 263.072 56.232 262.592 55.624 261.696L54.92 262.496C55.608 263.52 56.76 264.096 58.024 264.096ZM67.5436 255.52C66.2156 255.52 64.9676 255.936 64.1196 256.656L64.6316 257.504C65.3196 256.896 66.3436 256.512 67.4316 256.512C68.9996 256.512 69.8156 257.296 69.8156 258.736V259.248H67.1436C64.7276 259.248 63.8956 260.336 63.8956 261.632C63.8956 263.088 65.0636 264.08 66.9676 264.08C68.3596 264.08 69.3516 263.552 69.8636 262.688V264H70.9516V258.784C70.9516 256.608 69.7196 255.52 67.5436 255.52ZM67.1436 263.184C65.7996 263.184 65.0156 262.576 65.0156 261.6C65.0156 260.736 65.5436 260.096 67.1756 260.096H69.8156V261.472C69.3676 262.576 68.4236 263.184 67.1436 263.184ZM78.3251 255.52C76.8691 255.52 75.7331 256.112 75.1251 257.136V255.584H74.0371V264H75.1731V259.584C75.1731 257.664 76.3091 256.544 78.1171 256.544C79.7171 256.544 80.6451 257.456 80.6451 259.232V264H81.7811V259.12C81.7811 256.704 80.3731 255.52 78.3251 255.52Z" fill="#52606D"/>
<path d="M165.413 253.824V252.8H157.733V264H158.917V259.248H164.709V258.224H158.917V253.824H165.413ZM174.681 259.792C174.681 257.264 172.969 255.52 170.601 255.52C168.233 255.52 166.489 257.296 166.489 259.792C166.489 262.288 168.281 264.08 170.905 264.08C172.233 264.08 173.401 263.6 174.153 262.704L173.513 261.968C172.873 262.704 171.961 263.072 170.937 263.072C169.097 263.072 167.753 261.904 167.625 260.144H174.665C174.665 260.016 174.681 259.888 174.681 259.792ZM170.601 256.496C172.249 256.496 173.449 257.648 173.593 259.296H167.625C167.769 257.648 168.969 256.496 170.601 256.496ZM181.329 255.52C179.985 255.52 178.833 256.096 178.129 257.184V252.128H176.993V264H178.081V262.336C178.769 263.472 179.937 264.08 181.329 264.08C183.729 264.08 185.521 262.336 185.521 259.792C185.521 257.248 183.729 255.52 181.329 255.52ZM181.249 263.072C179.457 263.072 178.113 261.76 178.113 259.792C178.113 257.824 179.457 256.512 181.249 256.512C183.025 256.512 184.385 257.824 184.385 259.792C184.385 261.76 183.025 263.072 181.249 263.072Z" fill="#52606D"/>
<path d="M271.298 252.8L266.482 261.104L261.618 252.8H260.642V264H261.778V255.088L266.178 262.576H266.738L271.138 255.04V264H272.274V252.8H271.298ZM278.628 255.52C277.3 255.52 276.052 255.936 275.204 256.656L275.716 257.504C276.404 256.896 277.428 256.512 278.516 256.512C280.084 256.512 280.9 257.296 280.9 258.736V259.248H278.228C275.812 259.248 274.98 260.336 274.98 261.632C274.98 263.088 276.148 264.08 278.052 264.08C279.444 264.08 280.436 263.552 280.948 262.688V264H282.036V258.784C282.036 256.608 280.804 255.52 278.628 255.52ZM278.228 263.184C276.884 263.184 276.1 262.576 276.1 261.6C276.1 260.736 276.628 260.096 278.26 260.096H280.9V261.472C280.452 262.576 279.508 263.184 278.228 263.184ZM286.209 257.232V255.584H285.121V264H286.257V259.712C286.257 257.728 287.329 256.608 289.089 256.608C289.169 256.608 289.265 256.624 289.361 256.624V255.52C287.809 255.52 286.737 256.112 286.209 257.232Z" fill="#52606D"/>
<path d="M372.919 264H374.167L369.047 252.8H367.879L362.759 264H363.991L365.335 261.008H371.575L372.919 264ZM365.767 260.048L368.455 254.032L371.143 260.048H365.767ZM380.116 255.52C378.724 255.52 377.556 256.128 376.868 257.248V255.584H375.78V267.104H376.916V262.416C377.62 263.504 378.772 264.08 380.116 264.08C382.516 264.08 384.308 262.352 384.308 259.792C384.308 257.248 382.516 255.52 380.116 255.52ZM380.036 263.072C378.244 263.072 376.9 261.76 376.9 259.792C376.9 257.84 378.244 256.512 380.036 256.512C381.812 256.512 383.172 257.84 383.172 259.792C383.172 261.76 381.812 263.072 380.036 263.072ZM387.712 257.232V255.584H386.624V264H387.76V259.712C387.76 257.728 388.832 256.608 390.592 256.608C390.672 256.608 390.768 256.624 390.864 256.624V255.52C389.312 255.52 388.24 256.112 387.712 257.232Z" fill="#52606D"/>
<path d="M476.116 252.8L471.3 261.104L466.436 252.8H465.46V264H466.596V255.088L470.996 262.576H471.556L475.956 255.04V264H477.092V252.8H476.116ZM483.445 255.52C482.117 255.52 480.869 255.936 480.021 256.656L480.533 257.504C481.221 256.896 482.245 256.512 483.333 256.512C484.901 256.512 485.717 257.296 485.717 258.736V259.248H483.045C480.629 259.248 479.797 260.336 479.797 261.632C479.797 263.088 480.965 264.08 482.869 264.08C484.261 264.08 485.253 263.552 485.765 262.688V264H486.853V258.784C486.853 256.608 485.621 255.52 483.445 255.52ZM483.045 263.184C481.701 263.184 480.917 262.576 480.917 261.6C480.917 260.736 481.445 260.096 483.077 260.096H485.717V261.472C485.269 262.576 484.325 263.184 483.045 263.184ZM495.735 255.584L492.567 262.736L489.399 255.584H488.215L491.975 263.984L491.607 264.8C491.127 265.856 490.615 266.208 489.863 266.208C489.255 266.208 488.743 265.984 488.327 265.568L487.799 266.416C488.311 266.928 489.063 267.184 489.847 267.184C491.047 267.184 491.943 266.656 492.647 265.008L496.855 255.584H495.735Z" fill="#52606D"/>
<path d="M572.569 264.096C574.713 264.096 575.833 262.928 575.833 260.56V252.8H570.569V253.824H574.665V260.608C574.665 262.256 573.961 263.072 572.585 263.072C571.593 263.072 570.777 262.592 570.169 261.696L569.465 262.496C570.153 263.52 571.305 264.096 572.569 264.096ZM585.593 255.584V260C585.593 261.92 584.489 263.056 582.729 263.056C581.129 263.056 580.201 262.144 580.201 260.352V255.584H579.065V260.464C579.065 262.88 580.473 264.08 582.617 264.08C583.961 264.08 585.049 263.488 585.641 262.464V264H586.729V255.584H585.593ZM594.199 255.52C592.743 255.52 591.607 256.112 590.999 257.136V255.584H589.911V264H591.047V259.584C591.047 257.664 592.183 256.544 593.991 256.544C595.591 256.544 596.519 257.456 596.519 259.232V264H597.655V259.12C597.655 256.704 596.247 255.52 594.199 255.52Z" fill="#52606D"/>
<path d="M674.479 264.096C676.623 264.096 677.743 262.928 677.743 260.56V252.8H672.479V253.824H676.575V260.608C676.575 262.256 675.871 263.072 674.495 263.072C673.503 263.072 672.687 262.592 672.079 261.696L671.375 262.496C672.063 263.52 673.215 264.096 674.479 264.096ZM687.502 255.584V260C687.502 261.92 686.398 263.056 684.638 263.056C683.038 263.056 682.11 262.144 682.11 260.352V255.584H680.974V260.464C680.974 262.88 682.382 264.08 684.526 264.08C685.87 264.08 686.958 263.488 687.55 262.464V264H688.638V255.584H687.502ZM691.82 264H692.956V252.128H691.82V264Z" fill="#52606D"/>
<path d="M777.555 264H778.803L773.683 252.8H772.515L767.395 264H768.627L769.971 261.008H776.211L777.555 264ZM770.403 260.048L773.091 254.032L775.779 260.048H770.403ZM786.708 255.584V260C786.708 261.92 785.604 263.056 783.844 263.056C782.244 263.056 781.316 262.144 781.316 260.352V255.584H780.18V260.464C780.18 262.88 781.588 264.08 783.732 264.08C785.076 264.08 786.164 263.488 786.756 262.464V264H787.844V255.584H786.708ZM797.729 255.584V257.2C797.025 256.096 795.809 255.52 794.401 255.52C792.001 255.52 790.177 257.168 790.177 259.584C790.177 262 792.001 263.68 794.401 263.68C795.777 263.68 796.977 263.12 797.681 262.048V263.12C797.681 265.2 796.705 266.176 794.577 266.176C793.281 266.176 792.065 265.744 791.265 265.024L790.689 265.888C791.569 266.72 793.073 267.184 794.609 267.184C797.393 267.184 798.817 265.872 798.817 262.976V255.584H797.729ZM794.513 262.672C792.657 262.672 791.329 261.408 791.329 259.584C791.329 257.76 792.657 256.512 794.513 256.512C796.369 256.512 797.713 257.76 797.713 259.584C797.713 261.408 796.369 262.672 794.513 262.672Z" fill="#52606D"/>
<path d="M878.184 264.096C881.048 264.096 882.36 262.688 882.36 261.04C882.36 256.96 875.464 258.816 875.464 255.744C875.464 254.624 876.376 253.712 878.424 253.712C879.416 253.712 880.536 254.016 881.496 254.64L881.896 253.696C881 253.072 879.688 252.704 878.424 252.704C875.576 252.704 874.296 254.128 874.296 255.776C874.296 259.92 881.192 258.032 881.192 261.104C881.192 262.208 880.28 263.088 878.184 263.088C876.712 263.088 875.288 262.512 874.488 261.728L874.024 262.64C874.856 263.504 876.504 264.096 878.184 264.096ZM892.044 259.792C892.044 257.264 890.332 255.52 887.964 255.52C885.596 255.52 883.852 257.296 883.852 259.792C883.852 262.288 885.644 264.08 888.268 264.08C889.596 264.08 890.764 263.6 891.516 262.704L890.876 261.968C890.236 262.704 889.324 263.072 888.3 263.072C886.46 263.072 885.116 261.904 884.988 260.144H892.028C892.028 260.016 892.044 259.888 892.044 259.792ZM887.964 256.496C889.612 256.496 890.812 257.648 890.956 259.296H884.988C885.132 257.648 886.332 256.496 887.964 256.496ZM898.692 255.52C897.3 255.52 896.132 256.128 895.444 257.248V255.584H894.356V267.104H895.492V262.416C896.196 263.504 897.348 264.08 898.692 264.08C901.092 264.08 902.884 262.352 902.884 259.792C902.884 257.248 901.092 255.52 898.692 255.52ZM898.612 263.072C896.82 263.072 895.476 261.76 895.476 259.792C895.476 257.84 896.82 256.512 898.612 256.512C900.388 256.512 901.748 257.84 901.748 259.792C901.748 261.76 900.388 263.072 898.612 263.072ZM909.232 262.672C908.912 262.96 908.448 263.104 907.984 263.104C907.04 263.104 906.528 262.56 906.528 261.568V256.544H909.088V255.584H906.528V253.744H905.392V255.584H903.888V256.544H905.392V261.632C905.392 263.184 906.272 264.08 907.856 264.08C908.512 264.08 909.184 263.888 909.632 263.488L909.232 262.672Z" fill="#52606D"/>
<path d="M988.902 264.096C992.262 264.096 994.774 261.68 994.774 258.4C994.774 255.12 992.262 252.704 988.902 252.704C985.51 252.704 983.014 255.136 983.014 258.4C983.014 261.664 985.51 264.096 988.902 264.096ZM988.902 263.04C986.198 263.04 984.182 261.072 984.182 258.4C984.182 255.728 986.198 253.76 988.902 253.76C991.59 253.76 993.59 255.728 993.59 258.4C993.59 261.072 991.59 263.04 988.902 263.04ZM1000.68 264.08C1002.1 264.08 1003.3 263.504 1003.97 262.416L1003.12 261.84C1002.55 262.688 1001.65 263.072 1000.68 263.072C998.836 263.072 997.492 261.776 997.492 259.792C997.492 257.824 998.836 256.512 1000.68 256.512C1001.65 256.512 1002.55 256.912 1003.12 257.76L1003.97 257.184C1003.3 256.08 1002.1 255.52 1000.68 255.52C998.164 255.52 996.34 257.28 996.34 259.792C996.34 262.304 998.164 264.08 1000.68 264.08ZM1010.33 262.672C1010.01 262.96 1009.54 263.104 1009.08 263.104C1008.14 263.104 1007.62 262.56 1007.62 261.568V256.544H1010.18V255.584H1007.62V253.744H1006.49V255.584H1004.98V256.544H1006.49V261.632C1006.49 263.184 1007.37 264.08 1008.95 264.08C1009.61 264.08 1010.28 263.888 1010.73 263.488L1010.33 262.672Z" fill="#52606D"/>
<path d="M1094.11 252.8V261.888L1086.89 252.8H1085.91V264H1087.1V254.912L1094.3 264H1095.27V252.8H1094.11ZM1102.13 264.08C1104.59 264.08 1106.4 262.288 1106.4 259.792C1106.4 257.296 1104.59 255.52 1102.13 255.52C1099.67 255.52 1097.84 257.296 1097.84 259.792C1097.84 262.288 1099.67 264.08 1102.13 264.08ZM1102.13 263.072C1100.34 263.072 1098.99 261.76 1098.99 259.792C1098.99 257.824 1100.34 256.512 1102.13 256.512C1103.92 256.512 1105.25 257.824 1105.25 259.792C1105.25 261.76 1103.92 263.072 1102.13 263.072ZM1114.44 255.584L1111.26 262.752L1108.1 255.584H1106.92L1110.65 264H1111.82L1115.56 255.584H1114.44Z" fill="#52606D"/>
<path d="M1189.82 264H1194.38C1197.97 264 1200.38 261.696 1200.38 258.4C1200.38 255.104 1197.97 252.8 1194.38 252.8H1189.82V264ZM1191.01 262.976V253.824H1194.32C1197.3 253.824 1199.22 255.712 1199.22 258.4C1199.22 261.088 1197.3 262.976 1194.32 262.976H1191.01ZM1210.15 259.792C1210.15 257.264 1208.43 255.52 1206.07 255.52C1203.7 255.52 1201.95 257.296 1201.95 259.792C1201.95 262.288 1203.75 264.08 1206.37 264.08C1207.7 264.08 1208.87 263.6 1209.62 262.704L1208.98 261.968C1208.34 262.704 1207.43 263.072 1206.4 263.072C1204.56 263.072 1203.22 261.904 1203.09 260.144H1210.13C1210.13 260.016 1210.15 259.888 1210.15 259.792ZM1206.07 256.496C1207.71 256.496 1208.91 257.648 1209.06 259.296H1203.09C1203.23 257.648 1204.43 256.496 1206.07 256.496ZM1215.95 264.08C1217.37 264.08 1218.57 263.504 1219.24 262.416L1218.4 261.84C1217.82 262.688 1216.92 263.072 1215.95 263.072C1214.11 263.072 1212.76 261.776 1212.76 259.792C1212.76 257.824 1214.11 256.512 1215.95 256.512C1216.92 256.512 1217.82 256.912 1218.4 257.76L1219.24 257.184C1218.57 256.08 1217.37 255.52 1215.95 255.52C1213.44 255.52 1211.61 257.28 1211.61 259.792C1211.61 262.304 1213.44 264.08 1215.95 264.08Z" fill="#52606D"/>
<path d="M2.32 14.976L6.128 11.232C7.632 9.76 7.968 8.8 7.968 7.728C7.968 5.856 6.528 4.704 4.256 4.704C2.544 4.704 1.152 5.28 0.288 6.304L1.104 7.008C1.84 6.16 2.848 5.76 4.16 5.76C5.872 5.76 6.784 6.56 6.784 7.856C6.784 8.624 6.544 9.376 5.28 10.624L0.624 15.184V16H8.48V14.976H2.32ZM12.8698 9.392H11.4298L11.8138 5.824H16.9338V4.8H10.8058L10.2298 10.416H12.6138C15.4618 10.416 16.3578 11.312 16.3578 12.752C16.3578 14.112 15.3498 15.04 13.4458 15.04C12.0058 15.04 10.7258 14.496 10.0058 13.744L9.44575 14.656C10.3098 15.536 11.8458 16.096 13.4618 16.096C16.1978 16.096 17.5258 14.608 17.5258 12.704C17.5258 10.72 16.2458 9.392 12.8698 9.392Z" fill="#52606D"/>
<path d="M2.32 64.976L6.128 61.232C7.632 59.76 7.968 58.8 7.968 57.728C7.968 55.856 6.528 54.704 4.256 54.704C2.544 54.704 1.152 55.28 0.288 56.304L1.104 57.008C1.84 56.16 2.848 55.76 4.16 55.76C5.872 55.76 6.784 56.56 6.784 57.856C6.784 58.624 6.544 59.376 5.28 60.624L0.624 65.184V66H8.48V64.976H2.32ZM14.3273 66.096C16.9193 66.096 18.8073 63.968 18.8073 60.4C18.8073 56.832 16.9193 54.704 14.3273 54.704C11.7353 54.704 9.86325 56.832 9.86325 60.4C9.86325 63.968 11.7353 66.096 14.3273 66.096ZM14.3273 65.04C12.3753 65.04 11.0312 63.392 11.0312 60.4C11.0312 57.408 12.3753 55.76 14.3273 55.76C16.2793 55.76 17.6233 57.408 17.6233 60.4C17.6233 63.392 16.2793 65.04 14.3273 65.04Z" fill="#52606D"/>
<path d="M0.144 104.8V105.824H2.784V116H3.936V104.8H0.144ZM9.55725 109.392H8.11725L8.50125 105.824H13.6213V104.8H7.49325L6.91725 110.416H9.30125C12.1493 110.416 13.0453 111.312 13.0453 112.752C13.0453 114.112 12.0373 115.04 10.1333 115.04C8.69325 115.04 7.41325 114.496 6.69325 113.744L6.13325 114.656C6.99725 115.536 8.53325 116.096 10.1493 116.096C12.8853 116.096 14.2133 114.608 14.2133 112.704C14.2133 110.72 12.9333 109.392 9.55725 109.392Z" fill="#52606D"/>
<path d="M3.776 159.392H2.336L2.72 155.824H7.84V154.8H1.712L1.136 160.416H3.52C6.368 160.416 7.264 161.312 7.264 162.752C7.264 164.112 6.256 165.04 4.352 165.04C2.912 165.04 1.632 164.496 0.912 163.744L0.352 164.656C1.216 165.536 2.752 166.096 4.368 166.096C7.104 166.096 8.432 164.608 8.432 162.704C8.432 160.72 7.152 159.392 3.776 159.392Z" fill="#52606D"/>
<path d="M5.296 216.096C7.888 216.096 9.776 213.968 9.776 210.4C9.776 206.832 7.888 204.704 5.296 204.704C2.704 204.704 0.832 206.832 0.832 210.4C0.832 213.968 2.704 216.096 5.296 216.096ZM5.296 215.04C3.344 215.04 2 213.392 2 210.4C2 207.408 3.344 205.76 5.296 205.76C7.248 205.76 8.592 207.408 8.592 210.4C8.592 213.392 7.248 215.04 5.296 215.04Z" fill="#52606D"/>
</svg>
