<svg width="287" height="214" viewBox="0 0 287 214" fill="none" xmlns="http://www.w3.org/2000/svg">
<path d="M286.5 187.273H0.5V187.416H286.5V187.273Z" fill="#EBEBEB"/>
<path d="M257.843 196.477H238.898V196.62H257.843V196.477Z" fill="#EBEBEB"/>
<path d="M189.957 198.031H184.987V198.174H189.957V198.031Z" fill="#EBEBEB"/>
<path d="M238.326 191.168H211.059V191.311H238.326V191.168Z" fill="#EBEBEB"/>
<path d="M44.0523 192.129H30.5073V192.272H44.0523V192.129Z" fill="#EBEBEB"/>
<path d="M63.9293 192.129H49.1431V192.272H63.9293V192.129Z" fill="#EBEBEB"/>
<path d="M112.675 194.543H75.7007V194.686H112.675V194.543Z" fill="#EBEBEB"/>
<path d="M136.064 161.762H25.6168C24.7516 161.76 23.9223 161.415 23.311 160.803C22.6998 160.191 22.3564 159.361 22.3564 158.495V3.23752C22.364 2.37725 22.7106 1.55468 23.3211 0.948501C23.9316 0.342318 24.7565 0.00147369 25.6168 0H136.064C136.931 0 137.761 0.344108 138.374 0.956624C138.986 1.56914 139.33 2.39989 139.33 3.26612V158.495C139.33 159.362 138.986 160.192 138.374 160.805C137.761 161.417 136.931 161.762 136.064 161.762ZM25.6168 0.1144C24.7895 0.115916 23.9966 0.445625 23.4122 1.03116C22.8277 1.61669 22.4994 2.41021 22.4994 3.23752V158.495C22.4994 159.323 22.8277 160.116 23.4122 160.702C23.9966 161.287 24.7895 161.617 25.6168 161.619H136.064C136.892 161.617 137.686 161.288 138.271 160.702C138.856 160.117 139.186 159.323 139.187 158.495V3.23752C139.186 2.40968 138.856 1.61618 138.271 1.03081C137.686 0.445439 136.892 0.115912 136.064 0.1144H25.6168Z" fill="#EBEBEB"/>
<path d="M259.794 161.762H149.34C148.475 161.76 147.645 161.415 147.033 160.803C146.42 160.191 146.076 159.361 146.074 158.495V3.23752C146.083 2.37672 146.431 1.55417 147.043 0.948143C147.654 0.342118 148.479 0.00145762 149.34 0H259.794C260.653 0.00297697 261.476 0.344487 262.086 0.950508C262.695 1.55653 263.041 2.37823 263.048 3.23752V158.495C263.048 159.36 262.706 160.189 262.096 160.801C261.486 161.413 260.658 161.759 259.794 161.762ZM149.34 0.1144C148.512 0.115912 147.719 0.445439 147.134 1.03081C146.548 1.61618 146.219 2.40968 146.217 3.23752V158.495C146.219 159.323 146.548 160.117 147.134 160.702C147.719 161.288 148.512 161.617 149.34 161.619H259.794C260.621 161.617 261.415 161.288 262 160.702C262.586 160.117 262.915 159.323 262.917 158.495V3.23752C262.915 2.40968 262.586 1.61618 262 1.03081C261.415 0.445439 260.621 0.115912 259.794 0.1144H149.34Z" fill="#EBEBEB"/>
<path d="M252.987 14.8711H162.628V187.272H252.987V14.8711Z" fill="#EBEBEB"/>
<path d="M246.265 20.4961H169.349V187.274H246.265V20.4961Z" fill="#F5F5F5"/>
<path d="M218.627 34.3242H197V40.3016H218.627V34.3242Z" fill="white"/>
<path d="M228.367 93.707H240.099C240.585 93.707 241.05 93.8999 241.394 94.2431C241.737 94.5864 241.93 95.052 241.93 95.5374C241.93 96.0229 241.737 96.4885 241.394 96.8317C241.05 97.175 240.585 97.3678 240.099 97.3678H228.367C227.882 97.3678 227.416 97.175 227.073 96.8317C226.73 96.4885 226.537 96.0229 226.537 95.5374C226.537 95.052 226.73 94.5864 227.073 94.2431C227.416 93.8999 227.882 93.707 228.367 93.707Z" fill="white"/>
<path d="M100.852 33.2148H40.7573V81.6461H100.852V33.2148Z" fill="#EBEBEB"/>
<path d="M97.6201 78.4205V36.4414H43.978V78.4205H97.6201Z" fill="#FAFAFA"/>
<path d="M91.3682 57.9843V55.9766H50.2356V57.9843H91.3682Z" fill="#E0E0E0"/>
<path d="M91.3682 62.5546V60.5469H50.2356V62.5546H91.3682Z" fill="#E0E0E0"/>
<path d="M91.3682 67.1171V65.1094H50.2356V67.1171H91.3682Z" fill="#E0E0E0"/>
<path d="M81.0547 71.6913V69.6836H60.5485V71.6913H81.0547Z" fill="#E0E0E0"/>
<path d="M50.2642 36.4409C50.2642 37.2653 50.1012 38.0816 49.7845 38.8427C49.4678 39.6039 49.0037 40.2949 48.4189 40.8759C47.8341 41.457 47.1401 41.9167 46.377 42.2285C45.6138 42.5404 44.7966 42.6982 43.9722 42.6929C42.8347 42.6957 41.7185 42.385 40.7461 41.7948V33.2148H49.3261C49.9273 34.1845 50.2517 35.3001 50.2642 36.4409Z" fill="#EBEBEB"/>
<path d="M100.851 33.2148V41.7948C99.6557 42.5141 98.2536 42.8127 96.8685 42.643C95.4834 42.4732 94.1949 41.845 93.2081 40.8582C92.2214 39.8715 91.5931 38.583 91.4234 37.1978C91.2536 35.8127 91.5522 34.4107 92.2715 33.2148H100.851Z" fill="#EBEBEB"/>
<path d="M50.2638 78.4242C50.2658 79.559 49.9572 80.6727 49.3715 81.6446H40.7915V73.0646C41.7405 72.4964 42.8232 72.1899 43.9292 72.1763C45.0352 72.1627 46.1251 72.4425 47.0878 72.9872C48.0505 73.5319 48.8516 74.322 49.4095 75.2771C49.9674 76.2322 50.2622 77.3181 50.2638 78.4242Z" fill="#EBEBEB"/>
<path d="M100.852 73.0611V81.6411H92.2716C91.6814 80.6708 91.3706 79.5564 91.3736 78.4207C91.3747 77.3131 91.6696 76.2256 92.2281 75.2692C92.7867 74.3127 93.5888 73.5214 94.5528 72.976C95.5169 72.4306 96.6083 72.1506 97.7158 72.1646C98.8233 72.1785 99.9073 72.4859 100.857 73.0554L100.852 73.0611Z" fill="#EBEBEB"/>
<path d="M76.0601 47.5242C76.5314 44.6211 74.56 41.8857 71.6569 41.4144C68.7538 40.9432 66.0183 42.9146 65.5471 45.8177C65.0759 48.7208 67.0473 51.4562 69.9504 51.9275C72.8535 52.3987 75.5889 50.4273 76.0601 47.5242Z" fill="#E0E0E0"/>
<path d="M148.385 122.77H109.752V187.274H148.385V122.77Z" fill="#F5F5F5"/>
<path d="M111.073 122.77H109.752V187.274H111.073V122.77Z" fill="#EBEBEB"/>
<path d="M113.945 114.016H76.8276V118.489H113.945V114.016Z" fill="#F0F0F0"/>
<path d="M113.95 114.543H96.8359V117.969H113.95V114.543Z" fill="#FAFAFA"/>
<path d="M143.5 213.102C204.751 213.102 254.405 210.203 254.405 206.627C254.405 203.051 204.751 200.152 143.5 200.152C82.2486 200.152 32.5947 203.051 32.5947 206.627C32.5947 210.203 82.2486 213.102 143.5 213.102Z" fill="#F5F5F5"/>
<path d="M195.386 166.578C205.394 166.578 213.507 158.465 213.507 148.457C213.507 138.449 205.394 130.336 195.386 130.336C185.378 130.336 177.265 138.449 177.265 148.457C177.265 158.465 185.378 166.578 195.386 166.578Z" fill="white"/>
<path d="M195.386 166.801C191.758 166.802 188.21 165.728 185.193 163.713C182.176 161.698 179.823 158.833 178.434 155.481C177.045 152.129 176.681 148.441 177.388 144.882C178.095 141.323 179.842 138.054 182.407 135.488C184.972 132.922 188.241 131.174 191.799 130.466C195.358 129.758 199.047 130.121 202.399 131.509C205.751 132.897 208.616 135.249 210.632 138.265C212.648 141.282 213.724 144.829 213.724 148.457C213.72 153.32 211.786 157.982 208.348 161.421C204.91 164.861 200.249 166.795 195.386 166.801ZM195.386 130.565C191.846 130.565 188.385 131.615 185.442 133.582C182.498 135.549 180.204 138.344 178.85 141.615C177.495 144.886 177.141 148.485 177.832 151.957C178.523 155.429 180.229 158.618 182.732 161.121C185.236 163.624 188.425 165.328 191.898 166.018C195.37 166.708 198.969 166.352 202.239 164.997C205.509 163.641 208.304 161.346 210.27 158.402C212.236 155.458 213.285 151.997 213.284 148.457C213.279 143.712 211.392 139.163 208.036 135.809C204.681 132.454 200.131 130.568 195.386 130.565Z" fill="#007FDD"/>
<path d="M198.303 138.184H192.469V158.73H198.303V138.184Z" fill="#007FDD"/>
<path d="M205.659 151.381V145.547H185.113V151.381H205.659Z" fill="#007FDD"/>
<path d="M72.6351 11.4804L72.2461 11.0629C74.8939 8.55983 78.2538 6.94087 81.8614 6.42969L81.9415 7.00169C78.4502 7.49407 75.1981 9.05914 72.6351 11.4804Z" fill="#007FDD"/>
<path d="M68.4021 17.7314L67.8701 17.5255C68.4475 16.0683 69.217 14.6948 70.1581 13.4414L70.6157 13.7846C69.7082 14.9976 68.9639 16.3245 68.4021 17.7314Z" fill="#007FDD"/>
<path d="M84.3612 39.6453C93.0297 39.6453 100.057 32.6181 100.057 23.9496C100.057 15.2811 93.0297 8.25391 84.3612 8.25391C75.6927 8.25391 68.6655 15.2811 68.6655 23.9496C68.6655 32.6181 75.6927 39.6453 84.3612 39.6453Z" fill="#007FDD"/>
<path d="M93.736 16.8785C93.1314 16.251 92.4079 15.7503 91.6076 15.4056C90.8073 15.061 89.9463 14.8794 89.075 14.8714C88.2037 14.8634 87.3395 15.0292 86.533 15.3591C85.7266 15.689 84.9939 16.1764 84.378 16.7927C83.7626 16.1765 83.0305 15.6893 82.2245 15.3594C81.4185 15.0296 80.5548 14.8638 79.6839 14.8718C78.8131 14.8798 77.9526 15.0614 77.1527 15.406C76.3529 15.7505 75.6298 16.2512 75.0258 16.8785C73.8421 18.159 73.2044 19.8505 73.2482 21.5937C73.292 23.3368 74.0139 24.9942 75.2604 26.2136L82.6964 33.6496C82.9194 33.8727 83.1843 34.0497 83.4758 34.1704C83.7673 34.2912 84.0797 34.3533 84.3952 34.3533C84.7107 34.3533 85.0231 34.2912 85.3146 34.1704C85.6061 34.0497 85.8709 33.8727 86.094 33.6496L93.53 26.2136C94.7726 24.9904 95.4892 23.331 95.5277 21.5879C95.5661 19.8447 94.9234 18.1553 93.736 16.8785Z" fill="white"/>
<path d="M84.361 30.8107C84.2458 30.8068 84.1344 30.768 84.0415 30.6997C83.9486 30.6313 83.8785 30.5364 83.8405 30.4275L80.5287 20.7435L79.1444 24.7933C79.1051 24.9058 79.0315 25.0032 78.9341 25.072C78.8367 25.1407 78.7202 25.1772 78.601 25.1765H73.0583C72.9066 25.1765 72.7611 25.1162 72.6539 25.009C72.5466 24.9017 72.4863 24.7562 72.4863 24.6045C72.4863 24.4528 72.5466 24.3073 72.6539 24.2C72.7611 24.0928 72.9066 24.0325 73.0583 24.0325H78.2063L80.0024 18.7873C80.0413 18.6749 80.1143 18.5774 80.2112 18.5084C80.308 18.4394 80.424 18.4023 80.5429 18.4023C80.6619 18.4023 80.7779 18.4394 80.8747 18.5084C80.9716 18.5774 81.0446 18.6749 81.0835 18.7873L84.4526 28.6428L87.7244 20.938C87.7658 20.8398 87.8337 20.7551 87.9206 20.6934C88.0076 20.6318 88.11 20.5956 88.2163 20.5891C88.3234 20.5829 88.4301 20.607 88.5242 20.6586C88.6182 20.7102 88.6959 20.7872 88.7483 20.8808L90.4757 24.0268H95.6866C95.8384 24.0268 95.9838 24.087 96.0911 24.1943C96.1984 24.3016 96.2586 24.4471 96.2586 24.5988C96.2586 24.7505 96.1984 24.896 96.0911 25.0032C95.9838 25.1105 95.8384 25.1708 95.6866 25.1708H90.144C90.0416 25.1716 89.941 25.145 89.8524 25.0937C89.7639 25.0424 89.6907 24.9683 89.6406 24.8791L88.285 22.4538L84.8873 30.4618C84.8435 30.5652 84.7702 30.6534 84.6767 30.7154C84.5831 30.7775 84.4733 30.8106 84.361 30.8107Z" fill="#007FDD"/>
<path d="M171.448 186.583H111.748C110.776 186.594 109.811 186.402 108.916 186.02C108.022 185.638 107.216 185.074 106.551 184.364C105.887 183.654 105.377 182.813 105.054 181.895C104.732 180.977 104.604 180.003 104.678 179.033L114.328 36.0326C114.497 33.9903 115.418 32.0837 116.914 30.683C118.41 29.2824 120.373 28.4878 122.422 28.4536H182.133C183.108 28.4424 184.075 28.6349 184.972 29.0187C185.869 29.4024 186.676 29.969 187.341 30.6823C188.006 31.3956 188.516 32.2398 188.836 33.1611C189.157 34.0823 189.282 35.0603 189.203 36.0326L179.536 179.033C179.362 181.069 178.439 182.969 176.944 184.364C175.45 185.758 173.492 186.549 171.448 186.583Z" fill="#263238"/>
<path d="M184.684 86.6899H183.18C182.907 86.6932 182.637 86.6396 182.387 86.5325C182.136 86.4254 181.911 86.2671 181.725 86.0679C181.539 85.8687 181.397 85.6328 181.308 85.3755C181.219 85.1182 181.184 84.845 181.206 84.5735L183.054 57.2376C183.097 56.666 183.353 56.1312 183.771 55.7393C184.19 55.3474 184.74 55.1268 185.313 55.1212H186.818C187.09 55.1179 187.36 55.1716 187.611 55.2787C187.861 55.3858 188.086 55.544 188.272 55.7432C188.458 55.9425 188.6 56.1783 188.689 56.4357C188.779 56.693 188.813 56.9662 188.791 57.2376L186.943 84.5735C186.9 85.1452 186.644 85.6799 186.226 86.0719C185.808 86.4638 185.257 86.6844 184.684 86.6899Z" fill="#263238"/>
<path d="M113.459 68.4532H111.96C111.739 68.4561 111.519 68.413 111.314 68.3265C111.11 68.24 110.926 68.1121 110.774 67.9507C110.622 67.7894 110.505 67.5983 110.43 67.3894C110.356 67.1805 110.326 66.9584 110.342 66.7372L111.011 56.8645C111.053 56.401 111.265 55.9694 111.606 55.6527C111.947 55.336 112.393 55.1564 112.858 55.1485H114.363C114.584 55.1472 114.803 55.1915 115.006 55.2786C115.209 55.3658 115.392 55.4938 115.543 55.6549C115.695 55.8159 115.811 56.0065 115.886 56.2146C115.96 56.4227 115.991 56.6439 115.976 56.8645L115.306 66.7372C115.265 67.2011 115.054 67.6334 114.713 67.9504C114.371 68.2673 113.925 68.4465 113.459 68.4532Z" fill="#007FDD"/>
<path d="M112.269 86.0821H110.765C110.543 86.0842 110.324 86.0405 110.12 85.9537C109.917 85.8668 109.734 85.7387 109.582 85.5775C109.431 85.4163 109.314 85.2254 109.24 85.0169C109.166 84.8084 109.136 84.5868 109.152 84.3661L109.821 74.4934C109.863 74.0299 110.075 73.5983 110.416 73.2816C110.757 72.9649 111.203 72.7853 111.668 72.7774H113.184C113.405 72.7761 113.624 72.8204 113.827 72.9075C114.03 72.9947 114.213 73.1227 114.365 73.2838C114.516 73.4448 114.633 73.6354 114.707 73.8435C114.781 74.0516 114.812 74.2729 114.797 74.4934L114.128 84.3661C114.087 84.832 113.874 85.2658 113.53 85.5831C113.186 85.9003 112.737 86.0782 112.269 86.0821Z" fill="#007FDD"/>
<path d="M170.184 186.584H110.484C109.511 186.594 108.547 186.403 107.652 186.021C106.758 185.639 105.952 185.075 105.287 184.364C104.622 183.654 104.113 182.814 103.79 181.896C103.468 180.978 103.34 180.003 103.414 179.033L113.07 36.0331C113.244 33.9901 114.172 32.0851 115.673 30.6885C117.175 29.2919 119.142 28.5036 121.192 28.477H180.869C181.842 28.4661 182.807 28.658 183.702 29.0404C184.597 29.4227 185.403 29.9873 186.068 30.698C186.733 31.4088 187.243 32.2502 187.565 33.1687C187.887 34.0872 188.014 35.0627 187.939 36.0331L178.278 179.033C178.104 181.071 177.179 182.971 175.684 184.366C174.189 185.761 172.229 186.551 170.184 186.584Z" fill="#007FDD"/>
<path opacity="0.3" d="M104.043 177.428L113.47 37.8828H187.292L177.866 177.428H104.043Z" fill="white"/>
<path opacity="0.1" d="M133.187 177.428L159.533 37.8828H176.07L149.724 177.428H133.187Z" fill="white"/>
<path opacity="0.1" d="M120.694 177.428L147.041 37.8828H155.42L129.074 177.428H120.694Z" fill="white"/>
<path d="M143.581 31.9845H157.978C158.098 31.9824 158.217 32.0057 158.328 32.0526C158.438 32.0996 158.538 32.1693 158.62 32.2572C158.702 32.3451 158.764 32.4493 158.804 32.5629C158.843 32.6765 158.858 32.7971 158.847 32.9169C158.827 33.1689 158.714 33.4045 158.531 33.5779C158.347 33.7513 158.105 33.85 157.852 33.8549H143.455C143.334 33.8562 143.215 33.8322 143.104 33.7846C142.994 33.737 142.894 33.6667 142.812 33.5784C142.73 33.4901 142.668 33.3856 142.629 33.2716C142.59 33.1577 142.575 33.0369 142.585 32.9169C142.605 32.6654 142.718 32.4304 142.902 32.258C143.086 32.0855 143.328 31.988 143.581 31.9845Z" fill="white"/>
<path d="M140.583 200.341L135.538 200.822L133.719 189.181L138.764 188.695L140.583 200.341Z" fill="#FFB573"/>
<path d="M134.96 198.354L140.245 196.712C140.336 196.68 140.436 196.685 140.524 196.726C140.611 196.766 140.68 196.839 140.714 196.929L142.43 201.122C142.473 201.235 142.492 201.355 142.486 201.475C142.48 201.595 142.449 201.712 142.395 201.82C142.341 201.927 142.266 202.022 142.174 202.099C142.081 202.176 141.974 202.233 141.858 202.266C139.948 202.838 138.129 202.97 135.824 203.982C133.13 205.126 132.003 206.659 129.103 206.659C127.026 206.659 126.557 204.754 127.438 204.491C131.442 203.279 130.916 202.283 133.822 199.154C134.124 198.792 134.517 198.516 134.96 198.354Z" fill="#263238"/>
<path opacity="0.2" d="M133.719 189.181L134.657 195.187L139.708 194.701L138.77 188.695L133.719 189.181Z" fill="black"/>
<path d="M137.368 42.096C130.75 41.3181 124.166 41.8386 117.56 43.1199C116.459 43.3336 115.455 43.8923 114.693 44.7151C113.93 45.5378 113.45 46.5819 113.321 47.6959C112.606 54.0222 111.788 68.2021 114.98 89.3547L142.024 87.0667C142.076 83.2285 139.347 65.7425 141.601 47.5987C141.693 46.9582 141.656 46.3057 141.492 45.6797C141.328 45.0538 141.04 44.467 140.646 43.9541C140.251 43.4412 139.758 43.0125 139.195 42.6934C138.632 42.3743 138.011 42.1712 137.368 42.096Z" fill="white"/>
<path d="M121.621 47.5156L122.588 49.449C122.633 49.5466 122.705 49.6294 122.795 49.6881C122.885 49.7468 122.989 49.7789 123.097 49.7808L124.144 49.838C124.33 49.8461 124.514 49.7895 124.664 49.6778L126.466 48.3336L124.241 46.7148L121.621 47.5156Z" fill="#263238"/>
<path d="M124.178 49.2843C123.796 49.1076 123.364 49.0731 122.96 49.1871C122.107 52.1901 121.175 60.8101 121.078 64.6311C123.663 72.1643 124.51 72.9251 124.51 72.9251L125.82 63.8589C125.82 63.8589 124.349 54.5868 124.178 49.2843Z" fill="#263238"/>
<path d="M131.643 29.0508C131.025 32.7802 130.499 39.5927 133.176 42.0009C131.214 44.0601 128.645 46.4453 124.241 46.7141C119.837 46.983 120.517 43.9342 121.633 42.304C125.745 41.2058 125.545 38.1399 124.739 35.2741L131.643 29.0508Z" fill="#FFB573"/>
<path d="M134.297 41.6789C133.985 41.5444 133.662 41.4391 133.33 41.3643C133.249 41.3429 133.163 41.3486 133.086 41.3806C133.008 41.4127 132.944 41.4692 132.901 41.5416C132.478 42.2623 131.185 45.4827 124.241 46.7182C125.385 47.3932 126.901 49.4867 127.553 50.4934C129.635 49.4123 135.052 46.1805 134.537 41.9992C134.527 41.9302 134.499 41.8648 134.457 41.8089C134.415 41.753 134.36 41.7083 134.297 41.6789Z" fill="#F5F5F5"/>
<path d="M121.673 42.4804C121.687 42.4153 121.685 42.3476 121.667 42.2834C121.649 42.2193 121.615 42.1606 121.569 42.1129C121.522 42.0652 121.464 42.0298 121.4 42.0101C121.337 41.9904 121.269 41.9869 121.204 41.9999C120.963 42.0466 120.726 42.1097 120.494 42.1887C120.441 42.2097 120.391 42.2386 120.346 42.2745C119.814 42.7664 116.914 46.9535 119.631 50.3397C120.203 49.4188 122.176 47.331 124.241 46.7189C122.285 45.8381 121.324 44.1964 121.673 42.4804Z" fill="#F5F5F5"/>
<path opacity="0.2" d="M128.828 31.5938L124.744 35.2774C124.941 35.9428 125.079 36.6242 125.156 37.3138C126.735 37.0449 128.857 35.2546 128.971 33.5958C129.049 32.9253 129 32.2464 128.828 31.5938Z" fill="black"/>
<path d="M123.371 17.779C119.848 19.1575 119.619 22.0518 119.939 25.215C120.26 28.3781 123.703 26.2846 124.47 24.3055C125.236 22.3264 128.251 15.8685 123.371 17.779Z" fill="#263238"/>
<path d="M134.611 24.0905C133.633 29.0726 133.307 32.0299 130.458 34.3236C126.163 37.7556 120.345 34.7926 119.831 29.6561C119.367 25.0286 121.043 17.6441 126.174 16.2026C127.293 15.8732 128.478 15.8414 129.613 16.1104C130.748 16.3794 131.794 16.9399 132.646 17.7365C133.498 18.5331 134.127 19.5383 134.472 20.6526C134.817 21.767 134.864 22.952 134.611 24.0905Z" fill="#FFB573"/>
<path d="M134.405 28.213C130.212 28.436 131.099 26.0565 131.86 24.6894C132.621 23.3224 131.07 21.063 132.083 19.8904C130.275 20.6111 128.371 20.0162 125.951 18.3345C124.075 17.0246 121.724 22.2584 119.436 19.633C117.274 17.1562 119.282 13.421 124.475 12.8204C129.669 12.2198 130.613 15.8921 134.022 15.566C137.431 15.24 136.247 18.0485 135.578 18.6205C138.438 18.8093 139.999 21.5434 134.405 28.213Z" fill="#263238"/>
<path d="M134.92 18.9676C135.576 18.6078 136.124 18.0792 136.507 17.4366C136.891 16.794 137.095 16.0607 137.1 15.3125C138.232 17.2973 138.112 19.551 134.92 18.9676Z" fill="#263238"/>
<path d="M124.052 29.4067C124.508 29.4856 124.975 29.4715 125.425 29.3654C125.875 29.2592 126.299 29.0631 126.672 28.789C126.683 28.7783 126.692 28.7654 126.698 28.7511C126.704 28.7369 126.707 28.7215 126.707 28.706C126.707 28.6905 126.704 28.6751 126.698 28.6609C126.692 28.6466 126.683 28.6338 126.672 28.6231C126.649 28.6017 126.62 28.5898 126.589 28.5898C126.558 28.5898 126.528 28.6017 126.506 28.6231C126.089 28.9188 125.609 29.1135 125.103 29.1919C124.598 29.2703 124.082 29.2303 123.594 29.075C123.563 29.0672 123.53 29.0711 123.502 29.0858C123.474 29.1006 123.452 29.1252 123.44 29.155C123.431 29.1854 123.434 29.218 123.449 29.2458C123.464 29.2737 123.49 29.2945 123.52 29.3038C123.694 29.3539 123.872 29.3884 124.052 29.4067Z" fill="#263238"/>
<path d="M135.624 29.7385C134.84 30.7478 133.692 31.4093 132.426 31.5804C130.762 31.7977 130.207 30.2476 130.905 28.8004C131.54 27.4963 133.193 25.8146 134.726 26.2665C136.259 26.7184 136.585 28.4801 135.624 29.7385Z" fill="#FFB573"/>
<path d="M133.97 138.058C134.171 123.123 136.081 87.5508 136.081 87.5508L114.997 89.3297C114.997 89.3297 119.19 125.989 121.718 141.227C124.349 157.066 132.42 194.172 132.42 194.172L141 193.439C141 193.439 137.866 149.607 133.97 138.058Z" fill="#263238"/>
<path d="M131.906 194.409L142.081 193.545L141.681 190.262L131.076 190.971L131.906 194.409Z" fill="#007FDD"/>
<path d="M127.095 24.3868C127.044 24.7929 126.78 25.1018 126.523 25.0732C126.266 25.0446 126.088 24.6899 126.146 24.2781C126.203 23.8663 126.46 23.5631 126.718 23.5917C126.975 23.6203 127.152 23.9807 127.095 24.3868Z" fill="#263238"/>
<path d="M122.428 24.0178C122.376 24.4296 122.113 24.7328 121.856 24.7042C121.598 24.6756 121.421 24.3209 121.478 23.9148C121.535 23.5087 121.793 23.1998 122.05 23.2284C122.307 23.257 122.485 23.5888 122.428 24.0178Z" fill="#263238"/>
<path d="M123.743 24.5C123.054 25.5585 122.227 26.5203 121.284 27.36C121.89 27.9949 123.143 27.8233 123.143 27.8233L123.743 24.5Z" fill="#ED893E"/>
<path opacity="0.4" d="M119.476 24.125C119.39 24.7771 120.048 25.3205 120.958 25.4349C121.867 25.5493 122.708 25.0516 122.788 24.3996" fill="#007FDD"/>
<path opacity="0.4" d="M124.882 24.7266C124.756 25.3729 125.391 25.9564 126.283 26.128C127.175 26.2996 128.051 25.842 128.171 25.2013" fill="#007FDD"/>
<path d="M126.637 26.3084C126.535 26.3141 126.431 26.3141 126.329 26.3084C125.889 26.2558 125.476 26.0702 125.145 25.7764C125 25.6528 124.887 25.4964 124.816 25.3203C124.744 25.1441 124.715 24.9534 124.733 24.764C124.442 24.6376 124.133 24.5603 123.818 24.5352C123.5 24.456 123.168 24.456 122.851 24.5352C122.771 25.233 121.901 25.7135 120.929 25.5934C120.489 25.5453 120.075 25.3614 119.745 25.0671C119.601 24.943 119.489 24.7865 119.417 24.6105C119.346 24.4345 119.317 24.244 119.333 24.0547L119.608 24.089C119.596 24.2353 119.62 24.3822 119.676 24.5175C119.733 24.6528 119.821 24.7726 119.934 24.8669C120.222 25.1205 120.582 25.2784 120.963 25.3188C121.787 25.4275 122.519 25.0442 122.593 24.4722C122.633 24.1519 123.297 24.1748 123.846 24.2434C124.395 24.3121 125.047 24.4665 124.99 24.7811C124.978 24.9274 125.001 25.0745 125.058 25.2099C125.115 25.3453 125.203 25.465 125.316 25.5591C125.608 25.8093 125.966 25.9686 126.348 26.0174C126.729 26.0662 127.116 26.0023 127.461 25.8336C127.594 25.7716 127.711 25.6784 127.8 25.5619C127.89 25.4454 127.95 25.3091 127.976 25.1644V25.0271L135.034 25.9366L135 26.2111L128.205 25.336C128.155 25.4952 128.074 25.6427 127.966 25.7695C127.858 25.8964 127.725 25.9999 127.576 26.0738C127.286 26.2268 126.965 26.3073 126.637 26.3084Z" fill="#263238"/>
<path d="M128.891 22.591C128.932 22.5911 128.972 22.5792 129.006 22.5567C129.061 22.5243 129.102 22.4715 129.119 22.4095C129.136 22.3475 129.128 22.2812 129.097 22.2249C128.92 21.8922 128.663 21.6085 128.35 21.399C128.037 21.1894 127.676 21.0605 127.301 21.0237C127.237 21.0206 127.174 21.0428 127.126 21.0856C127.078 21.1283 127.048 21.1883 127.044 21.2525C127.041 21.3153 127.062 21.3769 127.104 21.4239C127.146 21.471 127.204 21.4998 127.267 21.5042C127.564 21.5391 127.848 21.6458 128.094 21.8153C128.34 21.9848 128.541 22.2118 128.68 22.4766C128.701 22.513 128.732 22.5429 128.77 22.563C128.807 22.5832 128.849 22.5928 128.891 22.591Z" fill="#263238"/>
<path d="M120.918 21.943C120.957 21.9469 120.997 21.9411 121.034 21.9261C121.071 21.9112 121.104 21.8875 121.129 21.8572C121.314 21.615 121.553 21.4195 121.828 21.2864C122.102 21.1532 122.403 21.0862 122.708 21.0907C122.74 21.0938 122.771 21.0907 122.802 21.0815C122.832 21.0722 122.86 21.0571 122.885 21.0369C122.909 21.0167 122.93 20.9918 122.944 20.9637C122.959 20.9357 122.968 20.9049 122.971 20.8733C122.975 20.8425 122.973 20.8112 122.965 20.7812C122.956 20.7512 122.942 20.7232 122.923 20.6987C122.904 20.6742 122.88 20.6538 122.853 20.6386C122.826 20.6234 122.796 20.6138 122.765 20.6102C122.381 20.6002 122 20.6803 121.652 20.8442C121.304 21.0081 121 21.2512 120.763 21.554C120.722 21.6026 120.703 21.6654 120.708 21.7287C120.713 21.7919 120.743 21.8504 120.792 21.8915C120.829 21.9183 120.872 21.936 120.918 21.943Z" fill="#263238"/>
<path d="M151.537 135.651C147.161 113.16 146.177 95.5712 142.024 87.0312L121.598 89.3192C121.598 89.3192 133.765 122.833 139.708 137.138C145.88 152.01 158.063 177.419 158.063 177.419H168.268C168.268 177.419 158.744 145.896 151.537 135.651Z" fill="#263238"/>
<path d="M86.7921 50.5095L84.5841 49.1138C84.2258 48.8829 83.7984 48.7835 83.3749 48.8325C82.9514 48.8816 82.558 49.076 82.2618 49.3826L80.7632 50.9614C80.6018 51.1317 80.477 51.3334 80.3967 51.5539C80.3163 51.7745 80.2821 52.0091 80.296 52.2434C80.3099 52.4777 80.3718 52.7066 80.4777 52.916C80.5837 53.1255 80.7314 53.311 80.9119 53.461L81.9815 54.3762C82.9119 55.1646 83.9973 55.7492 85.1676 56.0922L88.3994 57.0474L90.5215 54.7594C91.1679 52.3742 86.7921 50.5095 86.7921 50.5095Z" fill="#FFB573"/>
<path d="M119.476 49.4418C118.675 51.398 117.891 53.2169 117.039 55.0759C116.187 56.9349 115.323 58.7711 114.368 60.5958C113.413 62.4204 112.395 64.2337 111.239 66.0526C110.667 66.9564 110.032 67.8602 109.311 68.7696C108.537 69.7725 107.654 70.6874 106.68 71.4981C106.037 72.0237 105.327 72.4622 104.57 72.8022C104.329 72.8938 104.106 72.9853 103.843 73.0654L103.443 73.174C103.241 73.2235 103.037 73.2598 102.831 73.2827C102.133 73.3613 101.428 73.3109 100.749 73.134C99.8997 72.8964 99.093 72.5278 98.3577 72.0415C97.8069 71.6978 97.2813 71.3155 96.7847 70.8975C95.1339 69.4562 93.6123 67.8734 92.2373 66.167C90.9045 64.5654 89.6461 62.9581 88.4392 61.3165C87.2323 59.6748 86.0711 58.0618 84.8813 56.3401L91.2077 52.256C93.2041 55.4787 95.4131 58.5648 97.82 61.4938C98.9264 62.8505 100.145 64.1114 101.464 65.2633C101.719 65.4722 101.988 65.6634 102.27 65.8353C102.482 65.9783 102.693 66.0355 102.545 65.984C102.344 65.9287 102.133 65.917 101.927 65.9497C101.844 65.9573 101.761 65.9727 101.681 65.9954H101.635C101.607 65.9954 101.607 65.9954 101.601 65.9954C101.731 65.9105 101.855 65.8168 101.973 65.7152C102.495 65.2412 102.968 64.7162 103.386 64.1479C103.872 63.4958 104.358 62.7636 104.821 62.0029C105.768 60.4211 106.631 58.7906 107.407 57.118C108.208 55.402 108.98 53.686 109.695 51.9014C110.41 50.1167 111.09 48.3035 111.668 46.5703L119.476 49.4418Z" fill="#007FDD"/>
<g opacity="0.6">
<path d="M119.476 49.4418C118.675 51.398 117.891 53.2169 117.039 55.0759C116.187 56.9349 115.323 58.7711 114.368 60.5958C113.413 62.4204 112.395 64.2337 111.239 66.0526C110.667 66.9564 110.032 67.8602 109.311 68.7696C108.537 69.7725 107.654 70.6874 106.68 71.4981C106.037 72.0237 105.327 72.4622 104.57 72.8022C104.329 72.8938 104.106 72.9853 103.843 73.0654L103.443 73.174C103.241 73.2235 103.037 73.2598 102.831 73.2827C102.133 73.3613 101.428 73.3109 100.749 73.134C99.8997 72.8964 99.093 72.5278 98.3577 72.0415C97.8069 71.6978 97.2813 71.3155 96.7847 70.8975C95.1339 69.4562 93.6123 67.8734 92.2373 66.167C90.9045 64.5654 89.6461 62.9581 88.4392 61.3165C87.2323 59.6748 86.0711 58.0618 84.8813 56.3401L91.2077 52.256C93.2041 55.4787 95.4131 58.5648 97.82 61.4938C98.9264 62.8505 100.145 64.1114 101.464 65.2633C101.719 65.4722 101.988 65.6634 102.27 65.8353C102.482 65.9783 102.693 66.0355 102.545 65.984C102.344 65.9287 102.133 65.917 101.927 65.9497C101.844 65.9573 101.761 65.9727 101.681 65.9954H101.635C101.607 65.9954 101.607 65.9954 101.601 65.9954C101.731 65.9105 101.855 65.8168 101.973 65.7152C102.495 65.2412 102.968 64.7162 103.386 64.1479C103.872 63.4958 104.358 62.7636 104.821 62.0029C105.768 60.4211 106.631 58.7906 107.407 57.118C108.208 55.402 108.98 53.686 109.695 51.9014C110.41 50.1167 111.09 48.3035 111.668 46.5703L119.476 49.4418Z" fill="white"/>
</g>
<path d="M134.451 40.6596C132.306 44.6636 124.67 59.9188 123.743 69.3339C120.363 60.7539 121.101 41.775 121.101 41.775C118.691 42.0098 116.328 42.5876 114.082 43.491C113.358 43.7884 112.731 44.2803 112.27 44.9123C111.808 45.5443 111.531 46.2917 111.468 47.0717C110.81 56.8919 111.12 66.7532 112.395 76.5126C114.769 94.9881 116.971 123.72 116.971 123.72C116.971 123.72 135.875 122.93 150.461 119.853C148.682 105.73 142.596 82.0609 142.539 75.7232C142.47 67.5665 142.659 51.6191 142.917 44.961C142.96 44.021 142.665 43.0966 142.086 42.3548C141.507 41.6131 140.682 41.1031 139.759 40.917C138.009 40.5927 136.224 40.5061 134.451 40.6596Z" fill="#007FDD"/>
<path opacity="0.7" d="M134.451 40.6606C132.306 44.6646 124.67 59.9199 123.743 69.335C120.363 60.755 121.101 41.776 121.101 41.776C118.691 42.0109 116.328 42.5887 114.082 43.492C113.358 43.7894 112.731 44.2814 112.27 44.9134C111.808 45.5454 111.531 46.2928 111.468 47.0728C110.81 56.893 111.12 66.7542 112.395 76.5136C114.769 94.9892 116.971 123.721 116.971 123.721C116.971 123.721 135.875 122.931 150.461 119.854C148.682 105.731 142.596 82.062 142.539 75.7243C142.47 67.5675 142.659 51.6145 142.917 44.9564C142.971 44.0449 142.701 43.1437 142.156 42.4112C141.611 41.6788 140.825 41.1622 139.937 40.9524C138.131 40.5984 136.284 40.5002 134.451 40.6606Z" fill="white"/>
<path d="M129.995 120.651C126.712 102.536 124.109 75.9553 123.897 72.7578H124.189C124.401 75.9553 127.009 102.502 130.287 120.617L129.995 120.651Z" fill="white"/>
<path d="M128.359 88.4265H110.925C110.573 88.4107 110.235 88.2811 109.963 88.0573C109.691 87.8336 109.498 87.5276 109.415 87.1853L103.586 60.0896C103.543 59.9417 103.536 59.7858 103.566 59.6347C103.595 59.4836 103.66 59.3416 103.755 59.2204C103.85 59.0992 103.972 59.0023 104.112 58.9376C104.251 58.8729 104.405 58.8424 104.558 58.8484H121.987C122.34 58.8631 122.679 58.992 122.952 59.2159C123.226 59.4398 123.419 59.7464 123.503 60.0896L129.332 87.1853C129.374 87.3332 129.381 87.4891 129.352 87.6402C129.323 87.7914 129.258 87.9334 129.163 88.0545C129.068 88.1757 128.946 88.2726 128.806 88.3373C128.666 88.402 128.513 88.4326 128.359 88.4265Z" fill="white"/>
<path d="M127.816 88.6564H110.084C109.725 88.6397 109.382 88.5076 109.104 88.2798C108.827 88.052 108.631 87.7407 108.545 87.3923L102.613 59.839C102.571 59.688 102.565 59.5291 102.595 59.3753C102.626 59.2215 102.692 59.077 102.789 58.9538C102.886 58.8306 103.011 58.732 103.154 58.6662C103.296 58.6003 103.452 58.5691 103.609 58.5749H121.341C121.699 58.5916 122.043 58.7237 122.32 58.9515C122.597 59.1793 122.793 59.4906 122.879 59.839L128.805 87.3923C128.849 87.5429 128.856 87.7016 128.826 87.8556C128.797 88.0095 128.731 88.1541 128.634 88.2776C128.537 88.401 128.413 88.4997 128.27 88.5656C128.128 88.6315 127.972 88.6626 127.816 88.6564Z" fill="#007FDD"/>
<path d="M129.846 73.1095L125.436 72.9436C124.906 72.9254 124.378 73.0189 123.886 73.2182L121.598 74.1334C121.384 74.2184 121.188 74.3459 121.024 74.5082C120.86 74.6705 120.73 74.8642 120.642 75.0778C120.555 75.2915 120.511 75.5206 120.514 75.7514C120.517 75.9823 120.567 76.2102 120.66 76.4214L121.575 78.4005C121.76 78.7844 122.071 79.0929 122.457 79.2742C122.842 79.4554 123.278 79.4984 123.692 79.3958L126.214 78.7666C126.214 78.7666 130.95 78.3891 131.122 75.9066L129.846 73.1095Z" fill="#FFB573"/>
<path d="M142.024 43.1133C143.117 44.8293 144.118 46.3966 145.102 48.0782C146.086 49.7599 147.052 51.4244 147.962 53.1633C148.871 54.9022 149.735 56.6983 150.519 58.6202C150.926 59.6267 151.273 60.6561 151.56 61.7033C151.928 62.9795 152.098 64.305 152.063 65.6329V65.856C152.065 65.8941 152.065 65.9323 152.063 65.9704C152.063 66.1763 152.006 66.3822 151.966 66.5882C151.926 66.7941 151.874 66.9542 151.817 67.1602C151.76 67.3661 151.697 67.4748 151.634 67.6349C151.415 68.1298 151.135 68.595 150.799 69.0192C150.332 69.6031 149.8 70.1327 149.214 70.5979C148.315 71.3065 147.358 71.9398 146.354 72.4912C144.589 73.4567 142.771 74.3237 140.909 75.0881C139.107 75.8546 137.311 76.5524 135.504 77.2102C133.696 77.868 131.917 78.5029 130.035 79.1321L127.856 71.9249C129.572 71.4559 131.322 70.8782 133.033 70.2947C134.743 69.7113 136.465 69.0592 138.089 68.3785C139.683 67.7199 141.238 66.9693 142.745 66.1306C143.381 65.778 143.988 65.3744 144.558 64.9236C144.708 64.8099 144.843 64.6773 144.959 64.529C144.91 64.5844 144.871 64.6484 144.844 64.7177C144.844 64.7692 144.816 64.8035 144.787 64.8664C144.765 64.9336 144.747 65.0025 144.736 65.0724C144.712 65.1603 144.696 65.2503 144.69 65.3412C144.69 65.3755 144.69 65.3812 144.69 65.3698V65.3298C144.65 64.787 144.544 64.2512 144.375 63.7339C144.147 62.985 143.875 62.2497 143.563 61.5317C142.864 59.9484 142.073 58.4071 141.195 56.9156C140.303 55.3827 139.353 53.8497 138.335 52.3396C137.317 50.8296 136.276 49.3252 135.229 47.9524L142.024 43.1133Z" fill="#007FDD"/>
<g opacity="0.7">
<path d="M142.024 43.1133C143.117 44.8293 144.118 46.3966 145.102 48.0782C146.086 49.7599 147.052 51.4244 147.962 53.1633C148.871 54.9022 149.735 56.6983 150.519 58.6202C150.926 59.6267 151.273 60.6561 151.56 61.7033C151.928 62.9795 152.098 64.305 152.063 65.6329V65.856C152.065 65.8941 152.065 65.9323 152.063 65.9704C152.063 66.1763 152.006 66.3822 151.966 66.5882C151.926 66.7941 151.874 66.9542 151.817 67.1602C151.76 67.3661 151.697 67.4748 151.634 67.6349C151.415 68.1298 151.135 68.595 150.799 69.0192C150.332 69.6031 149.8 70.1327 149.214 70.5979C148.315 71.3065 147.358 71.9398 146.354 72.4912C144.589 73.4567 142.771 74.3237 140.909 75.0881C139.107 75.8546 137.311 76.5524 135.504 77.2102C133.696 77.868 131.917 78.5029 130.035 79.1321L127.856 71.9249C129.572 71.4559 131.322 70.8782 133.033 70.2947C134.743 69.7113 136.465 69.0592 138.089 68.3785C139.683 67.7199 141.238 66.9693 142.745 66.1306C143.381 65.778 143.988 65.3744 144.558 64.9236C144.708 64.8099 144.843 64.6773 144.959 64.529C144.91 64.5844 144.871 64.6484 144.844 64.7177C144.844 64.7692 144.816 64.8035 144.787 64.8664C144.765 64.9336 144.747 65.0025 144.736 65.0724C144.712 65.1603 144.696 65.2503 144.69 65.3412C144.69 65.3755 144.69 65.3812 144.69 65.3698V65.3298C144.65 64.787 144.544 64.2512 144.375 63.7339C144.147 62.985 143.875 62.2497 143.563 61.5317C142.864 59.9484 142.073 58.4071 141.195 56.9156C140.303 55.3827 139.353 53.8497 138.335 52.3396C137.317 50.8296 136.276 49.3252 135.229 47.9524L142.024 43.1133Z" fill="white"/>
</g>
<path d="M136.236 62.9606C136.198 62.9601 136.16 62.9499 136.127 62.9309C136.094 62.9118 136.067 62.8847 136.047 62.8519C136.03 62.827 136.019 62.7989 136.013 62.7693C136.007 62.7398 136.008 62.7094 136.014 62.68C136.021 62.6506 136.033 62.6228 136.05 62.5983C136.068 62.5738 136.09 62.553 136.116 62.5373L137.008 61.9653C137.841 61.4401 138.495 60.6743 138.883 59.7693C139.271 58.8644 139.375 57.8629 139.182 56.8974L137.385 47.8026C137.254 47.1226 136.897 46.5068 136.372 46.0548C135.847 45.6029 135.185 45.3412 134.493 45.312C133.801 45.2829 133.12 45.4881 132.559 45.8944C131.998 46.3007 131.59 46.8843 131.402 47.5509L128.857 56.4684C128.579 57.411 128.594 58.4159 128.901 59.3497C129.207 60.2835 129.79 61.1019 130.573 61.6965L131.42 62.3371C131.467 62.3744 131.498 62.429 131.506 62.489C131.513 62.5491 131.497 62.6096 131.46 62.6574C131.442 62.6809 131.419 62.7005 131.394 62.7152C131.368 62.7299 131.34 62.7394 131.311 62.7431C131.281 62.7468 131.252 62.7447 131.223 62.7369C131.195 62.7291 131.168 62.7157 131.145 62.6975L130.344 62.0626C129.484 61.4148 128.841 60.5208 128.501 59.4992C128.161 58.4776 128.139 57.3767 128.439 56.3426L130.991 47.4251C131.21 46.6636 131.678 45.9978 132.321 45.5345C132.963 45.0712 133.743 44.8373 134.535 44.8703C135.327 44.9032 136.084 45.2012 136.686 45.7164C137.288 46.2316 137.7 46.934 137.855 47.7111L139.651 56.8116C139.863 57.8664 139.749 58.9606 139.325 59.9495C138.901 60.9383 138.187 61.7749 137.277 62.3486L136.379 62.9206C136.359 62.9366 136.336 62.9484 136.311 62.9552C136.287 62.9621 136.261 62.9639 136.236 62.9606Z" fill="#263238"/>
<path d="M137.609 47.9921L131.185 47.7232C131.155 47.7218 131.125 47.7144 131.098 47.7015C131.071 47.6886 131.047 47.6705 131.026 47.6482C131.006 47.6259 130.991 47.5998 130.981 47.5715C130.97 47.5431 130.966 47.513 130.968 47.483C130.973 47.4233 131.001 47.3679 131.046 47.3277C131.09 47.2875 131.148 47.2654 131.208 47.2656L137.626 47.5345C137.656 47.5359 137.685 47.5433 137.712 47.5562C137.74 47.5691 137.764 47.5872 137.784 47.6095C137.804 47.6318 137.82 47.6579 137.83 47.6862C137.84 47.7146 137.845 47.7447 137.843 47.7747C137.842 47.8045 137.836 47.8339 137.823 47.861C137.811 47.8882 137.794 47.9126 137.772 47.9329C137.75 47.9532 137.724 47.9688 137.696 47.979C137.668 47.9892 137.638 47.9936 137.609 47.9921Z" fill="#263238"/>
<path d="M134.485 45.3261C134.426 45.3247 134.37 45.3009 134.327 45.2596C134.285 45.2182 134.259 45.1622 134.257 45.103C134.257 43.959 133.902 41.9742 132.832 41.5395C132.803 41.5295 132.775 41.5136 132.752 41.4928C132.729 41.4719 132.71 41.4465 132.697 41.4181C132.684 41.3897 132.677 41.359 132.676 41.3278C132.676 41.2966 132.681 41.2655 132.693 41.2366C132.705 41.2077 132.722 41.1814 132.745 41.1595C132.767 41.1376 132.793 41.1205 132.822 41.1092C132.852 41.0979 132.883 41.0927 132.914 41.0939C132.945 41.0951 132.976 41.1027 133.004 41.1162C134.588 41.7683 134.72 44.7541 134.72 45.1202C134.72 45.1804 134.697 45.2384 134.655 45.2821C134.614 45.3258 134.557 45.3518 134.497 45.3547L134.485 45.3261Z" fill="#263238"/>
<path d="M114.837 53.1018H114.792C114.733 53.0894 114.681 53.0542 114.648 53.0039C114.614 52.9536 114.602 52.8921 114.614 52.833C115.369 49.075 118.492 43.1433 121.244 41.393C121.269 41.3774 121.297 41.3669 121.326 41.3622C121.355 41.3575 121.385 41.3587 121.414 41.3656C121.443 41.3725 121.47 41.3851 121.493 41.4025C121.517 41.42 121.537 41.442 121.553 41.4674C121.569 41.4919 121.581 41.5195 121.586 41.5486C121.592 41.5778 121.591 41.6077 121.585 41.6366C121.579 41.6655 121.566 41.6929 121.549 41.7169C121.532 41.7409 121.509 41.7611 121.484 41.7762C118.824 43.4579 115.793 49.2122 115.06 52.9131C115.051 52.9656 115.024 53.0132 114.983 53.0477C114.942 53.0822 114.891 53.1013 114.837 53.1018Z" fill="#263238"/>
<path d="M116.713 53.6911C116.359 54.6006 115.569 55.1497 114.997 54.9152C114.425 54.6806 114.202 53.7712 114.557 52.8388C114.911 51.9064 115.701 51.3802 116.273 51.6204C116.845 51.8607 117.074 52.7816 116.713 53.6911Z" fill="white"/>
<path d="M131.814 62.5496C131.814 62.9729 131.551 63.3104 131.27 63.2989C130.99 63.2875 130.773 62.9329 130.79 62.5039C130.807 62.0749 131.053 61.7374 131.333 61.7545C131.614 61.7717 131.831 62.1206 131.814 62.5496Z" fill="white"/>
<path d="M136.745 62.7563C136.745 63.1796 136.487 63.5171 136.201 63.5056C135.915 63.4942 135.709 63.1395 135.727 62.7105C135.744 62.2815 135.984 61.9498 136.299 61.9612C136.613 61.9727 136.762 62.3445 136.745 62.7563Z" fill="white"/>
<path d="M233.744 54.8263L233.172 54.792C233.267 53.5742 233.108 52.3499 232.705 51.1968C232.302 50.0437 231.664 48.987 230.831 48.0936C229.998 47.2003 228.988 46.4899 227.866 46.0074C226.744 45.525 225.533 45.281 224.312 45.2911V44.7191C225.612 44.708 226.9 44.9673 228.094 45.4803C229.288 45.9933 230.363 46.749 231.25 47.6993C232.137 48.6496 232.816 49.7739 233.246 51.0008C233.675 52.2276 233.845 53.5304 233.744 54.8263Z" fill="#007FDD"/>
<path d="M234.046 57.2248L233.715 61.9609L234.287 62.001L234.618 57.2648L234.046 57.2248Z" fill="#007FDD"/>
<path d="M224.313 46.723H184.845C182.689 46.7585 180.624 47.5944 179.051 49.0682C177.478 50.542 176.509 52.5482 176.333 54.6967L175.973 60.0106C175.891 61.0331 176.023 62.0614 176.36 63.03C176.698 63.9987 177.234 64.8864 177.933 65.6365C178.633 66.3867 179.481 66.9829 180.424 67.3871C181.366 67.7913 182.383 67.9947 183.409 67.9843H222.877L230.53 72.7033L231.743 54.6967C231.826 53.6745 231.694 52.6463 231.357 51.6777C231.021 50.7091 230.485 49.8213 229.786 49.071C229.087 48.3208 228.239 47.7245 227.297 47.3202C226.354 46.9159 225.338 46.7125 224.313 46.723Z" fill="#007FDD"/>
<path d="M222.31 54.3359H185.754V55.663H222.31V54.3359Z" fill="white"/>
<path d="M221.99 59.043H194.849V60.37H221.99V59.043Z" fill="white"/>
<path d="M164.939 75.1489H205.276C206.325 75.1375 207.365 75.345 208.329 75.7579C209.293 76.1709 210.16 76.7803 210.875 77.5473C211.591 78.3143 212.138 79.222 212.483 80.2125C212.828 81.203 212.962 82.2545 212.878 83.2999L212.512 88.7339C212.331 90.9295 211.34 92.9794 209.732 94.4856C208.125 95.9919 206.015 96.847 203.812 96.8849H163.469L154.992 101.718L156.239 83.2999C156.419 81.1038 157.409 79.0532 159.017 77.5467C160.625 76.0402 162.736 75.1855 164.939 75.1489Z" fill="white"/>
<path opacity="0.15" d="M164.939 75.1489H205.276C206.325 75.1375 207.365 75.345 208.329 75.7579C209.293 76.1709 210.16 76.7803 210.875 77.5473C211.591 78.3143 212.138 79.222 212.483 80.2125C212.828 81.203 212.962 82.2545 212.878 83.2999L212.512 88.7339C212.331 90.9295 211.34 92.9794 209.732 94.4856C208.125 95.9919 206.015 96.847 203.812 96.8849H163.469L154.992 101.718L156.239 83.2999C156.419 81.1038 157.409 79.0532 159.017 77.5467C160.625 76.0402 162.736 75.1855 164.939 75.1489Z" fill="#007FDD"/>
<path opacity="0.5" d="M203.228 82.9336H165.842V84.2949H203.228V82.9336Z" fill="#007FDD"/>
<path opacity="0.5" d="M180.291 87.7461H165.517V89.1075H180.291V87.7461Z" fill="#007FDD"/>
<path opacity="0.5" d="M193.35 87.7461H183.912V89.1075H193.35V87.7461Z" fill="#007FDD"/>
</svg>
