<svg width="582" height="268" viewBox="0 0 582 268" fill="none" xmlns="http://www.w3.org/2000/svg">
<line x1="47" y1="9.5" x2="579.988" y2="9.5" stroke="#CBD2D9" stroke-dasharray="5 7"/>
<line x1="47" y1="59.5" x2="581.638" y2="59.5" stroke="#CBD2D9" stroke-dasharray="5 7"/>
<line x1="47" y1="109.5" x2="581.638" y2="109.5" stroke="#CBD2D9" stroke-dasharray="5 7"/>
<line x1="47" y1="159.5" x2="581.638" y2="159.5" stroke="#CBD2D9" stroke-dasharray="5 7"/>
<line x1="47" y1="209.5" x2="579.988" y2="209.5" stroke="#CBD2D9" stroke-dasharray="5 7"/>
<rect x="47" y="91.4297" width="32" height="118.57" fill="#5ED0FA"/>
<rect x="87.8678" y="39.0352" width="32" height="170.965" fill="#65D6AD"/>
<rect x="133.013" y="154.709" width="32" height="55.291" fill="#5ED0FA"/>
<rect x="178.157" y="80.543" width="32" height="129.457" fill="#5ED0FA"/>
<rect x="223.184" y="194.855" width="32" height="15.1445" fill="#F86A6A"/>
<rect x="271.166" y="67.6133" width="32" height="142.387" fill="#5ED0FA"/>
<rect x="314.5" y="131.574" width="32" height="78.4258" fill="#5ED0FA"/>
<rect x="357.834" y="51.2832" width="32" height="158.717" fill="#65D6AD"/>
<rect x="408.105" y="168.998" width="32" height="41.002" fill="#F86A6A"/>
<rect x="456.085" y="73.0566" width="32" height="136.943" fill="#5ED0FA"/>
<rect x="502.037" y="22.7051" width="32" height="187.295" fill="#65D6AD"/>
<rect x="547.988" y="181.246" width="32" height="28.7539" fill="#F86A6A"/>
<path d="M49.457 263.078C51.199 263.078 52.109 262.129 52.109 260.205V253.9H47.832V254.732H51.16V260.244C51.16 261.583 50.588 262.246 49.47 262.246C48.664 262.246 48.001 261.856 47.507 261.128L46.935 261.778C47.494 262.61 48.43 263.078 49.457 263.078ZM57.3217 256.11C56.2427 256.11 55.2287 256.448 54.5397 257.033L54.9557 257.722C55.5147 257.228 56.3467 256.916 57.2307 256.916C58.5047 256.916 59.1677 257.553 59.1677 258.723V259.139H56.9967C55.0337 259.139 54.3577 260.023 54.3577 261.076C54.3577 262.259 55.3067 263.065 56.8537 263.065C57.9847 263.065 58.7907 262.636 59.2067 261.934V263H60.0907V258.762C60.0907 256.994 59.0897 256.11 57.3217 256.11ZM56.9967 262.337C55.9047 262.337 55.2677 261.843 55.2677 261.05C55.2677 260.348 55.6967 259.828 57.0227 259.828H59.1677V260.946C58.8037 261.843 58.0367 262.337 56.9967 262.337ZM66.2117 256.11C65.0287 256.11 64.1057 256.591 63.6117 257.423V256.162H62.7277V263H63.6507V259.412C63.6507 257.852 64.5737 256.942 66.0427 256.942C67.3427 256.942 68.0967 257.683 68.0967 259.126V263H69.0197V259.035C69.0197 257.072 67.8757 256.11 66.2117 256.11Z" fill="#52606D"/>
<path d="M99.3584 254.732V253.9H93.1184V263H94.0804V259.139H98.7864V258.307H94.0804V254.732H99.3584ZM107.018 259.581C107.018 257.527 105.627 256.11 103.703 256.11C101.779 256.11 100.362 257.553 100.362 259.581C100.362 261.609 101.818 263.065 103.95 263.065C105.029 263.065 105.978 262.675 106.589 261.947L106.069 261.349C105.549 261.947 104.808 262.246 103.976 262.246C102.481 262.246 101.389 261.297 101.285 259.867H107.005C107.005 259.763 107.018 259.659 107.018 259.581ZM103.703 256.903C105.042 256.903 106.017 257.839 106.134 259.178H101.285C101.402 257.839 102.377 256.903 103.703 256.903ZM112.55 256.11C111.458 256.11 110.522 256.578 109.95 257.462V253.354H109.027V263H109.911V261.648C110.47 262.571 111.419 263.065 112.55 263.065C114.5 263.065 115.956 261.648 115.956 259.581C115.956 257.514 114.5 256.11 112.55 256.11ZM112.485 262.246C111.029 262.246 109.937 261.18 109.937 259.581C109.937 257.982 111.029 256.916 112.485 256.916C113.928 256.916 115.033 257.982 115.033 259.581C115.033 261.18 113.928 262.246 112.485 262.246Z" fill="#52606D"/>
<path d="M147.413 253.9L143.5 260.647L139.548 253.9H138.755V263H139.678V255.759L143.253 261.843H143.708L147.283 255.72V263H148.206V253.9H147.413ZM153.498 256.11C152.419 256.11 151.405 256.448 150.716 257.033L151.132 257.722C151.691 257.228 152.523 256.916 153.407 256.916C154.681 256.916 155.344 257.553 155.344 258.723V259.139H153.173C151.21 259.139 150.534 260.023 150.534 261.076C150.534 262.259 151.483 263.065 153.03 263.065C154.161 263.065 154.967 262.636 155.383 261.934V263H156.267V258.762C156.267 256.994 155.266 256.11 153.498 256.11ZM153.173 262.337C152.081 262.337 151.444 261.843 151.444 261.05C151.444 260.348 151.873 259.828 153.199 259.828H155.344V260.946C154.98 261.843 154.213 262.337 153.173 262.337ZM159.788 257.501V256.162H158.904V263H159.827V259.516C159.827 257.904 160.698 256.994 162.128 256.994C162.193 256.994 162.271 257.007 162.349 257.007V256.11C161.088 256.11 160.217 256.591 159.788 257.501Z" fill="#52606D"/>
<path d="M192.19 263H193.204L189.044 253.9H188.095L183.935 263H184.936L186.028 260.569H191.098L192.19 263ZM186.379 259.789L188.563 254.901L190.747 259.789H186.379ZM198.167 256.11C197.036 256.11 196.087 256.604 195.528 257.514V256.162H194.644V265.522H195.567V261.713C196.139 262.597 197.075 263.065 198.167 263.065C200.117 263.065 201.573 261.661 201.573 259.581C201.573 257.514 200.117 256.11 198.167 256.11ZM198.102 262.246C196.646 262.246 195.554 261.18 195.554 259.581C195.554 257.995 196.646 256.916 198.102 256.916C199.545 256.916 200.65 257.995 200.65 259.581C200.65 261.18 199.545 262.246 198.102 262.246ZM204.469 257.501V256.162H203.585V263H204.508V259.516C204.508 257.904 205.379 256.994 206.809 256.994C206.874 256.994 206.952 257.007 207.03 257.007V256.11C205.769 256.11 204.898 256.591 204.469 257.501Z" fill="#52606D"/>
<path d="M238.685 253.9L234.772 260.647L230.82 253.9H230.027V263H230.95V255.759L234.525 261.843H234.98L238.555 255.72V263H239.478V253.9H238.685ZM244.77 256.11C243.691 256.11 242.677 256.448 241.988 257.033L242.404 257.722C242.963 257.228 243.795 256.916 244.679 256.916C245.953 256.916 246.616 257.553 246.616 258.723V259.139H244.445C242.482 259.139 241.806 260.023 241.806 261.076C241.806 262.259 242.755 263.065 244.302 263.065C245.433 263.065 246.239 262.636 246.655 261.934V263H247.539V258.762C247.539 256.994 246.538 256.11 244.77 256.11ZM244.445 262.337C243.353 262.337 242.716 261.843 242.716 261.05C242.716 260.348 243.145 259.828 244.471 259.828H246.616V260.946C246.252 261.843 245.485 262.337 244.445 262.337ZM254.886 256.162L252.312 261.973L249.738 256.162H248.776L251.831 262.987L251.532 263.65C251.142 264.508 250.726 264.794 250.115 264.794C249.621 264.794 249.205 264.612 248.867 264.274L248.438 264.963C248.854 265.379 249.465 265.587 250.102 265.587C251.077 265.587 251.805 265.158 252.377 263.819L255.796 256.162H254.886Z" fill="#52606D"/>
<path d="M279.639 263.078C281.381 263.078 282.291 262.129 282.291 260.205V253.9H278.014V254.732H281.342V260.244C281.342 261.583 280.77 262.246 279.652 262.246C278.846 262.246 278.183 261.856 277.689 261.128L277.117 261.778C277.676 262.61 278.612 263.078 279.639 263.078ZM290.351 256.162V259.75C290.351 261.31 289.454 262.233 288.024 262.233C286.724 262.233 285.97 261.492 285.97 260.036V256.162H285.047V260.127C285.047 262.09 286.191 263.065 287.933 263.065C289.025 263.065 289.909 262.584 290.39 261.752V263H291.274V256.162H290.351ZM297.473 256.11C296.29 256.11 295.367 256.591 294.873 257.423V256.162H293.989V263H294.912V259.412C294.912 257.852 295.835 256.942 297.304 256.942C298.604 256.942 299.358 257.683 299.358 259.126V263H300.281V259.035C300.281 257.072 299.137 256.11 297.473 256.11Z" fill="#52606D"/>
<path d="M325.275 263.078C327.017 263.078 327.927 262.129 327.927 260.205V253.9H323.65V254.732H326.978V260.244C326.978 261.583 326.406 262.246 325.288 262.246C324.482 262.246 323.819 261.856 323.325 261.128L322.753 261.778C323.312 262.61 324.248 263.078 325.275 263.078ZM335.987 256.162V259.75C335.987 261.31 335.09 262.233 333.66 262.233C332.36 262.233 331.606 261.492 331.606 260.036V256.162H330.683V260.127C330.683 262.09 331.827 263.065 333.569 263.065C334.661 263.065 335.545 262.584 336.026 261.752V263H336.91V256.162H335.987ZM339.625 263H340.548V253.354H339.625V263Z" fill="#52606D"/>
<path d="M371.736 263H372.75L368.59 253.9H367.641L363.481 263H364.482L365.574 260.569H370.644L371.736 263ZM365.925 259.789L368.109 254.901L370.293 259.789H365.925ZM379.302 256.162V259.75C379.302 261.31 378.405 262.233 376.975 262.233C375.675 262.233 374.921 261.492 374.921 260.036V256.162H373.998V260.127C373.998 262.09 375.142 263.065 376.884 263.065C377.976 263.065 378.86 262.584 379.341 261.752V263H380.225V256.162H379.302ZM388.387 256.162V257.475C387.815 256.578 386.827 256.11 385.683 256.11C383.733 256.11 382.251 257.449 382.251 259.412C382.251 261.375 383.733 262.74 385.683 262.74C386.801 262.74 387.776 262.285 388.348 261.414V262.285C388.348 263.975 387.555 264.768 385.826 264.768C384.773 264.768 383.785 264.417 383.135 263.832L382.667 264.534C383.382 265.21 384.604 265.587 385.852 265.587C388.114 265.587 389.271 264.521 389.271 262.168V256.162H388.387ZM385.774 261.921C384.266 261.921 383.187 260.894 383.187 259.412C383.187 257.93 384.266 256.916 385.774 256.916C387.282 256.916 388.374 257.93 388.374 259.412C388.374 260.894 387.282 261.921 385.774 261.921Z" fill="#52606D"/>
<path d="M416.082 263.078C418.409 263.078 419.475 261.934 419.475 260.595C419.475 257.28 413.872 258.788 413.872 256.292C413.872 255.382 414.613 254.641 416.277 254.641C417.083 254.641 417.993 254.888 418.773 255.395L419.098 254.628C418.37 254.121 417.304 253.822 416.277 253.822C413.963 253.822 412.923 254.979 412.923 256.318C412.923 259.685 418.526 258.151 418.526 260.647C418.526 261.544 417.785 262.259 416.082 262.259C414.886 262.259 413.729 261.791 413.079 261.154L412.702 261.895C413.378 262.597 414.717 263.078 416.082 263.078ZM427.473 259.581C427.473 257.527 426.082 256.11 424.158 256.11C422.234 256.11 420.817 257.553 420.817 259.581C420.817 261.609 422.273 263.065 424.405 263.065C425.484 263.065 426.433 262.675 427.044 261.947L426.524 261.349C426.004 261.947 425.263 262.246 424.431 262.246C422.936 262.246 421.844 261.297 421.74 259.867H427.46C427.46 259.763 427.473 259.659 427.473 259.581ZM424.158 256.903C425.497 256.903 426.472 257.839 426.589 259.178H421.74C421.857 257.839 422.832 256.903 424.158 256.903ZM433.005 256.11C431.874 256.11 430.925 256.604 430.366 257.514V256.162H429.482V265.522H430.405V261.713C430.977 262.597 431.913 263.065 433.005 263.065C434.955 263.065 436.411 261.661 436.411 259.581C436.411 257.514 434.955 256.11 433.005 256.11ZM432.94 262.246C431.484 262.246 430.392 261.18 430.392 259.581C430.392 257.995 431.484 256.916 432.94 256.916C434.383 256.916 435.488 257.995 435.488 259.581C435.488 261.18 434.383 262.246 432.94 262.246ZM441.698 261.921C441.438 262.155 441.061 262.272 440.684 262.272C439.917 262.272 439.501 261.83 439.501 261.024V256.942H441.581V256.162H439.501V254.667H438.578V256.162H437.356V256.942H438.578V261.076C438.578 262.337 439.293 263.065 440.58 263.065C441.113 263.065 441.659 262.909 442.023 262.584L441.698 261.921Z" fill="#52606D"/>
<path d="M469.187 263.078C471.917 263.078 473.958 261.115 473.958 258.45C473.958 255.785 471.917 253.822 469.187 253.822C466.431 253.822 464.403 255.798 464.403 258.45C464.403 261.102 466.431 263.078 469.187 263.078ZM469.187 262.22C466.99 262.22 465.352 260.621 465.352 258.45C465.352 256.279 466.99 254.68 469.187 254.68C471.371 254.68 472.996 256.279 472.996 258.45C472.996 260.621 471.371 262.22 469.187 262.22ZM478.884 263.065C480.041 263.065 481.016 262.597 481.562 261.713L480.873 261.245C480.405 261.934 479.677 262.246 478.884 262.246C477.389 262.246 476.297 261.193 476.297 259.581C476.297 257.982 477.389 256.916 478.884 256.916C479.677 256.916 480.405 257.241 480.873 257.93L481.562 257.462C481.016 256.565 480.041 256.11 478.884 256.11C476.843 256.11 475.361 257.54 475.361 259.581C475.361 261.622 476.843 263.065 478.884 263.065ZM486.857 261.921C486.597 262.155 486.22 262.272 485.843 262.272C485.076 262.272 484.66 261.83 484.66 261.024V256.942H486.74V256.162H484.66V254.667H483.737V256.162H482.515V256.942H483.737V261.076C483.737 262.337 484.452 263.065 485.739 263.065C486.272 263.065 486.818 262.909 487.182 262.584L486.857 261.921Z" fill="#52606D"/>
<path d="M516.502 253.9V261.284L510.639 253.9H509.846V263H510.808V255.616L516.658 263H517.451V253.9H516.502ZM523.151 263.065C525.153 263.065 526.622 261.609 526.622 259.581C526.622 257.553 525.153 256.11 523.151 256.11C521.149 256.11 519.667 257.553 519.667 259.581C519.667 261.609 521.149 263.065 523.151 263.065ZM523.151 262.246C521.695 262.246 520.603 261.18 520.603 259.581C520.603 257.982 521.695 256.916 523.151 256.916C524.607 256.916 525.686 257.982 525.686 259.581C525.686 261.18 524.607 262.246 523.151 262.246ZM533.282 256.162L530.695 261.986L528.134 256.162H527.172L530.201 263H531.15L534.192 256.162H533.282Z" fill="#52606D"/>
<path d="M556.482 263H560.187C563.099 263 565.062 261.128 565.062 258.45C565.062 255.772 563.099 253.9 560.187 253.9H556.482V263ZM557.444 262.168V254.732H560.135C562.553 254.732 564.113 256.266 564.113 258.45C564.113 260.634 562.553 262.168 560.135 262.168H557.444ZM573.124 259.581C573.124 257.527 571.733 256.11 569.809 256.11C567.885 256.11 566.468 257.553 566.468 259.581C566.468 261.609 567.924 263.065 570.056 263.065C571.135 263.065 572.084 262.675 572.695 261.947L572.175 261.349C571.655 261.947 570.914 262.246 570.082 262.246C568.587 262.246 567.495 261.297 567.391 259.867H573.111C573.111 259.763 573.124 259.659 573.124 259.581ZM569.809 256.903C571.148 256.903 572.123 257.839 572.24 259.178H567.391C567.508 257.839 568.483 256.903 569.809 256.903ZM577.967 263.065C579.124 263.065 580.099 262.597 580.645 261.713L579.956 261.245C579.488 261.934 578.76 262.246 577.967 262.246C576.472 262.246 575.38 261.193 575.38 259.581C575.38 257.982 576.472 256.916 577.967 256.916C578.76 256.916 579.488 257.241 579.956 257.93L580.645 257.462C580.099 256.565 579.124 256.11 577.967 256.11C575.926 256.11 574.444 257.54 574.444 259.581C574.444 261.622 575.926 263.065 577.967 263.065Z" fill="#52606D"/>
<path d="M10.352 12.032H8.112V9.44H6.992V12.032H2.128L7.856 4.8H6.576L0.64 12.224V13.056H6.96V16H8.112V13.056H10.352V12.032ZM15.8741 16.096C18.4661 16.096 20.3541 13.968 20.3541 10.4C20.3541 6.832 18.4661 4.704 15.8741 4.704C13.2821 4.704 11.4101 6.832 11.4101 10.4C11.4101 13.968 13.2821 16.096 15.8741 16.096ZM15.8741 15.04C13.9221 15.04 12.5781 13.392 12.5781 10.4C12.5781 7.408 13.9221 5.76 15.8741 5.76C17.8261 5.76 19.1701 7.408 19.1701 10.4C19.1701 13.392 17.8261 15.04 15.8741 15.04ZM26.4679 16.096C29.0599 16.096 30.9479 13.968 30.9479 10.4C30.9479 6.832 29.0599 4.704 26.4679 4.704C23.8759 4.704 22.0039 6.832 22.0039 10.4C22.0039 13.968 23.8759 16.096 26.4679 16.096ZM26.4679 15.04C24.5159 15.04 23.1719 13.392 23.1719 10.4C23.1719 7.408 24.5159 5.76 26.4679 5.76C28.4199 5.76 29.7639 7.408 29.7639 10.4C29.7639 13.392 28.4199 15.04 26.4679 15.04Z" fill="#52606D"/>
<path d="M5.64 59.6L8.808 55.616V54.8H1.608V55.824H7.336L4.232 59.712V60.56H5.032C7.112 60.56 8.056 61.44 8.056 62.784C8.056 64.176 7.032 65.04 5.176 65.04C3.72 65.04 2.424 64.496 1.704 63.744L1.144 64.656C2.008 65.536 3.56 66.096 5.176 66.096C7.88 66.096 9.24 64.656 9.24 62.784C9.24 60.992 8.04 59.728 5.64 59.6ZM15.3273 66.096C17.9193 66.096 19.8073 63.968 19.8073 60.4C19.8073 56.832 17.9193 54.704 15.3273 54.704C12.7353 54.704 10.8633 56.832 10.8633 60.4C10.8633 63.968 12.7353 66.096 15.3273 66.096ZM15.3273 65.04C13.3753 65.04 12.0312 63.392 12.0312 60.4C12.0312 57.408 13.3753 55.76 15.3273 55.76C17.2793 55.76 18.6233 57.408 18.6233 60.4C18.6233 63.392 17.2793 65.04 15.3273 65.04ZM25.921 66.096C28.513 66.096 30.401 63.968 30.401 60.4C30.401 56.832 28.513 54.704 25.921 54.704C23.329 54.704 21.457 56.832 21.457 60.4C21.457 63.968 23.329 66.096 25.921 66.096ZM25.921 65.04C23.969 65.04 22.625 63.392 22.625 60.4C22.625 57.408 23.969 55.76 25.921 55.76C27.873 55.76 29.217 57.408 29.217 60.4C29.217 63.392 27.873 65.04 25.921 65.04Z" fill="#52606D"/>
<path d="M3.32 114.976L7.128 111.232C8.632 109.76 8.968 108.8 8.968 107.728C8.968 105.856 7.528 104.704 5.256 104.704C3.544 104.704 2.152 105.28 1.288 106.304L2.104 107.008C2.84 106.16 3.848 105.76 5.16 105.76C6.872 105.76 7.784 106.56 7.784 107.856C7.784 108.624 7.544 109.376 6.28 110.624L1.624 115.184V116H9.48V114.976H3.32ZM15.3273 116.096C17.9193 116.096 19.8073 113.968 19.8073 110.4C19.8073 106.832 17.9193 104.704 15.3273 104.704C12.7353 104.704 10.8633 106.832 10.8633 110.4C10.8633 113.968 12.7353 116.096 15.3273 116.096ZM15.3273 115.04C13.3753 115.04 12.0312 113.392 12.0312 110.4C12.0312 107.408 13.3753 105.76 15.3273 105.76C17.2793 105.76 18.6233 107.408 18.6233 110.4C18.6233 113.392 17.2793 115.04 15.3273 115.04ZM25.921 116.096C28.513 116.096 30.401 113.968 30.401 110.4C30.401 106.832 28.513 104.704 25.921 104.704C23.329 104.704 21.457 106.832 21.457 110.4C21.457 113.968 23.329 116.096 25.921 116.096ZM25.921 115.04C23.969 115.04 22.625 113.392 22.625 110.4C22.625 107.408 23.969 105.76 25.921 105.76C27.873 105.76 29.217 107.408 29.217 110.4C29.217 113.392 27.873 115.04 25.921 115.04Z" fill="#52606D"/>
<path d="M1.144 154.8V155.824H3.784V166H4.936V154.8H1.144ZM12.0773 166.096C14.6693 166.096 16.5573 163.968 16.5573 160.4C16.5573 156.832 14.6693 154.704 12.0773 154.704C9.48525 154.704 7.61325 156.832 7.61325 160.4C7.61325 163.968 9.48525 166.096 12.0773 166.096ZM12.0773 165.04C10.1253 165.04 8.78125 163.392 8.78125 160.4C8.78125 157.408 10.1253 155.76 12.0773 155.76C14.0293 155.76 15.3733 157.408 15.3733 160.4C15.3733 163.392 14.0293 165.04 12.0773 165.04ZM22.671 166.096C25.263 166.096 27.151 163.968 27.151 160.4C27.151 156.832 25.263 154.704 22.671 154.704C20.079 154.704 18.207 156.832 18.207 160.4C18.207 163.968 20.079 166.096 22.671 166.096ZM22.671 165.04C20.719 165.04 19.375 163.392 19.375 160.4C19.375 157.408 20.719 155.76 22.671 155.76C24.623 155.76 25.967 157.408 25.967 160.4C25.967 163.392 24.623 165.04 22.671 165.04Z" fill="#52606D"/>
<path d="M6.296 216.096C8.888 216.096 10.776 213.968 10.776 210.4C10.776 206.832 8.888 204.704 6.296 204.704C3.704 204.704 1.832 206.832 1.832 210.4C1.832 213.968 3.704 216.096 6.296 216.096ZM6.296 215.04C4.344 215.04 3 213.392 3 210.4C3 207.408 4.344 205.76 6.296 205.76C8.248 205.76 9.592 207.408 9.592 210.4C9.592 213.392 8.248 215.04 6.296 215.04Z" fill="#52606D"/>
</svg>
