<svg width="615" height="268" viewBox="0 0 615 268" fill="none" xmlns="http://www.w3.org/2000/svg">
<line x1="55" y1="9.5" x2="614.103" y2="9.5" stroke="#CBD2D9" stroke-dasharray="5 7"/>
<line x1="55" y1="59.5" x2="614.103" y2="59.5" stroke="#CBD2D9" stroke-dasharray="5 7"/>
<line x1="55" y1="109.5" x2="614.103" y2="109.5" stroke="#CBD2D9" stroke-dasharray="5 7"/>
<line x1="55" y1="159.5" x2="614.103" y2="159.5" stroke="#CBD2D9" stroke-dasharray="5 7"/>
<line x1="55" y1="209.5" x2="614.103" y2="209.5" stroke="#CBD2D9" stroke-dasharray="5 7"/>
<path d="M57.457 262.078C59.199 262.078 60.109 261.129 60.109 259.205V252.9H55.832V253.732H59.16V259.244C59.16 260.583 58.588 261.246 57.47 261.246C56.664 261.246 56.001 260.856 55.507 260.128L54.935 260.778C55.494 261.61 56.43 262.078 57.457 262.078ZM65.3217 255.11C64.2427 255.11 63.2287 255.448 62.5397 256.033L62.9557 256.722C63.5147 256.228 64.3467 255.916 65.2307 255.916C66.5047 255.916 67.1677 256.553 67.1677 257.723V258.139H64.9967C63.0337 258.139 62.3577 259.023 62.3577 260.076C62.3577 261.259 63.3067 262.065 64.8537 262.065C65.9847 262.065 66.7907 261.636 67.2067 260.934V262H68.0907V257.762C68.0907 255.994 67.0897 255.11 65.3217 255.11ZM64.9967 261.337C63.9047 261.337 63.2677 260.843 63.2677 260.05C63.2677 259.348 63.6967 258.828 65.0227 258.828H67.1677V259.946C66.8037 260.843 66.0367 261.337 64.9967 261.337ZM74.2117 255.11C73.0287 255.11 72.1057 255.591 71.6117 256.423V255.162H70.7277V262H71.6507V258.412C71.6507 256.852 72.5737 255.942 74.0427 255.942C75.3427 255.942 76.0967 256.683 76.0967 258.126V262H77.0197V258.035C77.0197 256.072 75.8757 255.11 74.2117 255.11Z" fill="#52606D"/>
<path d="M109.54 253.732V252.9H103.3V262H104.262V258.139H108.968V257.307H104.262V253.732H109.54ZM117.2 258.581C117.2 256.527 115.809 255.11 113.885 255.11C111.961 255.11 110.544 256.553 110.544 258.581C110.544 260.609 112 262.065 114.132 262.065C115.211 262.065 116.16 261.675 116.771 260.947L116.251 260.349C115.731 260.947 114.99 261.246 114.158 261.246C112.663 261.246 111.571 260.297 111.467 258.867H117.187C117.187 258.763 117.2 258.659 117.2 258.581ZM113.885 255.903C115.224 255.903 116.199 256.839 116.316 258.178H111.467C111.584 256.839 112.559 255.903 113.885 255.903ZM122.732 255.11C121.64 255.11 120.704 255.578 120.132 256.462V252.354H119.209V262H120.093V260.648C120.652 261.571 121.601 262.065 122.732 262.065C124.682 262.065 126.138 260.648 126.138 258.581C126.138 256.514 124.682 255.11 122.732 255.11ZM122.667 261.246C121.211 261.246 120.119 260.18 120.119 258.581C120.119 256.982 121.211 255.916 122.667 255.916C124.11 255.916 125.215 256.982 125.215 258.581C125.215 260.18 124.11 261.246 122.667 261.246Z" fill="#52606D"/>
<path d="M159.776 252.9L155.863 259.647L151.911 252.9H151.118V262H152.041V254.759L155.616 260.843H156.071L159.646 254.72V262H160.569V252.9H159.776ZM165.861 255.11C164.782 255.11 163.768 255.448 163.079 256.033L163.495 256.722C164.054 256.228 164.886 255.916 165.77 255.916C167.044 255.916 167.707 256.553 167.707 257.723V258.139H165.536C163.573 258.139 162.897 259.023 162.897 260.076C162.897 261.259 163.846 262.065 165.393 262.065C166.524 262.065 167.33 261.636 167.746 260.934V262H168.63V257.762C168.63 255.994 167.629 255.11 165.861 255.11ZM165.536 261.337C164.444 261.337 163.807 260.843 163.807 260.05C163.807 259.348 164.236 258.828 165.562 258.828H167.707V259.946C167.343 260.843 166.576 261.337 165.536 261.337ZM172.151 256.501V255.162H171.267V262H172.19V258.516C172.19 256.904 173.061 255.994 174.491 255.994C174.556 255.994 174.634 256.007 174.712 256.007V255.11C173.451 255.11 172.58 255.591 172.151 256.501Z" fill="#52606D"/>
<path d="M206.736 262H207.75L203.59 252.9H202.641L198.481 262H199.482L200.574 259.569H205.644L206.736 262ZM200.925 258.789L203.109 253.901L205.293 258.789H200.925ZM212.713 255.11C211.582 255.11 210.633 255.604 210.074 256.514V255.162H209.19V264.522H210.113V260.713C210.685 261.597 211.621 262.065 212.713 262.065C214.663 262.065 216.119 260.661 216.119 258.581C216.119 256.514 214.663 255.11 212.713 255.11ZM212.648 261.246C211.192 261.246 210.1 260.18 210.1 258.581C210.1 256.995 211.192 255.916 212.648 255.916C214.091 255.916 215.196 256.995 215.196 258.581C215.196 260.18 214.091 261.246 212.648 261.246ZM219.014 256.501V255.162H218.13V262H219.053V258.516C219.053 256.904 219.924 255.994 221.354 255.994C221.419 255.994 221.497 256.007 221.575 256.007V255.11C220.314 255.11 219.443 255.591 219.014 256.501Z" fill="#52606D"/>
<path d="M255.413 252.9L251.5 259.647L247.548 252.9H246.755V262H247.678V254.759L251.253 260.843H251.708L255.283 254.72V262H256.206V252.9H255.413ZM261.498 255.11C260.419 255.11 259.405 255.448 258.716 256.033L259.132 256.722C259.691 256.228 260.523 255.916 261.407 255.916C262.681 255.916 263.344 256.553 263.344 257.723V258.139H261.173C259.21 258.139 258.534 259.023 258.534 260.076C258.534 261.259 259.483 262.065 261.03 262.065C262.161 262.065 262.967 261.636 263.383 260.934V262H264.267V257.762C264.267 255.994 263.266 255.11 261.498 255.11ZM261.173 261.337C260.081 261.337 259.444 260.843 259.444 260.05C259.444 259.348 259.873 258.828 261.199 258.828H263.344V259.946C262.98 260.843 262.213 261.337 261.173 261.337ZM271.613 255.162L269.039 260.973L266.465 255.162H265.503L268.558 261.987L268.259 262.65C267.869 263.508 267.453 263.794 266.842 263.794C266.348 263.794 265.932 263.612 265.594 263.274L265.165 263.963C265.581 264.379 266.192 264.587 266.829 264.587C267.804 264.587 268.532 264.158 269.104 262.819L272.523 255.162H271.613Z" fill="#52606D"/>
<path d="M298.548 262.078C300.29 262.078 301.2 261.129 301.2 259.205V252.9H296.923V253.732H300.251V259.244C300.251 260.583 299.679 261.246 298.561 261.246C297.755 261.246 297.092 260.856 296.598 260.128L296.026 260.778C296.585 261.61 297.521 262.078 298.548 262.078ZM309.26 255.162V258.75C309.26 260.31 308.363 261.233 306.933 261.233C305.633 261.233 304.879 260.492 304.879 259.036V255.162H303.956V259.127C303.956 261.09 305.1 262.065 306.842 262.065C307.934 262.065 308.818 261.584 309.299 260.752V262H310.183V255.162H309.26ZM316.382 255.11C315.199 255.11 314.276 255.591 313.782 256.423V255.162H312.898V262H313.821V258.412C313.821 256.852 314.744 255.942 316.213 255.942C317.513 255.942 318.267 256.683 318.267 258.126V262H319.19V258.035C319.19 256.072 318.046 255.11 316.382 255.11Z" fill="#52606D"/>
<path d="M346.366 262.078C348.108 262.078 349.018 261.129 349.018 259.205V252.9H344.741V253.732H348.069V259.244C348.069 260.583 347.497 261.246 346.379 261.246C345.573 261.246 344.91 260.856 344.416 260.128L343.844 260.778C344.403 261.61 345.339 262.078 346.366 262.078ZM357.078 255.162V258.75C357.078 260.31 356.181 261.233 354.751 261.233C353.451 261.233 352.697 260.492 352.697 259.036V255.162H351.774V259.127C351.774 261.09 352.918 262.065 354.66 262.065C355.752 262.065 356.636 261.584 357.117 260.752V262H358.001V255.162H357.078ZM360.716 262H361.639V252.354H360.716V262Z" fill="#52606D"/>
<path d="M395.008 262H396.022L391.862 252.9H390.913L386.753 262H387.754L388.846 259.569H393.916L395.008 262ZM389.197 258.789L391.381 253.901L393.565 258.789H389.197ZM402.575 255.162V258.75C402.575 260.31 401.678 261.233 400.248 261.233C398.948 261.233 398.194 260.492 398.194 259.036V255.162H397.271V259.127C397.271 261.09 398.415 262.065 400.157 262.065C401.249 262.065 402.133 261.584 402.614 260.752V262H403.498V255.162H402.575ZM411.66 255.162V256.475C411.088 255.578 410.1 255.11 408.956 255.11C407.006 255.11 405.524 256.449 405.524 258.412C405.524 260.375 407.006 261.74 408.956 261.74C410.074 261.74 411.049 261.285 411.621 260.414V261.285C411.621 262.975 410.828 263.768 409.099 263.768C408.046 263.768 407.058 263.417 406.408 262.832L405.94 263.534C406.655 264.21 407.877 264.587 409.125 264.587C411.387 264.587 412.544 263.521 412.544 261.168V255.162H411.66ZM409.047 260.921C407.539 260.921 406.46 259.894 406.46 258.412C406.46 256.93 407.539 255.916 409.047 255.916C410.555 255.916 411.647 256.93 411.647 258.412C411.647 259.894 410.555 260.921 409.047 260.921Z" fill="#52606D"/>
<path d="M441.536 262.078C443.863 262.078 444.929 260.934 444.929 259.595C444.929 256.28 439.326 257.788 439.326 255.292C439.326 254.382 440.067 253.641 441.731 253.641C442.537 253.641 443.447 253.888 444.227 254.395L444.552 253.628C443.824 253.121 442.758 252.822 441.731 252.822C439.417 252.822 438.377 253.979 438.377 255.318C438.377 258.685 443.98 257.151 443.98 259.647C443.98 260.544 443.239 261.259 441.536 261.259C440.34 261.259 439.183 260.791 438.533 260.154L438.156 260.895C438.832 261.597 440.171 262.078 441.536 262.078ZM452.927 258.581C452.927 256.527 451.536 255.11 449.612 255.11C447.688 255.11 446.271 256.553 446.271 258.581C446.271 260.609 447.727 262.065 449.859 262.065C450.938 262.065 451.887 261.675 452.498 260.947L451.978 260.349C451.458 260.947 450.717 261.246 449.885 261.246C448.39 261.246 447.298 260.297 447.194 258.867H452.914C452.914 258.763 452.927 258.659 452.927 258.581ZM449.612 255.903C450.951 255.903 451.926 256.839 452.043 258.178H447.194C447.311 256.839 448.286 255.903 449.612 255.903ZM458.459 255.11C457.328 255.11 456.379 255.604 455.82 256.514V255.162H454.936V264.522H455.859V260.713C456.431 261.597 457.367 262.065 458.459 262.065C460.409 262.065 461.865 260.661 461.865 258.581C461.865 256.514 460.409 255.11 458.459 255.11ZM458.394 261.246C456.938 261.246 455.846 260.18 455.846 258.581C455.846 256.995 456.938 255.916 458.394 255.916C459.837 255.916 460.942 256.995 460.942 258.581C460.942 260.18 459.837 261.246 458.394 261.246ZM467.153 260.921C466.893 261.155 466.516 261.272 466.139 261.272C465.372 261.272 464.956 260.83 464.956 260.024V255.942H467.036V255.162H464.956V253.667H464.033V255.162H462.811V255.942H464.033V260.076C464.033 261.337 464.748 262.065 466.035 262.065C466.568 262.065 467.114 261.909 467.478 261.584L467.153 260.921Z" fill="#52606D"/>
<path d="M496.824 262.078C499.554 262.078 501.595 260.115 501.595 257.45C501.595 254.785 499.554 252.822 496.824 252.822C494.068 252.822 492.04 254.798 492.04 257.45C492.04 260.102 494.068 262.078 496.824 262.078ZM496.824 261.22C494.627 261.22 492.989 259.621 492.989 257.45C492.989 255.279 494.627 253.68 496.824 253.68C499.008 253.68 500.633 255.279 500.633 257.45C500.633 259.621 499.008 261.22 496.824 261.22ZM506.52 262.065C507.677 262.065 508.652 261.597 509.198 260.713L508.509 260.245C508.041 260.934 507.313 261.246 506.52 261.246C505.025 261.246 503.933 260.193 503.933 258.581C503.933 256.982 505.025 255.916 506.52 255.916C507.313 255.916 508.041 256.241 508.509 256.93L509.198 256.462C508.652 255.565 507.677 255.11 506.52 255.11C504.479 255.11 502.997 256.54 502.997 258.581C502.997 260.622 504.479 262.065 506.52 262.065ZM514.493 260.921C514.233 261.155 513.856 261.272 513.479 261.272C512.712 261.272 512.296 260.83 512.296 260.024V255.942H514.376V255.162H512.296V253.667H511.373V255.162H510.151V255.942H511.373V260.076C511.373 261.337 512.088 262.065 513.375 262.065C513.908 262.065 514.454 261.909 514.818 261.584L514.493 260.921Z" fill="#52606D"/>
<path d="M546.32 252.9V260.284L540.457 252.9H539.664V262H540.626V254.616L546.476 262H547.269V252.9H546.32ZM552.969 262.065C554.971 262.065 556.44 260.609 556.44 258.581C556.44 256.553 554.971 255.11 552.969 255.11C550.967 255.11 549.485 256.553 549.485 258.581C549.485 260.609 550.967 262.065 552.969 262.065ZM552.969 261.246C551.513 261.246 550.421 260.18 550.421 258.581C550.421 256.982 551.513 255.916 552.969 255.916C554.425 255.916 555.504 256.982 555.504 258.581C555.504 260.18 554.425 261.246 552.969 261.246ZM563.1 255.162L560.513 260.986L557.952 255.162H556.99L560.019 262H560.968L564.01 255.162H563.1Z" fill="#52606D"/>
<path d="M588.482 262H592.187C595.099 262 597.062 260.128 597.062 257.45C597.062 254.772 595.099 252.9 592.187 252.9H588.482V262ZM589.444 261.168V253.732H592.135C594.553 253.732 596.113 255.266 596.113 257.45C596.113 259.634 594.553 261.168 592.135 261.168H589.444ZM605.124 258.581C605.124 256.527 603.733 255.11 601.809 255.11C599.885 255.11 598.468 256.553 598.468 258.581C598.468 260.609 599.924 262.065 602.056 262.065C603.135 262.065 604.084 261.675 604.695 260.947L604.175 260.349C603.655 260.947 602.914 261.246 602.082 261.246C600.587 261.246 599.495 260.297 599.391 258.867H605.111C605.111 258.763 605.124 258.659 605.124 258.581ZM601.809 255.903C603.148 255.903 604.123 256.839 604.24 258.178H599.391C599.508 256.839 600.483 255.903 601.809 255.903ZM609.967 262.065C611.124 262.065 612.099 261.597 612.645 260.713L611.956 260.245C611.488 260.934 610.76 261.246 609.967 261.246C608.472 261.246 607.38 260.193 607.38 258.581C607.38 256.982 608.472 255.916 609.967 255.916C610.76 255.916 611.488 256.241 611.956 256.93L612.645 256.462C612.099 255.565 611.124 255.11 609.967 255.11C607.926 255.11 606.444 256.54 606.444 258.581C606.444 260.622 607.926 262.065 609.967 262.065Z" fill="#52606D"/>
<path d="M2.32 14.976L6.128 11.232C7.632 9.76 7.968 8.8 7.968 7.728C7.968 5.856 6.528 4.704 4.256 4.704C2.544 4.704 1.152 5.28 0.288 6.304L1.104 7.008C1.84 6.16 2.848 5.76 4.16 5.76C5.872 5.76 6.784 6.56 6.784 7.856C6.784 8.624 6.544 9.376 5.28 10.624L0.624 15.184V16H8.48V14.976H2.32ZM12.8698 9.392H11.4298L11.8138 5.824H16.9338V4.8H10.8058L10.2298 10.416H12.6138C15.4618 10.416 16.3578 11.312 16.3578 12.752C16.3578 14.112 15.3498 15.04 13.4458 15.04C12.0058 15.04 10.7258 14.496 10.0058 13.744L9.44575 14.656C10.3098 15.536 11.8458 16.096 13.4618 16.096C16.1978 16.096 17.5258 14.608 17.5258 12.704C17.5258 10.72 16.2458 9.392 12.8698 9.392Z" fill="#52606D"/>
<path d="M2.32 64.976L6.128 61.232C7.632 59.76 7.968 58.8 7.968 57.728C7.968 55.856 6.528 54.704 4.256 54.704C2.544 54.704 1.152 55.28 0.288 56.304L1.104 57.008C1.84 56.16 2.848 55.76 4.16 55.76C5.872 55.76 6.784 56.56 6.784 57.856C6.784 58.624 6.544 59.376 5.28 60.624L0.624 65.184V66H8.48V64.976H2.32ZM14.3273 66.096C16.9193 66.096 18.8073 63.968 18.8073 60.4C18.8073 56.832 16.9193 54.704 14.3273 54.704C11.7353 54.704 9.86325 56.832 9.86325 60.4C9.86325 63.968 11.7353 66.096 14.3273 66.096ZM14.3273 65.04C12.3753 65.04 11.0312 63.392 11.0312 60.4C11.0312 57.408 12.3753 55.76 14.3273 55.76C16.2793 55.76 17.6233 57.408 17.6233 60.4C17.6233 63.392 16.2793 65.04 14.3273 65.04Z" fill="#52606D"/>
<path d="M0.144 104.8V105.824H2.784V116H3.936V104.8H0.144ZM9.55725 109.392H8.11725L8.50125 105.824H13.6213V104.8H7.49325L6.91725 110.416H9.30125C12.1493 110.416 13.0453 111.312 13.0453 112.752C13.0453 114.112 12.0373 115.04 10.1333 115.04C8.69325 115.04 7.41325 114.496 6.69325 113.744L6.13325 114.656C6.99725 115.536 8.53325 116.096 10.1493 116.096C12.8853 116.096 14.2133 114.608 14.2133 112.704C14.2133 110.72 12.9333 109.392 9.55725 109.392Z" fill="#52606D"/>
<path d="M3.776 159.392H2.336L2.72 155.824H7.84V154.8H1.712L1.136 160.416H3.52C6.368 160.416 7.264 161.312 7.264 162.752C7.264 164.112 6.256 165.04 4.352 165.04C2.912 165.04 1.632 164.496 0.912 163.744L0.352 164.656C1.216 165.536 2.752 166.096 4.368 166.096C7.104 166.096 8.432 164.608 8.432 162.704C8.432 160.72 7.152 159.392 3.776 159.392Z" fill="#52606D"/>
<path d="M5.296 216.096C7.888 216.096 9.776 213.968 9.776 210.4C9.776 206.832 7.888 204.704 5.296 204.704C2.704 204.704 0.832 206.832 0.832 210.4C0.832 213.968 2.704 216.096 5.296 216.096ZM5.296 215.04C3.344 215.04 2 213.392 2 210.4C2 207.408 3.344 205.76 5.296 205.76C7.248 205.76 8.592 207.408 8.592 210.4C8.592 213.392 7.248 215.04 5.296 215.04Z" fill="#52606D"/>
<path d="M55.998 209.717L112.749 173.655L163.101 198.513L215.495 107.843L257.001 183.371H312.116L354.303 140.504L399.211 198.513L448.203 91.5117L506.72 155.472L550.267 188.133L597.898 140.504" stroke="#1992D4" stroke-width="2" stroke-linecap="round"/>
<line x1="312.272" y1="209.717" x2="312.272" y2="9.99944" stroke="#F86A6A" stroke-dasharray="5 7"/>
<circle cx="312.238" cy="211.764" r="4.07812" fill="#F86A6A"/>
</svg>
