<svg width="201" height="182" viewBox="0 0 201 182" fill="none" xmlns="http://www.w3.org/2000/svg">
<path opacity="0.5" d="M37.7904 168.278C75.0132 186.015 135.362 186.015 172.585 168.278C209.807 150.54 209.803 121.784 172.585 104.033C135.367 86.2814 75.0132 86.2907 37.7904 104.033C0.567559 121.775 0.572206 150.536 37.7904 168.278Z" fill="#FFE3E3"/>
<path d="M27.0953 129.801L30.8752 127.621C30.8752 127.621 32.8698 118.726 29.8989 107.429C26.9279 96.1306 18.3592 87.6827 13.8911 89.4541C9.42308 91.2255 9.53932 94.5684 12.0035 97.9578C14.0492 100.747 20.6838 107.535 23.8733 115.356C25.7734 119.949 26.8635 124.836 27.0953 129.801Z" fill="#CC3333"/>
<path opacity="0.1" d="M27.0953 129.801L30.8752 127.621C30.8752 127.621 32.8698 118.726 29.8989 107.429C26.9279 96.1306 18.3592 87.6827 13.8911 89.4541C9.42308 91.2255 9.53932 94.5684 12.0035 97.9578C14.0492 100.747 20.6838 107.535 23.8733 115.356C25.7734 119.949 26.8635 124.836 27.0953 129.801Z" fill="black"/>
<path d="M29.1087 128.873H29.0761C29.016 128.863 28.9618 128.831 28.9253 128.782C28.8888 128.734 28.8728 128.673 28.8808 128.612C31.4612 110.015 19.9355 94.9787 14.691 91.8404C14.6606 91.8272 14.6333 91.8077 14.6111 91.7832C14.5888 91.7587 14.5721 91.7297 14.5619 91.6982C14.5518 91.6666 14.5485 91.6333 14.5523 91.6004C14.5561 91.5675 14.5669 91.5358 14.5839 91.5074C14.6009 91.479 14.6239 91.4546 14.6511 91.4357C14.6784 91.4169 14.7093 91.4041 14.7419 91.3982C14.7745 91.3923 14.808 91.3935 14.8401 91.4016C14.8722 91.4097 14.9022 91.4245 14.9281 91.4452C20.2516 94.6253 31.9541 109.861 29.3411 128.677C29.3313 128.732 29.3027 128.781 29.2602 128.817C29.2178 128.853 29.1641 128.872 29.1087 128.873Z" fill="white"/>
<path d="M27.0963 129.802L21.4334 133.057C20.2506 132.466 18.9694 132.097 17.6534 131.969C15.2451 131.666 13.641 129.342 13.8781 127.608C14.0362 126.436 14.4128 125.102 14.2315 123.916C14.0734 122.856 13.0459 121.903 12.0881 121.531C11.273 121.276 10.422 121.155 9.56818 121.173C8.20592 121.108 6.77857 120.954 5.63017 120.243C4.48178 119.532 3.6356 118.109 4.00755 116.793C4.25767 116.112 4.6637 115.499 5.19313 115.003C5.72046 114.506 6.14809 113.913 6.45311 113.255C6.95524 111.944 6.06721 111.107 5.01181 110.498C1.29232 108.359 -0.381453 106.671 0.957563 105.054C2.29658 103.436 5.97423 102.729 9.74486 104.709C13.5155 106.69 16.6445 104.565 19.1319 104.984C23.0281 105.635 23.2559 108.387 22.7724 110.777C22.2888 113.167 27.1102 114.185 28.3051 117.054C29.2024 119.136 29.937 125.98 27.0963 129.802Z" fill="#CC3333"/>
<path d="M25.2088 131.119C25.1488 131.119 25.091 131.096 25.0476 131.054C25.0043 131.013 24.9788 130.956 24.9764 130.896C24.5114 117.622 7.4994 106.045 3.487 105.38C3.45676 105.376 3.42772 105.365 3.40153 105.35C3.37534 105.334 3.35252 105.313 3.33438 105.288C3.31624 105.264 3.30314 105.236 3.29582 105.206C3.2885 105.176 3.28711 105.146 3.29173 105.115C3.30308 105.055 3.33758 105.001 3.38792 104.965C3.43826 104.93 3.50048 104.915 3.56139 104.925C7.78766 105.622 24.9717 117.111 25.4413 130.877C25.4425 130.908 25.4378 130.938 25.4272 130.967C25.4167 130.996 25.4006 131.022 25.3798 131.045C25.3591 131.067 25.3342 131.085 25.3064 131.098C25.2787 131.111 25.2487 131.118 25.2181 131.119H25.2088Z" fill="white"/>
<path d="M98.1659 155.1C97.9799 152.775 96.1853 148.804 93.5165 145.978C90.8478 143.151 86.6076 141.793 83.9853 142.928C81.5444 143.988 82.0837 147.261 85.3057 149.2C88.5278 151.138 93.3259 153.51 94.9718 157.178L98.1519 161.581L98.1659 155.1Z" fill="#CC3333"/>
<path opacity="0.1" d="M98.1659 155.1C97.9799 152.775 96.1853 148.804 93.5165 145.978C90.8478 143.151 86.6076 141.793 83.9853 142.928C81.5444 143.988 82.0837 147.261 85.3057 149.2C88.5278 151.138 93.3259 153.51 94.9718 157.178L98.1519 161.581L98.1659 155.1Z" fill="black"/>
<path d="M98.1676 159.355H98.214C98.2553 159.349 98.295 159.336 98.3309 159.315C98.3668 159.293 98.3982 159.265 98.4233 159.232C98.4483 159.199 98.4666 159.161 98.4769 159.121C98.4873 159.08 98.4896 159.038 98.4837 158.997C97.326 150.382 88.5713 144.389 85.0889 143.729C85.048 143.721 85.0059 143.721 84.965 143.729C84.9241 143.737 84.8852 143.753 84.8507 143.777C84.8161 143.8 84.7865 143.83 84.7635 143.865C84.7406 143.9 84.7247 143.939 84.7169 143.98C84.7089 144.021 84.7089 144.063 84.7172 144.104C84.7254 144.145 84.7417 144.183 84.765 144.218C84.7884 144.253 84.8183 144.282 84.8532 144.305C84.888 144.328 84.927 144.344 84.968 144.352C88.2226 144.97 96.7495 150.898 97.8514 159.081C97.8625 159.157 97.9006 159.226 97.9586 159.277C98.0166 159.327 98.0907 159.355 98.1676 159.355Z" fill="white"/>
<path d="M97.8212 164.724C97.3563 163.445 95.5709 161.413 92.8417 159.842C89.8243 158.098 86.1374 157.48 85.1796 156.016C84.0312 154.249 85.4446 152.384 88.4063 152.51C91.3679 152.635 96.8588 156.229 98.1699 162.195L97.8212 164.724Z" fill="#CC3333"/>
<path d="M98.0457 163.469H98.1062C98.1476 163.461 98.1871 163.446 98.2223 163.422C98.2575 163.399 98.2877 163.369 98.3111 163.334C98.3345 163.299 98.3506 163.259 98.3586 163.218C98.3665 163.176 98.366 163.134 98.3573 163.093C97.4785 158.676 91.0764 154.101 86.9384 153.91C86.855 153.91 86.7744 153.941 86.7125 153.996C86.6506 154.052 86.6118 154.129 86.6037 154.212C86.6011 154.297 86.6317 154.38 86.6891 154.442C86.7464 154.505 86.8258 154.542 86.9105 154.547C90.7509 154.724 96.9206 159.127 97.7342 163.218C97.7492 163.29 97.7885 163.354 97.8452 163.399C97.902 163.445 97.9728 163.47 98.0457 163.469Z" fill="white"/>
<path d="M23.0318 133.248C22.7634 133.069 22.5547 132.813 22.4322 132.514C22.3096 132.215 22.2788 131.886 22.3437 131.57L38.8303 58.6029C39.0287 57.8973 39.4764 57.2877 40.0903 56.8873L138.192 0.258013C138.492 0.0993863 138.825 0.0137671 139.164 0.00811211C139.504 0.0024571 139.839 0.0769259 140.145 0.225468C140.409 0.406492 140.614 0.661417 140.733 0.958321C140.853 1.25522 140.883 1.58091 140.819 1.89459L124.327 74.8617C124.129 75.5684 123.679 76.1783 123.063 76.5773L24.9845 133.207C24.6853 133.367 24.3525 133.454 24.0132 133.461C23.6739 133.468 23.3376 133.396 23.0318 133.248Z" fill="#F0F0F0"/>
<path d="M40.7175 59.6839L24.2308 132.679C24.0914 133.302 24.4261 133.553 24.984 133.232L123.086 76.603C123.702 76.204 124.151 75.594 124.35 74.8874L140.818 1.89701C140.958 1.26934 140.623 1.02293 140.065 1.34373L41.9635 57.973C41.3561 58.3751 40.9138 58.9824 40.7175 59.6839Z" fill="#E6E6E6"/>
<path d="M142.013 1.30528C141.707 1.15745 141.371 1.08377 141.032 1.09024C140.693 1.0967 140.36 1.18312 140.06 1.34247L41.9585 57.9717C41.674 58.1559 41.4451 58.4144 41.2968 58.7192C41.1485 59.0241 41.0863 59.3637 41.117 59.7013L54.0283 150.08C54.0913 150.423 54.222 150.749 54.4128 151.041C54.6036 151.332 54.8507 151.583 55.1395 151.777C55.4438 151.926 55.7793 152 56.118 151.994C56.4568 151.987 56.7891 151.9 57.0876 151.74L155.171 95.1248C155.456 94.9402 155.685 94.6809 155.834 94.3752C155.982 94.0695 156.044 93.7289 156.012 93.3905L143.143 3.00229C143.078 2.65815 142.944 2.33058 142.75 2.03905C142.556 1.74752 142.305 1.49799 142.013 1.30528Z" fill="#F0F0F0"/>
<path d="M43.0234 60.7935L55.9161 151.172C55.9186 151.307 55.9585 151.439 56.0311 151.552C56.1038 151.666 56.2065 151.757 56.3278 151.816C56.4492 151.874 56.5844 151.898 56.7185 151.885C56.8526 151.872 56.9804 151.821 57.0877 151.74L155.171 95.1244C155.456 94.9398 155.685 94.6806 155.834 94.3749C155.982 94.0691 156.044 93.7286 156.012 93.3902L143.143 3.00196C143.141 2.8668 143.102 2.73476 143.03 2.62057C142.957 2.50638 142.855 2.41451 142.733 2.35522C142.612 2.29593 142.476 2.27153 142.341 2.28475C142.207 2.29797 142.079 2.34829 141.971 2.43009L43.8696 59.0593C43.5834 59.2433 43.3532 59.5023 43.204 59.8081C43.0548 60.1139 42.9923 60.4547 43.0234 60.7935Z" fill="#FAFAFA"/>
<path d="M24.3203 132.271L49.4269 117.77L50.1568 123.023L38.645 129.672C38.645 129.672 35.5764 130.76 34.3583 131.067C33.1402 131.374 24.3203 132.271 24.3203 132.271Z" fill="#E0E0E0"/>
<path d="M50.17 123.027L53.936 149.436L38.6582 129.676L50.17 123.027Z" fill="#E6E6E6"/>
<path d="M53.4843 150.312L39.7919 132.529C39.5646 132.263 39.2773 132.056 38.9538 131.925C38.6304 131.793 38.2801 131.74 37.9322 131.771L25.1278 133.631C24.4068 133.708 23.6787 133.575 23.031 133.249C22.5102 132.952 22.5986 132.608 23.2262 132.487L37.9415 129.655C38.2865 129.603 38.6391 129.642 38.9649 129.766C39.2908 129.891 39.5789 130.098 39.8012 130.367L55.3905 151.382C55.7718 151.898 55.6602 152.07 55.1395 151.768C54.5118 151.376 53.9526 150.885 53.4843 150.312Z" fill="#E0E0E0"/>
<path d="M140.842 1.53752C140.84 1.27555 140.774 1.01804 140.649 0.787739C140.524 0.557441 140.345 0.361455 140.126 0.217105C139.82 0.0707151 139.484 -0.00215699 139.145 0.00430093C138.806 0.0107588 138.473 0.0963688 138.173 0.254301L40.0717 56.8835C39.7726 57.071 39.5122 57.314 39.3046 57.5995C39.0742 57.8965 38.9051 58.2363 38.8071 58.5992L36.4824 68.9068L38.3701 69.9901L138.494 12.1985L140.819 1.89553C140.841 1.77754 140.85 1.65751 140.847 1.53752H140.842Z" fill="#CC3333"/>
<path opacity="0.2" d="M140.818 1.89701C140.958 1.26934 140.623 1.02293 140.065 1.34373L41.9636 57.973C41.3509 58.3726 40.9034 58.9803 40.7036 59.6839L38.3789 69.9916L138.494 12.2L140.818 1.89701Z" fill="black"/>
<path opacity="0.1" d="M41.211 58.6864C40.9802 58.9807 40.8124 59.3193 40.7182 59.6813L38.3935 69.989L36.5059 68.901L38.8305 58.5934C38.9285 58.2305 39.0976 57.8907 39.328 57.5938L41.211 58.6864Z" fill="black"/>
<path opacity="0.4" d="M140.842 1.53362C140.796 1.18492 140.493 1.06868 140.061 1.343L41.9595 57.9676C41.6582 58.1542 41.3974 58.3992 41.1923 58.6882L39.3047 57.5956C39.5123 57.3101 39.7727 57.0671 40.0718 56.8796L138.173 0.250395C138.473 0.0924626 138.806 0.00685258 139.145 0.000394668C139.484 -0.00606325 139.82 0.0668106 140.126 0.213201C140.345 0.35755 140.524 0.553536 140.649 0.783834C140.774 1.01413 140.84 1.27165 140.842 1.53362Z" fill="white"/>
<path d="M143.242 3.86708L143.145 3.00229C143.138 2.95999 143.128 2.91808 143.117 2.87676C143.119 2.86444 143.119 2.85188 143.117 2.83957C142.959 2.21392 142.577 1.66801 142.043 1.30528C141.737 1.15745 141.401 1.08377 141.062 1.09024C140.723 1.0967 140.39 1.18312 140.09 1.34247L41.9886 57.9717C41.6916 58.1556 41.4568 58.4245 41.3144 58.7435C41.1692 59.0405 41.1112 59.3726 41.1471 59.7013L43.0068 72.6497L44.8944 73.7423L144.972 15.9554L143.242 3.86708Z" fill="#CC3333"/>
<path opacity="0.1" d="M44.8749 73.7371L42.9873 72.6445L41.1275 59.696C41.0916 59.3674 41.1497 59.0353 41.2949 58.7383L43.1872 59.8262C43.0386 60.1222 42.9789 60.4548 43.0152 60.784L44.8749 73.7371Z" fill="black"/>
<path opacity="0.4" d="M143.088 2.83957C143.061 2.72244 143.005 2.61389 142.926 2.5239C142.846 2.43392 142.745 2.3654 142.632 2.32465C142.519 2.2839 142.398 2.27223 142.279 2.29072C142.16 2.3092 142.048 2.35724 141.953 2.43042L43.8515 59.0597C43.5534 59.2422 43.3182 59.5115 43.1774 59.8315L41.3223 58.7435C41.4657 58.424 41.7002 58.1539 41.9964 57.9671L140.098 1.34247C140.398 1.18312 140.731 1.0967 141.07 1.09024C141.409 1.08377 141.745 1.15745 142.051 1.30528C142.572 1.67329 142.94 2.21889 143.088 2.83957Z" fill="white"/>
<path d="M70.9154 136.197L69.7438 127.963C69.7421 127.856 69.7111 127.751 69.654 127.661C69.5969 127.57 69.516 127.497 69.42 127.449C69.3241 127.401 69.2169 127.38 69.11 127.389C69.0031 127.397 68.9007 127.435 68.8139 127.498L60.2638 132.436C60.0334 132.583 59.8484 132.792 59.7294 133.038C59.6104 133.284 59.562 133.559 59.5896 133.831L60.7566 142.083C60.7566 142.191 60.7866 142.297 60.8434 142.389C60.9001 142.481 60.9813 142.555 61.0779 142.603C61.1744 142.652 61.2825 142.672 61.39 142.662C61.4974 142.653 61.6001 142.613 61.6865 142.548L70.2366 137.611C70.4713 137.463 70.6595 137.252 70.7796 137.002C70.8997 136.752 70.9468 136.473 70.9154 136.197Z" fill="#CC3333"/>
<path d="M84.1386 128.572L82.9623 120.343C82.9623 120.235 82.9322 120.129 82.8755 120.037C82.8187 119.946 82.7376 119.871 82.641 119.823C82.5445 119.775 82.4364 119.754 82.3289 119.764C82.2214 119.774 82.1188 119.813 82.0324 119.878L73.4822 124.811C73.2522 124.959 73.0676 125.167 72.9486 125.413C72.8296 125.659 72.781 125.934 72.8081 126.206L73.9844 134.44C73.9844 134.548 74.0144 134.653 74.0712 134.745C74.1279 134.837 74.2091 134.911 74.3056 134.96C74.4022 135.008 74.5102 135.028 74.6177 135.019C74.7252 135.009 74.8279 134.969 74.9142 134.905L83.4644 129.967C83.6952 129.82 83.8805 129.612 83.9995 129.365C84.1186 129.119 84.1668 128.844 84.1386 128.572Z" fill="#EBEBEB"/>
<path d="M97.362 120.947L96.1857 112.718C96.1857 112.61 96.1556 112.504 96.0989 112.412C96.0422 112.321 95.961 112.246 95.8644 112.198C95.7679 112.15 95.6598 112.129 95.5523 112.139C95.4448 112.149 95.3422 112.188 95.2558 112.253L86.701 117.195C86.471 117.343 86.2863 117.551 86.1673 117.798C86.0484 118.044 85.9997 118.318 86.0268 118.59L87.2031 126.824C87.2031 126.932 87.2332 127.038 87.2899 127.13C87.3467 127.221 87.4279 127.296 87.5244 127.344C87.6209 127.392 87.729 127.413 87.8365 127.403C87.944 127.393 88.0467 127.354 88.133 127.289L96.6832 122.351C96.9163 122.204 97.1035 121.995 97.2235 121.746C97.3435 121.498 97.3915 121.221 97.362 120.947Z" fill="#EBEBEB"/>
<path d="M110.598 113.327L109.422 105.093C109.422 104.985 109.392 104.879 109.335 104.787C109.278 104.696 109.197 104.621 109.101 104.573C109.004 104.525 108.896 104.504 108.789 104.514C108.681 104.524 108.578 104.563 108.492 104.628L99.9047 109.575C99.6739 109.722 99.4886 109.93 99.3695 110.177C99.2505 110.423 99.2023 110.698 99.2305 110.97L100.407 119.199C100.407 119.307 100.437 119.413 100.494 119.505C100.55 119.596 100.632 119.671 100.728 119.719C100.825 119.767 100.933 119.788 101.04 119.778C101.148 119.768 101.25 119.729 101.337 119.664L109.887 114.731C110.125 114.587 110.318 114.379 110.444 114.131C110.57 113.883 110.623 113.604 110.598 113.327Z" fill="#EBEBEB"/>
<path d="M123.807 105.701L122.631 97.4484C122.631 97.3404 122.601 97.2346 122.544 97.1428C122.487 97.051 122.406 96.9768 122.31 96.9285C122.213 96.8803 122.105 96.8598 121.997 96.8695C121.89 96.8792 121.787 96.9187 121.701 96.9834L113.151 101.921C112.92 102.068 112.735 102.276 112.616 102.523C112.497 102.769 112.448 103.044 112.477 103.316L113.653 111.545C113.653 111.653 113.683 111.759 113.74 111.851C113.796 111.943 113.878 112.017 113.974 112.065C114.071 112.113 114.179 112.134 114.286 112.124C114.394 112.114 114.496 112.075 114.583 112.01L123.152 107.086C123.377 106.937 123.557 106.729 123.672 106.485C123.788 106.241 123.834 105.97 123.807 105.701Z" fill="#EBEBEB"/>
<path d="M137.03 98.0769L135.853 89.8429C135.853 89.735 135.823 89.6292 135.767 89.5373C135.71 89.4455 135.629 89.3713 135.532 89.3231C135.436 89.2748 135.328 89.2544 135.22 89.2641C135.113 89.2738 135.01 89.3132 134.924 89.378L126.373 94.3156C126.143 94.4626 125.957 94.6709 125.838 94.9173C125.719 95.1636 125.671 95.4382 125.699 95.7104L126.871 103.958C126.871 104.066 126.901 104.172 126.958 104.264C127.014 104.356 127.096 104.43 127.192 104.478C127.289 104.526 127.397 104.547 127.504 104.537C127.612 104.527 127.714 104.488 127.801 104.423L136.351 99.4857C136.584 99.3378 136.772 99.1274 136.892 98.8784C137.012 98.6294 137.06 98.3517 137.03 98.0769Z" fill="#EBEBEB"/>
<path d="M150.252 90.4754L149.076 82.2413C149.076 82.1334 149.046 82.0276 148.989 81.9358C148.932 81.844 148.851 81.7698 148.755 81.7215C148.658 81.6732 148.55 81.6528 148.442 81.6625C148.335 81.6722 148.232 81.7116 148.146 81.7764L139.596 86.714C139.365 86.8614 139.18 87.0698 139.061 87.3161C138.942 87.5623 138.894 87.8367 138.922 88.1088L140.093 96.3428C140.095 96.4501 140.126 96.5548 140.183 96.6456C140.24 96.7363 140.321 96.8097 140.417 96.8577C140.513 96.9056 140.62 96.9263 140.727 96.9175C140.834 96.9087 140.936 96.8708 141.023 96.8078L149.573 91.8702C149.805 91.7234 149.99 91.5152 150.11 91.2689C150.23 91.0226 150.279 90.7479 150.252 90.4754Z" fill="#EBEBEB"/>
<path d="M68.6193 120.087L67.443 111.862C67.4413 111.755 67.4103 111.65 67.3532 111.559C67.2961 111.468 67.2152 111.395 67.1193 111.347C67.0233 111.299 66.9161 111.278 66.8092 111.287C66.7023 111.296 66.5999 111.334 66.5131 111.397L57.963 116.335C57.7326 116.482 57.5476 116.69 57.4286 116.937C57.3096 117.183 57.2612 117.457 57.2888 117.729L58.4605 125.963C58.4621 126.071 58.4932 126.175 58.5503 126.266C58.6074 126.357 58.6883 126.43 58.7842 126.478C58.8801 126.526 58.9874 126.547 59.0943 126.538C59.2011 126.529 59.3035 126.491 59.3903 126.428L67.9405 121.491C68.1717 121.342 68.3574 121.132 68.4772 120.884C68.5969 120.636 68.6461 120.36 68.6193 120.087Z" fill="#CC3333"/>
<path d="M81.842 112.463L80.6657 104.229C80.664 104.122 80.6329 104.017 80.5758 103.926C80.5187 103.836 80.4378 103.762 80.3419 103.714C80.246 103.666 80.1388 103.646 80.0319 103.654C79.925 103.663 79.8226 103.701 79.7358 103.764L71.1856 108.702C70.9552 108.849 70.7703 109.057 70.6512 109.304C70.5322 109.55 70.4838 109.824 70.5115 110.097L71.6831 118.331C71.6848 118.438 71.7159 118.542 71.773 118.633C71.83 118.724 71.911 118.797 72.0069 118.845C72.1028 118.893 72.21 118.914 72.3169 118.905C72.4238 118.896 72.5262 118.858 72.613 118.795L81.1632 113.858C81.3929 113.71 81.5776 113.501 81.6973 113.255C81.817 113.009 81.867 112.735 81.842 112.463Z" fill="#EBEBEB"/>
<path d="M95.0646 104.838L93.8883 96.604C93.8867 96.4968 93.8556 96.3921 93.7985 96.3013C93.7414 96.2105 93.6605 96.1372 93.5646 96.0892C93.4687 96.0412 93.3614 96.0205 93.2545 96.0293C93.1477 96.0381 93.0452 96.0761 92.9585 96.1391L84.4083 101.077C84.1779 101.224 83.9929 101.432 83.8739 101.679C83.7549 101.925 83.7065 102.199 83.7341 102.471L84.9058 110.706C84.9074 110.813 84.9385 110.917 84.9956 111.008C85.0527 111.099 85.1336 111.172 85.2295 111.22C85.3254 111.268 85.4327 111.289 85.5396 111.28C85.6464 111.271 85.7489 111.233 85.8356 111.17L94.3858 106.233C94.6156 106.085 94.8003 105.876 94.92 105.63C95.0396 105.384 95.0897 105.11 95.0646 104.838Z" fill="#EBEBEB"/>
<path d="M108.274 97.213L107.098 88.979C107.096 88.8718 107.065 88.7671 107.008 88.6763C106.951 88.5855 106.87 88.5122 106.774 88.4642C106.678 88.4162 106.571 88.3955 106.464 88.4043C106.357 88.4131 106.254 88.4511 106.168 88.5141L97.6268 93.461C97.3968 93.6088 97.2121 93.8172 97.0931 94.0634C96.9741 94.3095 96.9255 94.5838 96.9526 94.8558L98.1243 103.09C98.1259 103.197 98.157 103.302 98.2141 103.393C98.2712 103.483 98.3521 103.557 98.448 103.605C98.5439 103.653 98.6512 103.673 98.7581 103.665C98.8649 103.656 98.9674 103.618 99.0541 103.555L107.604 98.6171C107.834 98.4673 108.018 98.2569 108.136 98.0092C108.255 97.7615 108.302 97.486 108.274 97.213Z" fill="#EBEBEB"/>
<path d="M121.51 89.5879L120.334 81.3585C120.334 81.2506 120.304 81.1448 120.247 81.053C120.191 80.9612 120.109 80.887 120.013 80.8387C119.916 80.7904 119.808 80.77 119.701 80.7797C119.593 80.7894 119.491 80.8288 119.404 80.8936L110.849 85.8266C110.619 85.9743 110.435 86.1828 110.316 86.4289C110.197 86.6751 110.148 86.9493 110.175 87.2214L111.347 95.4554C111.349 95.5626 111.38 95.6673 111.437 95.7581C111.494 95.8489 111.575 95.9222 111.671 95.9702C111.767 96.0182 111.874 96.0389 111.981 96.0301C112.088 96.0213 112.19 95.9833 112.277 95.9203L120.827 90.9734C121.056 90.8268 121.241 90.6202 121.362 90.376C121.482 90.1317 121.534 89.8592 121.51 89.5879Z" fill="#EBEBEB"/>
<path d="M134.732 81.9621L133.556 73.7374C133.556 73.6295 133.526 73.5237 133.469 73.4319C133.412 73.3401 133.331 73.2659 133.235 73.2176C133.138 73.1693 133.03 73.1489 132.922 73.1586C132.815 73.1683 132.712 73.2077 132.626 73.2725L124.08 78.2148C123.85 78.3618 123.664 78.5701 123.545 78.8164C123.426 79.0628 123.378 79.3374 123.406 79.6096L124.578 87.8389C124.58 87.9462 124.611 88.0509 124.668 88.1416C124.725 88.2324 124.806 88.3058 124.902 88.3538C124.998 88.4017 125.105 88.4224 125.212 88.4136C125.319 88.4048 125.421 88.3669 125.508 88.3039L134.058 83.3663C134.289 83.217 134.474 83.0069 134.593 82.7591C134.712 82.5114 134.76 82.2356 134.732 81.9621Z" fill="#EBEBEB"/>
<path d="M147.956 74.3425L146.779 66.1085C146.779 66.0006 146.749 65.8948 146.692 65.803C146.636 65.7112 146.555 65.637 146.458 65.5887C146.361 65.5404 146.253 65.52 146.146 65.5297C146.038 65.5394 145.936 65.5788 145.849 65.6436L137.295 70.5812C137.065 70.7292 136.881 70.9378 136.763 71.184C136.645 71.4302 136.597 71.7044 136.625 71.976L137.797 80.2054C137.798 80.3126 137.829 80.4173 137.887 80.5081C137.944 80.5989 138.025 80.6722 138.12 80.7202C138.216 80.7682 138.324 80.7889 138.43 80.7801C138.537 80.7713 138.64 80.7333 138.727 80.6703L147.277 75.7373C147.506 75.5887 147.691 75.3802 147.81 75.1344C147.93 74.8886 147.98 74.6148 147.956 74.3425Z" fill="#EBEBEB"/>
<path d="M66.3185 103.959L65.1469 95.7251C65.1452 95.6179 65.1141 95.5132 65.057 95.4224C64.9999 95.3316 64.919 95.2582 64.8231 95.2103C64.7272 95.1623 64.6199 95.1416 64.5131 95.1504C64.4062 95.1592 64.3038 95.1972 64.217 95.2602L55.6575 100.24C55.4283 100.388 55.2442 100.597 55.1253 100.843C55.0064 101.089 54.9573 101.363 54.9834 101.634L56.1596 109.864C56.1596 109.972 56.1897 110.078 56.2464 110.169C56.3032 110.261 56.3844 110.335 56.4809 110.384C56.5774 110.432 56.6855 110.452 56.793 110.443C56.9005 110.433 57.0032 110.394 57.0895 110.329L65.6443 105.354C65.8744 105.206 66.059 104.998 66.178 104.752C66.297 104.505 66.3456 104.231 66.3185 103.959Z" fill="#CC3333"/>
<path d="M79.5397 96.3537L78.368 88.1196C78.3664 88.0124 78.3353 87.9077 78.2782 87.8169C78.2211 87.7261 78.1402 87.6528 78.0443 87.6048C77.9484 87.5569 77.8411 87.5361 77.7342 87.5449C77.6274 87.5537 77.5249 87.5917 77.4382 87.6547L68.888 92.5923C68.6587 92.7409 68.4746 92.9495 68.3558 93.1954C68.2369 93.4413 68.1878 93.7152 68.2138 93.9871L69.3901 102.221C69.3918 102.328 69.4229 102.433 69.48 102.524C69.537 102.615 69.618 102.688 69.7139 102.736C69.8098 102.784 69.917 102.805 70.0239 102.796C70.1308 102.787 70.2332 102.749 70.32 102.686L78.8702 97.7485C79.0997 97.6005 79.2838 97.3918 79.4019 97.1456C79.5201 96.8994 79.5678 96.6253 79.5397 96.3537Z" fill="#EBEBEB"/>
<path d="M92.7621 88.7287L91.5904 80.4946C91.5888 80.3874 91.5577 80.2827 91.5006 80.1919C91.4435 80.1011 91.3626 80.0278 91.2667 79.9798C91.1708 79.9319 91.0635 79.9111 90.9566 79.9199C90.8498 79.9287 90.7474 79.9667 90.6606 80.0297L82.1104 84.9673C81.8815 85.1162 81.6977 85.3249 81.5789 85.5707C81.4601 85.8166 81.4107 86.0903 81.4362 86.3621L82.6125 94.5962C82.6142 94.7034 82.6453 94.8081 82.7024 94.8989C82.7595 94.9896 82.8404 95.063 82.9363 95.111C83.0322 95.1589 83.1394 95.1796 83.2463 95.1708C83.3532 95.1621 83.4556 95.1241 83.5424 95.0611L92.0926 90.1235C92.3221 89.9755 92.5062 89.7668 92.6243 89.5206C92.7425 89.2744 92.7902 89.0003 92.7621 88.7287Z" fill="#EBEBEB"/>
<path d="M105.987 81.1037L104.815 72.8696C104.813 72.7624 104.782 72.6577 104.725 72.5669C104.668 72.4761 104.587 72.4028 104.491 72.3548C104.395 72.3069 104.288 72.2861 104.181 72.2949C104.074 72.3037 103.972 72.3417 103.885 72.4047L95.335 77.3423C95.1061 77.4912 94.9223 77.6999 94.8035 77.9457C94.6847 78.1916 94.6353 78.4653 94.6608 78.7371L95.8371 86.9712C95.8388 87.0784 95.8699 87.1831 95.927 87.2739C95.9841 87.3646 96.065 87.438 96.1609 87.486C96.2568 87.5339 96.3641 87.5546 96.4709 87.5458C96.5778 87.537 96.6802 87.4991 96.767 87.4361L105.317 82.4985C105.547 82.3505 105.731 82.1418 105.849 81.8956C105.967 81.6494 106.015 81.3753 105.987 81.1037Z" fill="#EBEBEB"/>
<path d="M119.209 73.4787L118.038 65.2446C118.036 65.1374 118.005 65.0327 117.948 64.9419C117.891 64.8511 117.81 64.7778 117.714 64.7298C117.618 64.6819 117.511 64.6611 117.404 64.6699C117.297 64.6787 117.195 64.7167 117.108 64.7797L108.558 69.7173C108.329 69.8662 108.145 70.0749 108.026 70.3207C107.907 70.5666 107.858 70.8403 107.884 71.1121L109.06 79.3461C109.061 79.4534 109.093 79.5581 109.15 79.6489C109.207 79.7396 109.288 79.813 109.384 79.861C109.479 79.9089 109.587 79.9296 109.694 79.9208C109.8 79.912 109.903 79.8741 109.99 79.8111L118.54 74.8735C118.769 74.7255 118.953 74.5168 119.072 74.2706C119.19 74.0244 119.237 73.7503 119.209 73.4787Z" fill="#EBEBEB"/>
<path d="M132.45 65.8341L131.279 57.6001C131.277 57.4929 131.246 57.3882 131.189 57.2974C131.132 57.2066 131.051 57.1332 130.955 57.0853C130.859 57.0373 130.752 57.0166 130.645 57.0254C130.538 57.0342 130.436 57.0722 130.349 57.1352L121.757 62.1146C121.528 62.2635 121.344 62.4722 121.225 62.7181C121.107 62.9639 121.057 63.2376 121.083 63.5094L122.259 71.7435C122.261 71.8507 122.292 71.9554 122.349 72.0462C122.406 72.137 122.487 72.2103 122.583 72.2583C122.679 72.3062 122.786 72.3269 122.893 72.3182C123 72.3094 123.102 72.2714 123.189 72.2084L131.758 67.2289C131.992 67.0843 132.181 66.877 132.303 66.6305C132.426 66.384 132.477 66.1081 132.45 65.8341Z" fill="#EBEBEB"/>
<path d="M145.655 58.2279L144.483 49.9985C144.482 49.8913 144.451 49.7866 144.393 49.6958C144.336 49.605 144.255 49.5317 144.16 49.4837C144.064 49.4358 143.956 49.4151 143.849 49.4238C143.743 49.4326 143.64 49.4706 143.553 49.5336L135.003 54.4666C134.774 54.6151 134.59 54.8237 134.471 55.0697C134.352 55.3156 134.303 55.5895 134.329 55.8614L135.505 64.0954C135.507 64.2026 135.538 64.3073 135.595 64.3981C135.652 64.4889 135.733 64.5623 135.829 64.6102C135.925 64.6582 136.032 64.6789 136.139 64.6701C136.246 64.6613 136.348 64.6233 136.435 64.5603L145.004 59.6134C145.229 59.4642 145.409 59.2561 145.523 59.0118C145.638 58.7675 145.684 58.4963 145.655 58.2279Z" fill="#EBEBEB"/>
<path d="M64.0194 87.8652L62.8432 79.6359C62.8432 79.5279 62.8131 79.4221 62.7564 79.3303C62.6996 79.2385 62.6184 79.1643 62.5219 79.116C62.4254 79.0678 62.3173 79.0473 62.2098 79.057C62.1023 79.0667 61.9996 79.1062 61.9133 79.1709L53.3631 84.1039C53.1331 84.2517 52.9484 84.4601 52.8294 84.7063C52.7105 84.9524 52.6618 85.2267 52.6889 85.4987L53.8745 93.7327C53.8745 93.8407 53.9046 93.9465 53.9613 94.0383C54.0181 94.1301 54.0993 94.2043 54.1958 94.2525C54.2923 94.3008 54.4004 94.3212 54.5079 94.3116C54.6154 94.3019 54.7181 94.2624 54.8044 94.1977L63.3546 89.26C63.5836 89.1119 63.7671 88.903 63.8844 88.6567C64.0018 88.4105 64.0486 88.1365 64.0194 87.8652Z" fill="#CC3333"/>
<path d="M77.2426 80.248L76.0663 72.0187C76.0663 71.9107 76.0363 71.8049 75.9795 71.7131C75.9228 71.6213 75.8416 71.5471 75.7451 71.4989C75.6485 71.4506 75.5405 71.4302 75.433 71.4398C75.3255 71.4495 75.2228 71.489 75.1365 71.5537L66.5863 76.4914C66.3555 76.6384 66.1702 76.8467 66.0512 77.093C65.9321 77.3394 65.884 77.614 65.9121 77.8862L67.0884 86.1155C67.0884 86.2235 67.1185 86.3293 67.1752 86.4211C67.232 86.5129 67.3131 86.5871 67.4097 86.6354C67.5062 86.6836 67.6143 86.7041 67.7218 86.6944C67.8293 86.6847 67.9319 86.6452 68.0183 86.5805L76.5685 81.6429C76.7992 81.4958 76.9845 81.2875 77.1036 81.0412C77.2227 80.7948 77.2708 80.5202 77.2426 80.248Z" fill="#EBEBEB"/>
<path d="M90.4653 72.616L89.289 64.382C89.289 64.274 89.2589 64.1682 89.2022 64.0764C89.1455 63.9846 89.0643 63.9104 88.9677 63.8621C88.8712 63.8139 88.7631 63.7934 88.6556 63.8031C88.5481 63.8128 88.4455 63.8523 88.3591 63.917L79.8089 68.8546C79.5782 69.0016 79.3929 69.21 79.2738 69.4563C79.1548 69.7027 79.1066 69.9773 79.1348 70.2494L80.3111 78.4788C80.3111 78.5867 80.3411 78.6925 80.3979 78.7844C80.4546 78.8762 80.5358 78.9504 80.6323 78.9986C80.7289 79.0469 80.8369 79.0673 80.9444 79.0576C81.0519 79.0479 81.1546 79.0085 81.2409 78.9438L89.7911 74.0108C90.0211 73.863 90.2058 73.6545 90.3248 73.4084C90.4438 73.1622 90.4924 72.888 90.4653 72.616Z" fill="#EBEBEB"/>
<path d="M103.69 64.991L102.514 56.757C102.514 56.649 102.484 56.5432 102.427 56.4514C102.37 56.3596 102.289 56.2854 102.192 56.2371C102.096 56.1889 101.988 56.1684 101.88 56.1781C101.773 56.1878 101.67 56.2273 101.584 56.292L93.0336 61.2296C92.8028 61.3766 92.6175 61.585 92.4984 61.8313C92.3794 62.0777 92.3312 62.3523 92.3594 62.6245L93.531 70.8585C93.5327 70.9657 93.5638 71.0704 93.6209 71.1612C93.678 71.252 93.7589 71.3253 93.8548 71.3733C93.9507 71.4212 94.058 71.442 94.1648 71.4332C94.2717 71.4244 94.3741 71.3864 94.4609 71.3234L103.011 66.3858C103.242 66.2386 103.428 66.0304 103.547 65.7842C103.667 65.538 103.717 65.2635 103.69 64.991Z" fill="#EBEBEB"/>
<path d="M116.911 57.366L115.734 49.132C115.734 49.024 115.704 48.9182 115.648 48.8264C115.591 48.7346 115.51 48.6604 115.413 48.6121C115.317 48.5639 115.208 48.5434 115.101 48.5531C114.993 48.5628 114.891 48.6023 114.804 48.667L106.254 53.6046C106.023 53.7516 105.838 53.96 105.719 54.2063C105.6 54.4527 105.552 54.7273 105.58 54.9994L106.752 63.2335C106.753 63.3407 106.785 63.4454 106.842 63.5362C106.899 63.627 106.98 63.7003 107.076 63.7483C107.171 63.7962 107.279 63.817 107.386 63.8082C107.492 63.7994 107.595 63.7614 107.682 63.6984L116.232 58.7608C116.463 58.614 116.649 58.4058 116.769 58.1596C116.889 57.9133 116.938 57.6385 116.911 57.366Z" fill="#EBEBEB"/>
<path d="M130.125 49.7449L128.949 41.5109C128.949 41.4029 128.919 41.2971 128.862 41.2053C128.805 41.1135 128.724 41.0393 128.628 40.991C128.531 40.9428 128.423 40.9223 128.316 40.932C128.208 40.9417 128.105 40.9812 128.019 41.0459L119.469 45.9835C119.238 46.1309 119.053 46.3393 118.934 46.5856C118.815 46.8318 118.767 47.1063 118.795 47.3784L119.971 55.6077C119.973 55.715 120.004 55.8197 120.061 55.9104C120.118 56.0012 120.199 56.0746 120.295 56.1225C120.391 56.1705 120.498 56.1912 120.605 56.1824C120.712 56.1736 120.814 56.1357 120.901 56.0727L129.451 51.135C129.681 50.988 129.865 50.7804 129.984 50.535C130.103 50.2897 130.152 50.0162 130.125 49.7449Z" fill="#EBEBEB"/>
<path d="M143.358 42.1238L142.181 33.8898C142.181 33.7818 142.151 33.676 142.095 33.5842C142.038 33.4924 141.957 33.4182 141.86 33.3699C141.764 33.3217 141.655 33.3012 141.548 33.3109C141.44 33.3206 141.338 33.3601 141.251 33.4248L132.701 38.3625C132.471 38.5098 132.286 38.7182 132.167 38.9645C132.048 39.2107 131.999 39.4852 132.027 39.7573L133.199 47.9913C133.2 48.0985 133.231 48.2032 133.289 48.294C133.346 48.3848 133.427 48.4581 133.523 48.5061C133.618 48.5541 133.726 48.5748 133.833 48.566C133.939 48.5572 134.042 48.5192 134.129 48.4562L142.679 43.5186C142.91 43.3718 143.096 43.1636 143.216 42.9174C143.336 42.6711 143.385 42.3963 143.358 42.1238Z" fill="#EBEBEB"/>
<path d="M61.9894 73.3077L61.6918 71.2062C61.6918 71.0982 61.6618 70.9924 61.605 70.9006C61.5483 70.8088 61.4671 70.7346 61.3705 70.6864C61.274 70.6381 61.1659 70.6177 61.0584 70.6273C60.951 70.637 60.8483 70.6765 60.7619 70.7412L52.2071 75.6882C51.9767 75.8355 51.7917 76.044 51.6727 76.2902C51.5537 76.5364 51.5053 76.8109 51.533 77.083L51.8259 79.1845C51.8275 79.2917 51.8586 79.3964 51.9157 79.4872C51.9728 79.578 52.0537 79.6513 52.1496 79.6993C52.2455 79.7473 52.3528 79.768 52.4597 79.7592C52.5665 79.7504 52.6689 79.7124 52.7557 79.6494L61.3152 74.6932C61.543 74.5454 61.7261 74.3383 61.8449 74.0942C61.9637 73.85 62.0137 73.5781 61.9894 73.3077Z" fill="#E6E6E6"/>
<path d="M75.212 65.6866L74.9145 63.5851C74.9145 63.4771 74.8844 63.3713 74.8277 63.2795C74.7709 63.1877 74.6897 63.1135 74.5932 63.0653C74.4967 63.017 74.3886 62.9966 74.2811 63.0063C74.1736 63.0159 74.0709 63.0554 73.9846 63.1201L65.4298 68.0671C65.1994 68.2145 65.0144 68.4229 64.8954 68.6691C64.7764 68.9153 64.728 69.1898 64.7556 69.4619L65.0485 71.5634C65.0502 71.6706 65.0813 71.7753 65.1384 71.8661C65.1955 71.9569 65.2764 72.0302 65.3723 72.0782C65.4682 72.1262 65.5754 72.1469 65.6823 72.1381C65.7892 72.1293 65.8916 72.0913 65.9784 72.0283L74.5332 67.0907C74.7648 66.942 74.9508 66.7322 75.0706 66.4844C75.1904 66.2366 75.2394 65.9605 75.212 65.6866Z" fill="#E6E6E6"/>
<path d="M88.4347 58.061L88.1371 55.9595C88.1355 55.8522 88.1044 55.7475 88.0473 55.6568C87.9902 55.566 87.9093 55.4926 87.8134 55.4447C87.7174 55.3967 87.6102 55.376 87.5033 55.3848C87.3965 55.3936 87.294 55.4315 87.2073 55.4945L78.6524 60.4415C78.422 60.5888 78.2371 60.7973 78.118 61.0435C77.999 61.2897 77.9506 61.5642 77.9783 61.8363L78.2712 63.9378C78.2712 64.0457 78.3012 64.1515 78.358 64.2433C78.4147 64.3351 78.4959 64.4093 78.5924 64.4576C78.689 64.5059 78.7971 64.5263 78.9045 64.5166C79.012 64.5069 79.1147 64.4675 79.2011 64.4027L87.7559 59.4651C87.9875 59.3164 88.1735 59.1066 88.2933 58.8588C88.4131 58.611 88.462 58.3349 88.4347 58.061Z" fill="#E6E6E6"/>
<path d="M101.657 50.4406L101.36 48.3345C101.358 48.2273 101.327 48.1225 101.27 48.0318C101.213 47.941 101.132 47.8676 101.036 47.8197C100.94 47.7717 100.833 47.751 100.726 47.7598C100.619 47.7686 100.517 47.8065 100.43 47.8695L91.8751 52.8165C91.6447 52.9639 91.4597 53.1723 91.3407 53.4185C91.2217 53.6647 91.1733 53.9392 91.2009 54.2113L91.4938 56.3128C91.4938 56.4207 91.5239 56.5265 91.5806 56.6183C91.6374 56.7101 91.7186 56.7843 91.8151 56.8326C91.9116 56.8809 92.0197 56.9013 92.1272 56.8916C92.2347 56.8819 92.3374 56.8425 92.4237 56.7777L100.979 51.8447C101.209 51.6953 101.395 51.4853 101.514 51.2377C101.634 50.9901 101.684 50.7144 101.657 50.4406Z" fill="#E6E6E6"/>
<path d="M114.88 42.8156L114.582 40.7095C114.581 40.6023 114.549 40.4975 114.492 40.4068C114.435 40.316 114.354 40.2426 114.258 40.1947C114.163 40.1467 114.055 40.126 113.948 40.1348C113.842 40.1436 113.739 40.1815 113.652 40.2445L105.097 45.1915C104.867 45.3392 104.683 45.5477 104.564 45.7938C104.445 46.04 104.396 46.3142 104.423 46.5863L104.716 48.6878C104.716 48.7957 104.746 48.9015 104.803 48.9933C104.86 49.0851 104.941 49.1593 105.037 49.2076C105.134 49.2559 105.242 49.2763 105.35 49.2666C105.457 49.2569 105.56 49.2175 105.646 49.1527L114.201 44.2197C114.432 44.0703 114.617 43.8603 114.737 43.6127C114.857 43.3651 114.906 43.0894 114.88 42.8156Z" fill="#E6E6E6"/>
<path d="M128.102 35.1905L127.805 33.089C127.805 32.9811 127.775 32.8753 127.718 32.7834C127.661 32.6916 127.58 32.6174 127.484 32.5692C127.387 32.5209 127.279 32.5005 127.171 32.5102C127.064 32.5199 126.961 32.5593 126.875 32.624L118.32 37.5663C118.09 37.7141 117.905 37.9226 117.786 38.1687C117.668 38.4149 117.619 38.6891 117.646 38.9611L117.939 41.0673C117.941 41.1745 117.972 41.2792 118.029 41.37C118.086 41.4608 118.167 41.5341 118.263 41.5821C118.359 41.6301 118.466 41.6508 118.573 41.642C118.68 41.6332 118.782 41.5952 118.869 41.5322L127.424 36.5946C127.655 36.4455 127.841 36.2356 127.96 35.9879C128.08 35.7402 128.129 35.4643 128.102 35.1905Z" fill="#E6E6E6"/>
<path d="M141.32 27.5655L141.027 25.464C141.027 25.3561 140.997 25.2503 140.94 25.1584C140.884 25.0666 140.803 24.9924 140.706 24.9442C140.609 24.8959 140.501 24.8755 140.394 24.8852C140.286 24.8949 140.184 24.9343 140.097 24.999L131.547 29.9367C131.316 30.0837 131.131 30.292 131.012 30.5384C130.893 30.7847 130.845 31.0593 130.873 31.3315L131.166 33.433C131.168 33.5402 131.199 33.6449 131.256 33.7357C131.313 33.8265 131.394 33.8999 131.49 33.9478C131.586 33.9958 131.693 34.0165 131.8 34.0077C131.907 33.9989 132.009 33.9609 132.096 33.8979L140.651 28.9603C140.88 28.8119 141.064 28.6032 141.182 28.3571C141.3 28.111 141.348 27.8371 141.32 27.5655Z" fill="#E6E6E6"/>
<path opacity="0.2" d="M52.0157 60.8963C51.9736 60.2819 52.1004 59.6678 52.3824 59.1204C52.6643 58.5729 53.0906 58.113 53.6151 57.7905C54.6565 57.1907 55.6282 57.6045 55.791 58.7204C55.8341 59.3353 55.7073 59.9504 55.4244 60.4981C55.1415 61.0459 54.7134 61.5053 54.1869 61.8261C53.1501 62.4259 52.1784 62.0121 52.0157 60.8963Z" fill="black"/>
<path opacity="0.2" d="M65.2524 53.2821C65.2093 52.6676 65.3356 52.0531 65.6176 51.5054C65.8997 50.9578 66.3265 50.4981 66.8518 50.1763C67.8932 49.5719 68.8649 49.9857 69.0277 51.1062C69.0705 51.7205 68.9435 52.3347 68.6606 52.8817C68.3776 53.4286 67.9497 53.8872 67.4236 54.2073C66.3822 54.7885 65.4105 54.3747 65.2524 53.2821Z" fill="black"/>
<path opacity="0.2" d="M78.4614 45.6336C78.4183 45.0192 78.5446 44.4046 78.8266 43.857C79.1086 43.3094 79.5355 42.8496 80.0608 42.5278C81.1022 41.9234 82.0786 42.3372 82.2367 43.4577C82.2794 44.0715 82.1529 44.6852 81.8708 45.2321C81.5888 45.7789 81.1621 46.2378 80.6373 46.5588C79.5958 47.1586 78.6195 46.7448 78.4614 45.6336Z" fill="black"/>
<path opacity="0.2" d="M104.897 30.3689C104.854 29.7544 104.98 29.1399 105.262 28.5923C105.544 28.0447 105.971 27.5849 106.496 27.2631C107.538 26.6634 108.509 27.0772 108.668 28.193C108.713 28.8078 108.587 29.4231 108.305 29.9711C108.023 30.5191 107.595 30.9785 107.068 31.2988C106.027 31.8939 105.055 31.4848 104.897 30.3689Z" fill="black"/>
<path opacity="0.2" d="M118.13 22.7352C118.086 22.1206 118.211 21.5057 118.494 20.9578C118.776 20.41 119.203 19.9504 119.729 19.6294C120.771 19.025 121.742 19.4388 121.905 20.5593C121.948 21.1743 121.821 21.7893 121.538 22.3371C121.256 22.8848 120.827 23.3442 120.301 23.6651C119.26 24.2602 118.288 23.8464 118.13 22.7352Z" fill="black"/>
<path opacity="0.2" d="M131.338 15.1063C131.295 14.4918 131.422 13.8773 131.704 13.3297C131.986 12.782 132.412 12.3223 132.938 12.0005C133.979 11.3961 134.956 11.8099 135.114 12.9304C135.156 13.5442 135.03 14.1579 134.748 14.7047C134.466 15.2515 134.039 15.7105 133.514 16.0315C132.45 16.6313 131.52 16.2175 131.338 15.1063Z" fill="black"/>
<path d="M50.6477 48.3333C49.2529 47.5196 47.886 47.4034 46.8445 48.0032C45.8031 48.6029 45.2266 49.8304 45.2266 51.4623C45.2356 52.2256 45.3483 52.9842 45.5613 53.7172L46.3889 53.2523C46.2403 52.6702 46.1623 52.0723 46.1564 51.4716C46.1564 50.1884 46.5656 49.2446 47.3095 48.8168C47.6147 48.6464 47.9596 48.5598 48.3091 48.5658C48.9685 48.5972 49.6088 48.7973 50.1688 49.1469C52.6423 50.5789 54.6555 54.066 54.6555 56.9207C54.6568 57.1242 54.646 57.3275 54.6229 57.5297C54.6115 57.9346 54.5045 58.331 54.3106 58.6865C54.1166 59.0421 53.8413 59.3467 53.5071 59.5754C53.0808 59.8057 52.5891 59.8843 52.1123 59.7986C52.0184 60.0992 51.979 60.4141 51.996 60.7285C52.1698 60.7561 52.3455 60.7701 52.5214 60.7703C53.0335 60.7767 53.5378 60.645 53.9813 60.3891C54.3964 60.1288 54.7482 59.7792 55.0112 59.3658C55.2742 58.9524 55.4418 58.4856 55.5017 57.9993C55.5643 57.6463 55.5954 57.2885 55.5946 56.93C55.5993 53.7451 53.3769 49.9094 50.6477 48.3333Z" fill="#F5F5F5"/>
<path d="M63.8801 40.7005C62.4853 39.8868 61.1184 39.7706 60.077 40.3704C59.0355 40.9701 58.459 42.1976 58.459 43.8295C58.4681 44.5928 58.5807 45.3514 58.7937 46.0844L59.6213 45.6195C59.4727 45.0374 59.3947 44.4395 59.3889 43.8388C59.3889 42.5556 59.798 41.6117 60.5419 41.184C60.8471 41.0136 61.192 40.927 61.5415 40.9329C62.2009 40.9644 62.8413 41.1645 63.4013 41.5141C65.8747 42.9461 67.8879 46.4331 67.8879 49.2878C67.8893 49.4913 67.8784 49.6947 67.8553 49.8969C67.844 50.3018 67.7369 50.6982 67.543 51.0537C67.349 51.4093 67.0737 51.7139 66.7395 51.9426C66.3133 52.1728 65.8215 52.2515 65.3447 52.1658C65.2508 52.4664 65.2115 52.7813 65.2285 53.0957C65.4022 53.1233 65.5779 53.1373 65.7538 53.1375C66.2659 53.1439 66.7702 53.0122 67.2137 52.7563C67.6288 52.496 67.9807 52.1464 68.2437 51.733C68.5067 51.3196 68.6742 50.8528 68.7341 50.3665C68.7967 50.0135 68.8278 49.6556 68.8271 49.2971C68.8317 46.1263 66.6093 42.2766 63.8801 40.7005Z" fill="#F5F5F5"/>
<path d="M77.0911 33.0716C75.6963 32.2579 74.3294 32.1417 73.2879 32.7415C72.2464 33.3412 71.6699 34.5687 71.6699 36.2006C71.679 36.9639 71.7916 37.7225 72.0047 38.4555L72.8323 37.9906C72.6837 37.4085 72.6056 36.8106 72.5998 36.2099C72.5998 34.9267 73.0089 33.9828 73.7528 33.5551C74.058 33.3847 74.4029 33.298 74.7524 33.304C75.4119 33.3355 76.0522 33.5356 76.6122 33.8852C79.0857 35.3172 81.0988 38.8042 81.0988 41.6589C81.1002 41.8624 81.0893 42.0658 81.0663 42.268C81.0549 42.6729 80.9479 43.0693 80.7539 43.4248C80.56 43.7804 80.2847 44.085 79.9504 44.3137C79.5242 44.5439 79.0324 44.6226 78.5556 44.5369C78.4618 44.8374 78.4224 45.1524 78.4394 45.4668C78.6132 45.4944 78.7888 45.5084 78.9648 45.5086C79.4768 45.515 79.9811 45.3833 80.4247 45.1274C80.8398 44.8671 81.1916 44.5175 81.4546 44.1041C81.7176 43.6907 81.8851 43.2239 81.945 42.7376C82.0077 42.3846 82.0388 42.0267 82.038 41.6682C82.0427 38.4974 79.8202 34.6477 77.0911 33.0716Z" fill="#F5F5F5"/>
<path d="M103.531 17.8294C102.136 17.0157 100.769 16.8995 99.7274 17.4993C98.6859 18.099 98.1094 19.3265 98.1094 20.9584C98.1185 21.7217 98.2311 22.4803 98.4441 23.2133L99.2717 22.7484C99.1231 22.1663 99.0451 21.5684 99.0393 20.9677C99.0393 19.6845 99.4484 18.7407 100.192 18.3129C100.497 18.1425 100.842 18.0559 101.192 18.0618C101.851 18.0933 102.492 18.2934 103.052 18.643C105.525 20.075 107.538 23.562 107.538 26.4168C107.54 26.6202 107.529 26.8236 107.506 27.0258C107.494 27.4307 107.387 27.8271 107.193 28.1826C106.999 28.5382 106.724 28.8428 106.39 29.0715C105.964 29.3018 105.472 29.3804 104.995 29.2947C104.901 29.5953 104.862 29.9102 104.879 30.2246C105.053 30.2522 105.228 30.2662 105.404 30.2664C105.916 30.2728 106.421 30.1411 106.864 29.8852C107.279 29.6249 107.631 29.2753 107.894 28.8619C108.157 28.4485 108.325 27.9817 108.384 27.4954C108.447 27.1424 108.478 26.7846 108.477 26.426C108.482 23.2552 106.26 19.4055 103.531 17.8294Z" fill="#F5F5F5"/>
<path d="M116.763 10.1927C115.368 9.37902 114.001 9.26279 112.96 9.86255C111.918 10.4623 111.342 11.6898 111.342 13.3217C111.351 14.085 111.463 14.8436 111.677 15.5766L112.504 15.1117C112.356 14.5296 112.278 13.9317 112.272 13.331C112.272 12.0478 112.681 11.1039 113.425 10.6762C113.73 10.5058 114.075 10.4191 114.424 10.4251C115.084 10.4566 115.724 10.6567 116.284 11.0063C118.758 12.4383 120.771 15.9253 120.771 18.78C120.772 18.9835 120.761 19.1869 120.738 19.3891C120.727 19.7939 120.62 20.1903 120.426 20.5459C120.232 20.9015 119.957 21.2061 119.622 21.4348C119.196 21.665 118.704 21.7437 118.228 21.658C118.134 21.9585 118.094 22.2735 118.111 22.5879C118.285 22.6155 118.461 22.6295 118.637 22.6297C119.149 22.6361 119.653 22.5044 120.097 22.2485C120.512 21.9881 120.863 21.6386 121.126 21.2252C121.389 20.8118 121.557 20.345 121.617 19.8587C121.68 19.5057 121.711 19.1478 121.71 18.7893C121.715 15.6231 119.492 11.7688 116.763 10.1927Z" fill="#F5F5F5"/>
<path d="M129.973 2.55985C128.578 1.74621 127.211 1.62997 126.169 2.22974C125.128 2.82951 124.547 4.05694 124.547 5.68887C124.556 6.4522 124.669 7.21076 124.882 7.94381L125.709 7.47887C125.561 6.89677 125.483 6.29891 125.477 5.69817C125.477 4.41494 125.886 3.47112 126.63 3.04338C126.935 2.87294 127.28 2.78632 127.629 2.79231C128.289 2.82377 128.929 3.02387 129.489 3.37349C131.963 4.80549 133.976 8.29251 133.976 11.1472C133.977 11.3507 133.966 11.5541 133.943 11.7563C133.932 12.1611 133.825 12.5575 133.631 12.9131C133.437 13.2686 133.162 13.5732 132.827 13.802C132.401 14.0322 131.909 14.1109 131.433 14.0252C131.339 14.3257 131.299 14.6406 131.316 14.955C131.49 14.9826 131.666 14.9966 131.842 14.9969C132.354 15.0033 132.858 14.8716 133.302 14.6156C133.717 14.3553 134.069 14.0058 134.332 13.5924C134.595 13.179 134.762 12.7122 134.822 12.2259C134.885 11.8729 134.916 11.515 134.915 11.1565C134.924 7.98565 132.702 4.13598 129.973 2.55985Z" fill="#F5F5F5"/>
<path d="M143.714 123.49L140.589 128.916C140.384 129.255 140.322 129.662 140.416 130.047C140.511 130.432 140.754 130.764 141.094 130.969C141.433 131.174 141.839 131.236 142.224 131.142C142.609 131.047 142.941 130.804 143.146 130.464L146.289 125.006C146.591 124.485 146.266 123.727 145.559 123.318C144.853 122.909 144.016 122.984 143.714 123.49Z" fill="#455A64"/>
<path d="M168.577 113.936L174.003 117.06C174.17 117.163 174.355 117.232 174.549 117.263C174.743 117.294 174.941 117.286 175.131 117.239C175.322 117.193 175.501 117.109 175.659 116.993C175.817 116.876 175.95 116.729 176.051 116.561C176.151 116.393 176.217 116.206 176.245 116.012C176.272 115.817 176.261 115.62 176.212 115.43C176.162 115.24 176.075 115.062 175.956 114.906C175.837 114.75 175.689 114.619 175.519 114.522L170.06 111.402C169.539 111.1 168.782 111.425 168.372 112.132C167.963 112.839 168.056 113.634 168.577 113.936Z" fill="#455A64"/>
<path d="M174.589 89.4735H174.561L161.343 81.8439H161.306C158.404 80.1933 154.406 80.4491 149.994 82.9876C141.127 88.1019 133.939 100.558 133.939 110.795C133.939 115.91 135.729 119.485 138.617 121.168H138.64L151.858 128.802H151.891C154.792 130.462 158.795 130.197 163.212 127.663C172.074 122.549 179.261 110.093 179.261 99.8601C179.261 94.7458 177.476 91.1565 174.589 89.4735Z" fill="#CC3333"/>
<path opacity="0.1" d="M151.644 128.652L138.626 121.148H138.598C135.711 119.46 133.926 115.871 133.926 110.775C133.926 106.21 135.358 101.207 137.724 96.6133L150.942 104.243C148.571 108.836 147.144 113.839 147.144 118.405C147.153 123.38 148.864 126.922 151.644 128.652Z" fill="black"/>
<path opacity="0.4" d="M174.562 115.668C180.832 104.809 180.832 93.0727 174.563 89.4535C168.294 85.8342 158.13 91.7028 151.861 102.561C145.592 113.42 145.592 125.157 151.86 128.776C158.129 132.395 168.293 126.527 174.562 115.668Z" fill="white"/>
<path d="M156.04 126.593C150.963 126.593 150.414 120.856 150.414 118.387C150.414 109.358 157.021 97.9297 164.827 93.4012C166.817 92.2529 168.733 91.6484 170.369 91.6484C175.446 91.6484 175.995 97.3858 175.995 99.8546C175.995 108.884 169.388 120.312 161.582 124.84C159.587 125.989 157.672 126.593 156.04 126.593Z" fill="#FAFAFA"/>
<path d="M159.651 119.578C159.626 119.583 159.601 119.583 159.576 119.578C159.518 119.557 159.471 119.514 159.444 119.459C159.417 119.403 159.413 119.339 159.432 119.281L162.989 109.122C163.009 109.063 163.052 109.015 163.108 108.988C163.163 108.961 163.228 108.957 163.286 108.978C163.345 108.998 163.393 109.041 163.42 109.097C163.447 109.153 163.451 109.217 163.43 109.275L159.883 119.42C159.867 119.469 159.836 119.511 159.794 119.539C159.752 119.568 159.701 119.582 159.651 119.578Z" fill="#CC3333"/>
<path d="M168.541 112.189C168.447 112.191 168.353 112.172 168.267 112.134L162.516 109.646V99.213C162.516 99.0281 162.589 98.8507 162.72 98.7199C162.851 98.5891 163.028 98.5156 163.213 98.5156C163.398 98.5156 163.575 98.5891 163.706 98.7199C163.837 98.8507 163.91 99.0281 163.91 99.213V108.73L168.82 110.855C168.966 110.92 169.085 111.033 169.157 111.174C169.23 111.316 169.251 111.479 169.219 111.635C169.186 111.791 169.101 111.931 168.978 112.032C168.855 112.133 168.701 112.188 168.541 112.189Z" fill="#37474F"/>
<path d="M163.213 106.939C164.254 106.335 165.1 106.823 165.1 108.027C165.062 108.679 164.871 109.313 164.543 109.878C164.215 110.444 163.759 110.924 163.213 111.282C162.166 111.886 161.32 111.398 161.32 110.189C161.36 109.537 161.552 108.904 161.881 108.339C162.209 107.775 162.665 107.296 163.213 106.939Z" fill="#CC3333"/>
<path d="M147.851 99.4513C145.573 103.389 141.282 105.175 138.055 103.31C136.162 102.216 134.782 100.414 134.217 98.3022C133.653 96.19 133.95 93.94 135.045 92.0472C136.139 90.1544 137.94 88.7739 140.053 88.2093C142.165 87.6447 144.415 87.9423 146.308 89.0367C149.525 90.943 150.12 95.5086 147.851 99.4513Z" fill="#455A64"/>
<path d="M138.054 103.312C141.281 105.172 145.572 103.391 147.851 99.4533C148.36 98.5705 148.737 97.6182 148.971 96.6265C148.841 96.7985 145.047 101.634 140.333 100.272C135.534 98.8768 134.632 95.1898 135.046 92.0469C134.504 92.984 134.151 94.0189 134.009 95.0923C133.867 96.1657 133.937 97.2566 134.217 98.3028C134.496 99.3489 134.979 100.33 135.637 101.189C136.296 102.049 137.117 102.77 138.054 103.312Z" fill="#37474F"/>
<path d="M136.73 91.2451L134.284 89.8503C134.117 89.747 133.932 89.678 133.738 89.6472C133.544 89.6164 133.346 89.6245 133.156 89.671C132.965 89.7174 132.786 89.8013 132.628 89.9178C132.47 90.0343 132.337 90.181 132.236 90.3495C132.136 90.5179 132.07 90.7046 132.042 90.8988C132.014 91.093 132.026 91.2908 132.075 91.4806C132.125 91.6704 132.212 91.8484 132.331 92.0044C132.45 92.1603 132.598 92.291 132.768 92.3888L135.242 93.8208C135.767 94.123 136.525 93.7976 136.934 93.0909C137.343 92.3842 137.25 91.5473 136.73 91.2451Z" fill="#CC3333"/>
<path d="M173.21 79.4515L174.604 77.0106C174.708 76.8438 174.777 76.6582 174.807 76.4644C174.838 76.2707 174.83 76.0728 174.784 75.8822C174.737 75.6917 174.653 75.5122 174.537 75.3544C174.42 75.1966 174.274 75.0635 174.105 74.963C173.937 74.8624 173.75 74.7964 173.556 74.7687C173.362 74.741 173.164 74.7523 172.974 74.8018C172.784 74.8513 172.606 74.9381 172.45 75.0571C172.294 75.1761 172.164 75.3249 172.066 75.4949L170.634 77.9684C170.332 78.4891 170.634 79.2469 171.364 79.6561C172.094 80.0652 172.903 79.9769 173.21 79.4515Z" fill="#CC3333"/>
<path d="M161.395 80.4596C161.936 79.5208 162.658 78.698 163.518 78.0381C164.378 77.3782 165.359 76.8941 166.406 76.6135C167.453 76.3328 168.545 76.2612 169.62 76.4026C170.694 76.5439 171.73 76.8956 172.669 77.4375C173.608 77.9794 174.431 78.7008 175.091 79.5607C175.751 80.4206 176.235 81.402 176.515 82.4489C176.796 83.4959 176.868 84.5879 176.726 85.6625C176.585 86.7372 176.233 87.7734 175.691 88.7122L161.395 80.4596Z" fill="#455A64"/>
<path d="M173.879 78.3164C174.344 79.2881 175.609 83.4028 173.879 84.4257C172.15 85.4485 164.162 82.0545 164.162 82.0545L175.693 88.7124C176.653 87.0408 176.997 85.0856 176.666 83.1865C176.335 81.2873 175.349 79.5642 173.879 78.3164Z" fill="#37474F"/>
</svg>
