<svg width="592" height="172" viewBox="0 0 592 172" fill="none" xmlns="http://www.w3.org/2000/svg">
<path d="M55 63.3504C50 66.5504 44.5 67.8504 38.6 67.8504C22.5 67.8504 10.8 56.3504 10.8 40.9504C10.8 25.3504 22.5 14.0504 38.7 14.0504C46.6 14.0504 53.2 16.5504 59 22.1504L65.2 15.9504C58.8 8.85044 49.4 5.15044 38.3 5.15044C16.6 5.15044 0.8 20.2504 0.8 40.9504C0.8 61.6504 16.6 76.7504 38.1 76.7504C47.9 76.7504 57.6 73.7504 64.6 67.8504V40.5504H55V63.3504ZM130.246 49.7504C130.246 33.4504 119.346 22.4504 104.046 22.4504C88.7461 22.4504 77.4461 33.7504 77.4461 49.4504C77.4461 65.2504 88.8461 76.5504 105.946 76.5504C114.746 76.5504 122.046 73.5504 126.846 67.9504L121.546 61.7504C117.646 66.0504 112.446 68.1504 106.246 68.1504C95.7461 68.1504 88.2461 61.9504 87.0461 52.6504H130.046C130.146 51.7504 130.246 50.5504 130.246 49.7504ZM104.046 30.5504C113.346 30.5504 120.046 36.8504 121.046 45.7504H87.0461C88.0461 36.7504 94.8461 30.5504 104.046 30.5504ZM170.377 65.9504C168.377 67.5504 165.677 68.4504 162.877 68.4504C157.577 68.4504 154.577 65.2504 154.577 59.5504V30.8504H169.777V22.9504H154.577V11.3504H144.977V22.9504H135.977V30.8504H144.977V59.9504C144.977 70.6504 151.077 76.5504 161.777 76.5504C166.077 76.5504 170.477 75.3504 173.377 72.8504L170.377 65.9504ZM24.4 117.45C15.9 117.45 8 119.85 2.5 124.25L6.5 131.45C10.6 127.95 17 125.75 23.3 125.75C32.8 125.75 37.5 130.45 37.5 138.55V140.45H22.3C6.5 140.45 1 147.45 1 155.95C1 165.15 8.6 171.55 20.6 171.55C28.9 171.55 34.8 168.75 38 163.95V170.95H47.1V138.95C47.1 124.45 38.9 117.45 24.4 117.45ZM22.2 164.15C14.9 164.15 10.5 160.85 10.5 155.55C10.5 151.05 13.2 147.35 22.7 147.35H37.5V154.75C35.1 160.85 29.4 164.15 22.2 164.15ZM91.6656 160.95C89.6656 162.55 86.9656 163.45 84.1656 163.45C78.8656 163.45 75.8656 160.25 75.8656 154.55V125.85H91.0656V117.95H75.8656V106.35H66.2656V117.95H57.2656V125.85H66.2656V154.95C66.2656 165.65 72.3656 171.55 83.0656 171.55C87.3656 171.55 91.7656 170.35 94.6656 167.85L91.6656 160.95ZM131.802 160.95C129.802 162.55 127.102 163.45 124.302 163.45C119.002 163.45 116.002 160.25 116.002 154.55V125.85H131.202V117.95H116.002V106.35H106.402V117.95H97.4023V125.85H106.402V154.95C106.402 165.65 112.502 171.55 123.202 171.55C127.502 171.55 131.902 170.35 134.802 167.85L131.802 160.95ZM192.551 144.75C192.551 128.45 181.651 117.45 166.351 117.45C151.051 117.45 139.751 128.75 139.751 144.45C139.751 160.25 151.151 171.55 168.251 171.55C177.051 171.55 184.351 168.55 189.151 162.95L183.851 156.75C179.951 161.05 174.751 163.15 168.551 163.15C158.051 163.15 150.551 156.95 149.351 147.65H192.351C192.451 146.75 192.551 145.55 192.551 144.75ZM166.351 125.55C175.651 125.55 182.351 131.85 183.351 140.75H149.351C150.351 131.75 157.151 125.55 166.351 125.55ZM234.181 117.45C225.781 117.45 218.981 120.55 215.081 125.95V117.95H205.881V170.95H215.481V143.65C215.481 132.15 222.081 126.05 232.281 126.05C241.381 126.05 246.581 131.15 246.581 141.55V170.95H256.181V140.45C256.181 124.85 247.081 117.45 234.181 117.45ZM300.748 160.95C298.748 162.55 296.048 163.45 293.248 163.45C287.948 163.45 284.948 160.25 284.948 154.55V125.85H300.148V117.95H284.948V106.35H275.348V117.95H266.348V125.85H275.348V154.95C275.348 165.65 281.448 171.55 292.148 171.55C296.448 171.55 300.848 170.35 303.748 167.85L300.748 160.95ZM320.154 107.75C323.954 107.75 326.654 104.95 326.654 101.35C326.654 97.9504 323.854 95.2504 320.154 95.2504C316.454 95.2504 313.654 98.0504 313.654 101.55C313.654 105.05 316.454 107.75 320.154 107.75ZM315.354 170.95H324.954V117.95H315.354V170.95ZM365.984 171.55C381.884 171.55 393.484 160.25 393.484 144.45C393.484 128.65 381.884 117.45 365.984 117.45C350.084 117.45 338.384 128.65 338.384 144.45C338.384 160.25 350.084 171.55 365.984 171.55ZM365.984 163.15C355.784 163.15 348.084 155.75 348.084 144.45C348.084 133.15 355.784 125.85 365.984 125.85C376.184 125.85 383.784 133.15 383.784 144.45C383.784 155.75 376.184 163.15 365.984 163.15ZM435.06 117.45C426.66 117.45 419.86 120.55 415.96 125.95V117.95H406.76V170.95H416.36V143.65C416.36 132.15 422.96 126.05 433.16 126.05C442.26 126.05 447.46 131.15 447.46 141.55V170.95H457.06V140.45C457.06 124.85 447.96 117.45 435.06 117.45Z" fill="#1F2933"/>
<path d="M287.738 75.9504L287.638 5.95043H279.438L250.638 55.1504L221.438 5.95043H213.238V75.9504H222.838V25.2504L248.138 67.4504H252.738L278.038 24.9504L278.138 75.9504H287.738ZM355.246 49.7504C355.246 33.4504 344.346 22.4504 329.046 22.4504C313.746 22.4504 302.446 33.7504 302.446 49.4504C302.446 65.2504 313.846 76.5504 330.946 76.5504C339.746 76.5504 347.046 73.5504 351.846 67.9504L346.546 61.7504C342.646 66.0504 337.446 68.1504 331.246 68.1504C320.746 68.1504 313.246 61.9504 312.046 52.6504H355.046C355.146 51.7504 355.246 50.5504 355.246 49.7504ZM329.046 30.5504C338.346 30.5504 345.046 36.8504 346.046 45.7504H312.046C313.046 36.7504 319.846 30.5504 329.046 30.5504ZM408.977 1.75044V30.9504C404.577 25.2504 397.977 22.4504 390.477 22.4504C374.977 22.4504 363.677 33.2504 363.677 49.4504C363.677 65.6504 374.977 76.5504 390.477 76.5504C398.277 76.5504 405.077 73.5504 409.377 67.5504V75.9504H418.577V1.75044H408.977ZM391.277 68.1504C381.077 68.1504 373.377 60.7504 373.377 49.4504C373.377 38.1504 381.077 30.8504 391.277 30.8504C401.377 30.8504 409.077 38.1504 409.077 49.4504C409.077 60.7504 401.377 68.1504 391.277 68.1504ZM441.541 12.7504C445.341 12.7504 448.041 9.95044 448.041 6.35044C448.041 2.95044 445.241 0.250437 441.541 0.250437C437.841 0.250437 435.041 3.05044 435.041 6.55044C435.041 10.0504 437.841 12.7504 441.541 12.7504ZM436.741 75.9504H446.341V22.9504H436.741V75.9504ZM487.77 76.5504C497.27 76.5504 505.17 72.5504 509.37 65.1504L502.07 60.5504C498.67 65.7504 493.47 68.1504 487.67 68.1504C477.27 68.1504 469.47 60.9504 469.47 49.4504C469.47 38.1504 477.27 30.8504 487.67 30.8504C493.47 30.8504 498.67 33.2504 502.07 38.4504L509.37 33.7504C505.17 26.3504 497.27 22.4504 487.77 22.4504C471.47 22.4504 459.77 33.6504 459.77 49.4504C459.77 65.2504 471.47 76.5504 487.77 76.5504ZM541.099 22.4504C532.599 22.4504 524.699 24.8504 519.199 29.2504L523.199 36.4504C527.299 32.9504 533.699 30.7504 539.999 30.7504C549.499 30.7504 554.199 35.4504 554.199 43.5504V45.4504H538.999C523.199 45.4504 517.699 52.4504 517.699 60.9504C517.699 70.1504 525.299 76.5504 537.299 76.5504C545.599 76.5504 551.499 73.7504 554.699 68.9504V75.9504H563.799V43.9504C563.799 29.4504 555.599 22.4504 541.099 22.4504ZM538.899 69.1504C531.599 69.1504 527.199 65.8504 527.199 60.5504C527.199 56.0504 529.899 52.3504 539.399 52.3504H554.199V59.7504C551.799 65.8504 546.099 69.1504 538.899 69.1504ZM581.565 75.9504H591.165V1.75044H581.565V75.9504Z" fill="#007FDD"/>
</svg>
