<svg width="256" height="20" viewBox="0 0 256 20" fill="none" xmlns="http://www.w3.org/2000/svg">
<path d="M9.60512 4.56594V6.58594C8.72512 5.20594 7.20512 4.48594 5.44512 4.48594C2.44512 4.48594 0.165117 6.54594 0.165117 9.56594C0.165117 12.5859 2.44512 14.6859 5.44512 14.6859C7.16512 14.6859 8.66512 13.9859 9.54512 12.6459V13.9859C9.54512 16.5859 8.32512 17.8059 5.66512 17.8059C4.04512 17.8059 2.52512 17.2659 1.52512 16.3659L0.805117 17.4459C1.90512 18.4859 3.78512 19.0659 5.70512 19.0659C9.18512 19.0659 10.9651 17.4259 10.9651 13.8059V4.56594H9.60512ZM5.58512 13.4259C3.26512 13.4259 1.60512 11.8459 1.60512 9.56594C1.60512 7.28594 3.26512 5.72594 5.58512 5.72594C7.90512 5.72594 9.58512 7.28594 9.58512 9.56594C9.58512 11.8459 7.90512 13.4259 5.58512 13.4259ZM14.9361 15.0859H16.3561V0.245937H14.9361V15.0859ZM24.6071 15.1859C27.6871 15.1859 29.9471 12.9459 29.9471 9.82594C29.9471 6.70594 27.6871 4.48594 24.6071 4.48594C21.5271 4.48594 19.2471 6.70594 19.2471 9.82594C19.2471 12.9459 21.5271 15.1859 24.6071 15.1859ZM24.6071 13.9259C22.3671 13.9259 20.6871 12.2859 20.6871 9.82594C20.6871 7.36594 22.3671 5.72594 24.6071 5.72594C26.8471 5.72594 28.5071 7.36594 28.5071 9.82594C28.5071 12.2859 26.8471 13.9259 24.6071 13.9259ZM38.2662 4.48594C36.5862 4.48594 35.1462 5.20594 34.2662 6.56594V0.245937H32.8462V15.0859H34.2062V13.0059C35.0662 14.4259 36.5262 15.1859 38.2662 15.1859C41.2662 15.1859 43.5062 13.0059 43.5062 9.82594C43.5062 6.64594 41.2662 4.48594 38.2662 4.48594ZM38.1662 13.9259C35.9262 13.9259 34.2462 12.2859 34.2462 9.82594C34.2462 7.36594 35.9262 5.72594 38.1662 5.72594C40.3862 5.72594 42.0862 7.36594 42.0862 9.82594C42.0862 12.2859 40.3862 13.9259 38.1662 13.9259ZM50.0223 4.48594C48.3623 4.48594 46.8023 5.00594 45.7423 5.90594L46.3823 6.96594C47.2423 6.20594 48.5223 5.72594 49.8823 5.72594C51.8423 5.72594 52.8623 6.70594 52.8623 8.50594V9.14594H49.5223C46.5023 9.14594 45.4623 10.5059 45.4623 12.1259C45.4623 13.9459 46.9223 15.1859 49.3023 15.1859C51.0423 15.1859 52.2823 14.5259 52.9223 13.4459V15.0859H54.2823V8.56594C54.2823 5.84594 52.7423 4.48594 50.0223 4.48594ZM49.5223 14.0659C47.8423 14.0659 46.8623 13.3059 46.8623 12.0859C46.8623 11.0059 47.5223 10.2059 49.5623 10.2059H52.8623V11.9259C52.3023 13.3059 51.1223 14.0659 49.5223 14.0659ZM58.1392 15.0859H59.5592V0.245937H58.1392V15.0859ZM63.5103 15.0859H64.9303V0.245937H63.5103V15.0859ZM76.3214 4.56594L72.3614 13.5059L68.4014 4.56594H66.9214L71.6214 15.0659L71.1614 16.0859C70.5614 17.4059 69.9214 17.8459 68.9814 17.8459C68.2214 17.8459 67.5814 17.5659 67.0614 17.0459L66.4014 18.1059C67.0414 18.7459 67.9814 19.0659 68.9614 19.0659C70.4614 19.0659 71.5814 18.4059 72.4614 16.3459L77.7214 4.56594H76.3214ZM88.6356 4.48594C86.9756 4.48594 85.4156 5.00594 84.3556 5.90594L84.9956 6.96594C85.8556 6.20594 87.1356 5.72594 88.4956 5.72594C90.4556 5.72594 91.4756 6.70594 91.4756 8.50594V9.14594H88.1356C85.1156 9.14594 84.0756 10.5059 84.0756 12.1259C84.0756 13.9459 85.5356 15.1859 87.9156 15.1859C89.6556 15.1859 90.8956 14.5259 91.5356 13.4459V15.0859H92.8956V8.56594C92.8956 5.84594 91.3556 4.48594 88.6356 4.48594ZM88.1356 14.0659C86.4556 14.0659 85.4756 13.3059 85.4756 12.0859C85.4756 11.0059 86.1356 10.2059 88.1756 10.2059H91.4756V11.9259C90.9156 13.3059 89.7356 14.0659 88.1356 14.0659ZM101.792 13.4259C101.392 13.7859 100.812 13.9659 100.232 13.9659C99.0525 13.9659 98.4125 13.2859 98.4125 12.0459V5.76594H101.612V4.56594H98.4125V2.26594H96.9925V4.56594H95.1125V5.76594H96.9925V12.1259C96.9925 14.0659 98.0925 15.1859 100.072 15.1859C100.892 15.1859 101.732 14.9459 102.292 14.4459L101.792 13.4259ZM117.552 4.56594L113.592 13.5059L109.632 4.56594H108.152L112.852 15.0659L112.392 16.0859C111.792 17.4059 111.152 17.8459 110.212 17.8459C109.452 17.8459 108.812 17.5659 108.292 17.0459L107.632 18.1059C108.272 18.7459 109.212 19.0659 110.192 19.0659C111.692 19.0659 112.812 18.4059 113.692 16.3459L118.952 4.56594H117.552ZM124.959 15.1859C128.039 15.1859 130.299 12.9459 130.299 9.82594C130.299 6.70594 128.039 4.48594 124.959 4.48594C121.879 4.48594 119.599 6.70594 119.599 9.82594C119.599 12.9459 121.879 15.1859 124.959 15.1859ZM124.959 13.9259C122.719 13.9259 121.039 12.2859 121.039 9.82594C121.039 7.36594 122.719 5.72594 124.959 5.72594C127.199 5.72594 128.859 7.36594 128.859 9.82594C128.859 12.2859 127.199 13.9259 124.959 13.9259ZM141.258 4.56594V10.0859C141.258 12.4859 139.878 13.9059 137.678 13.9059C135.678 13.9059 134.518 12.7659 134.518 10.5259V4.56594H133.098V10.6659C133.098 13.6859 134.858 15.1859 137.538 15.1859C139.218 15.1859 140.578 14.4459 141.318 13.1659V15.0859H142.678V4.56594H141.258ZM148.015 6.62594V4.56594H146.655V15.0859H148.075V9.72594C148.075 7.24594 149.415 5.84594 151.615 5.84594C151.715 5.84594 151.835 5.86594 151.955 5.86594V4.48594C150.015 4.48594 148.675 5.22594 148.015 6.62594ZM160.157 3.26594V4.56594H158.277V5.76594H160.157V15.0859H161.577V5.76594H164.777V4.56594H161.537V3.32594C161.537 2.02594 162.177 1.34594 163.397 1.34594C163.997 1.34594 164.557 1.52594 164.957 1.86594L165.437 0.805937C164.917 0.365936 164.117 0.145937 163.337 0.145937C161.277 0.145937 160.157 1.38594 160.157 3.26594ZM169.017 0.245937C168.437 0.245937 167.977 0.705937 167.977 1.24594C167.977 1.80594 168.437 2.26594 169.017 2.26594C169.617 2.26594 170.057 1.80594 170.057 1.22594C170.057 0.685937 169.597 0.245937 169.017 0.245937ZM168.297 15.0859H169.717V4.56594H168.297V15.0859ZM179.046 4.48594C177.226 4.48594 175.806 5.22594 175.046 6.50594V4.56594H173.686V15.0859H175.106V9.56594C175.106 7.16594 176.526 5.76594 178.786 5.76594C180.786 5.76594 181.946 6.90594 181.946 9.12594V15.0859H183.366V8.98594C183.366 5.96594 181.606 4.48594 179.046 4.48594ZM195.64 4.56594V6.58594C194.76 5.20594 193.24 4.48594 191.48 4.48594C188.48 4.48594 186.2 6.54594 186.2 9.56594C186.2 12.5859 188.48 14.6859 191.48 14.6859C193.2 14.6859 194.7 13.9859 195.58 12.6459V13.9859C195.58 16.5859 194.36 17.8059 191.7 17.8059C190.08 17.8059 188.56 17.2659 187.56 16.3659L186.84 17.4459C187.94 18.4859 189.82 19.0659 191.74 19.0659C195.22 19.0659 197 17.4259 197 13.8059V4.56594H195.64ZM191.62 13.4259C189.3 13.4259 187.64 11.8459 187.64 9.56594C187.64 7.28594 189.3 5.72594 191.62 5.72594C193.94 5.72594 195.62 7.28594 195.62 9.56594C195.62 11.8459 193.94 13.4259 191.62 13.4259ZM210.151 9.82594C210.151 6.66594 208.011 4.48594 205.051 4.48594C202.091 4.48594 199.911 6.70594 199.911 9.82594C199.911 12.9459 202.151 15.1859 205.431 15.1859C207.091 15.1859 208.551 14.5859 209.491 13.4659L208.691 12.5459C207.891 13.4659 206.751 13.9259 205.471 13.9259C203.171 13.9259 201.491 12.4659 201.331 10.2659H210.131C210.131 10.1059 210.151 9.94594 210.151 9.82594ZM205.051 5.70594C207.111 5.70594 208.611 7.14594 208.791 9.20594H201.331C201.511 7.14594 203.011 5.70594 205.051 5.70594ZM214.402 6.62594V4.56594H213.042V15.0859H214.462V9.72594C214.462 7.24594 215.802 5.84594 218.002 5.84594C218.102 5.84594 218.222 5.86594 218.342 5.86594V4.48594C216.402 4.48594 215.062 5.22594 214.402 6.62594ZM226.402 13.4259C226.002 13.7859 225.422 13.9659 224.842 13.9659C223.662 13.9659 223.022 13.2859 223.022 12.0459V5.76594H226.222V4.56594H223.022V2.26594H221.602V4.56594H219.722V5.76594H221.602V12.1259C221.602 14.0659 222.702 15.1859 224.682 15.1859C225.502 15.1859 226.342 14.9459 226.902 14.4459L226.402 13.4259ZM230.207 2.26594C230.807 2.26594 231.247 1.80594 231.247 1.22594C231.247 0.685937 230.787 0.245937 230.207 0.245937C229.627 0.245937 229.167 0.705937 229.167 1.24594C229.167 1.80594 229.627 2.26594 230.207 2.26594ZM229.487 15.0859H230.907V4.56594H229.487V15.0859ZM240.278 4.48594C238.538 4.48594 237.078 5.24594 236.218 6.64594V4.56594H234.858V18.9659H236.278V13.1059C237.158 14.4659 238.598 15.1859 240.278 15.1859C243.278 15.1859 245.518 13.0259 245.518 9.82594C245.518 6.64594 243.278 4.48594 240.278 4.48594ZM240.178 13.9259C237.938 13.9259 236.258 12.2859 236.258 9.82594C236.258 7.38594 237.938 5.72594 240.178 5.72594C242.398 5.72594 244.098 7.38594 244.098 9.82594C244.098 12.2859 242.398 13.9259 240.178 13.9259ZM251.233 15.1859C253.973 15.1859 255.573 14.0059 255.573 12.1859C255.573 8.14594 248.753 10.2859 248.753 7.44594C248.753 6.44594 249.593 5.70594 251.493 5.70594C252.573 5.70594 253.673 5.96594 254.593 6.60594L255.213 5.46594C254.333 4.86594 252.853 4.48594 251.493 4.48594C248.813 4.48594 247.333 5.76594 247.333 7.48594C247.333 11.6459 254.153 9.48594 254.153 12.2259C254.153 13.2659 253.333 13.9459 251.333 13.9459C249.853 13.9459 248.433 13.4259 247.593 12.7659L246.953 13.8859C247.813 14.6259 249.493 15.1859 251.233 15.1859Z" fill="#0984E7"/>
</svg>
