<svg width="148" height="77" viewBox="0 0 148 77" fill="none" xmlns="http://www.w3.org/2000/svg">
<path d="M148 19.4272C148 19.2586 147.967 19.0917 147.903 18.936C147.839 18.7803 147.745 18.6388 147.627 18.5196C147.508 18.4005 147.368 18.306 147.213 18.2416C147.059 18.1771 146.893 18.1441 146.725 18.1442H127.763C127.473 18.1432 127.191 18.2422 126.965 18.4248C126.739 18.6073 126.581 18.8624 126.519 19.1475L124.483 28.3616L117.663 1.48381C117.596 1.2157 117.444 0.976816 117.23 0.802901C117.017 0.628985 116.753 0.529393 116.478 0.519034C116.462 0.5169 116.446 0.516037 116.43 0.516463C116.164 0.516698 115.904 0.600657 115.688 0.756602C115.471 0.912548 115.308 1.1327 115.222 1.38631L108.206 22.1496L107.103 18.9987C107.015 18.7486 106.853 18.5321 106.638 18.3791C106.423 18.226 106.166 18.144 105.903 18.1442H91.2644C90.9265 18.1442 90.6024 18.2794 90.3634 18.52C90.1245 18.7606 89.9902 19.0869 89.9902 19.4272C89.9902 19.7674 90.1245 20.0938 90.3634 20.3344C90.6024 20.575 90.9265 20.7101 91.2644 20.7101H105L106.784 25.806L107.026 26.4962C107.114 26.7467 107.276 26.9637 107.491 27.1173C107.706 27.2708 107.963 27.3532 108.227 27.3532H108.234C108.499 27.3518 108.757 27.2673 108.972 27.1114C109.188 26.9555 109.349 26.736 109.435 26.4834L116.254 6.29746L123.336 34.2042C123.406 34.4799 123.566 34.7243 123.789 34.8989C124.012 35.0736 124.287 35.1686 124.57 35.169H124.59C124.877 35.1643 125.153 35.0625 125.375 34.88C125.597 34.6975 125.751 34.4449 125.813 34.1631L128.785 20.7101H146.725C146.893 20.7103 147.059 20.6772 147.213 20.6128C147.368 20.5484 147.508 20.4539 147.627 20.3347C147.745 20.2155 147.839 20.074 147.903 19.9183C147.967 19.7626 148 19.5957 148 19.4272Z" fill="#CC3333"/>
<path d="M27.5277 26.2237C26.3695 27.6543 24.906 28.8037 23.2458 29.5864C21.5779 30.3214 19.7811 30.7137 17.9606 30.7403C16.1401 30.767 14.3327 30.4274 12.6443 29.7416C11.1258 29.1122 9.74607 28.1862 8.58488 27.0171C7.42368 25.848 6.50396 24.4589 5.8788 22.9299C4.55472 19.6695 4.55472 16.016 5.8788 12.7555C6.50396 11.2266 7.42368 9.8375 8.58488 8.66837C9.74607 7.49924 11.1258 6.57327 12.6443 5.94387C14.2553 5.26773 15.9857 4.9275 17.7309 4.94376C19.5147 4.90705 21.2852 5.25997 22.9205 5.97824C24.4434 6.68848 25.8025 7.71047 26.9112 8.97904L23.657 12.152C22.9509 11.3218 22.097 10.6316 21.1393 10.1171C20.0936 9.5887 18.9347 9.32809 17.7651 9.3584C16.6635 9.35091 15.5706 9.55579 14.5455 9.96196C13.5665 10.3471 12.675 10.9278 11.9248 11.669C11.1647 12.4319 10.5647 13.3409 10.1607 14.342C9.29313 16.5941 9.29313 19.0914 10.1607 21.3435C10.5644 22.3447 11.1644 23.2537 11.9248 24.0162C12.6747 24.7579 13.5662 25.3387 14.5455 25.7235C15.5705 26.1299 16.6634 26.3348 17.7651 26.3271C19.0317 26.3516 20.2847 26.0614 21.4134 25.4821C22.5104 24.8892 23.4728 24.0729 24.2393 23.0851L27.5277 26.2237Z" fill="#007FDD"/>
<path d="M38.3863 5.49536H43.6612L52.8757 30.1898H47.7719L45.7507 24.2921H36.2968L34.2756 30.1898H29.1719L38.3863 5.49536ZM44.2436 20.0154L42.0512 13.8419L41.1606 10.8411H40.8869L39.9963 13.8419L37.8039 20.0154H44.2436Z" fill="#007FDD"/>
<path d="M55.7529 5.49536H60.3772V25.7752H70.7564V30.1898H55.7529V5.49536Z" fill="#007FDD"/>
<path d="M74.0449 5.49536H78.6692V25.7752H89.0484V30.1898H74.0449V5.49536Z" fill="#007FDD"/>
<path d="M25.7822 50.7633C25.8032 52.4813 25.507 54.1883 24.9089 55.7974C24.3589 57.2649 23.4996 58.5949 22.3902 59.696C21.2525 60.8024 19.8997 61.6598 18.417 62.2145C16.7387 62.8339 14.9617 63.1379 13.1743 63.1112H4.88672V58.6944H12.9691C14.1804 58.7168 15.3863 58.5246 16.5316 58.1267C17.4953 57.7887 18.373 57.2409 19.1024 56.5224C19.7969 55.8164 20.3238 54.9614 20.6436 54.0214C21.3261 51.9027 21.3261 49.6211 20.6436 47.5024C20.3238 46.5632 19.7968 45.7091 19.1024 45.0042C18.373 44.2857 17.4953 43.738 16.5316 43.4C15.3869 42.9996 14.1807 42.8064 12.9691 42.8293H4.88672V38.4154H13.1743C14.9617 38.3888 16.7387 38.6928 18.417 39.3122C19.9035 39.8675 21.2572 40.7315 22.3902 41.8482C23.4968 42.9572 24.3555 44.2913 24.9089 45.7613C25.505 47.3598 25.8012 49.0559 25.7822 50.7633Z" fill="#007FDD"/>
<path d="M52.9614 45.709C52.3433 44.175 51.4286 42.7799 50.2704 41.6048C49.1123 40.4298 47.7338 39.4981 46.2151 38.8639C42.952 37.5323 39.3022 37.5323 36.0391 38.8639C34.5202 39.4995 33.1414 40.4317 31.9821 41.6066C30.8292 42.785 29.9157 44.1784 29.2928 45.709C27.9896 48.9499 27.9896 52.5741 29.2928 55.815C29.915 57.3468 30.8286 58.7414 31.9821 59.9203C33.1414 61.0952 34.5203 62.0274 36.0392 62.663C39.3022 63.9945 42.952 63.9945 46.2151 62.663C47.7343 62.0288 49.1131 61.0968 50.2713 59.9212C51.4295 58.7455 52.3439 57.3497 52.9614 55.815C54.2646 52.5741 54.2646 48.9499 52.9614 45.709ZM48.6788 54.2282C48.2867 55.2313 47.6919 56.1414 46.9322 56.901C46.1853 57.6425 45.3011 58.2291 44.3297 58.6276C42.2736 59.4545 39.9806 59.4545 37.9245 58.6276C36.9531 58.2291 36.0689 57.6425 35.322 56.901C34.5614 56.1416 33.9657 55.2314 33.5725 54.2282C32.7282 51.9956 32.7282 49.5284 33.5725 47.2958C33.9671 46.2933 34.5627 45.3834 35.322 44.623C36.0698 43.8833 36.9539 43.2978 37.9245 42.8993C39.9806 42.0725 42.2736 42.0725 44.3297 42.8993C45.3004 43.2978 46.1844 43.8833 46.9322 44.623C47.6907 45.3836 48.2852 46.2934 48.6788 47.2958C49.5271 49.5277 49.5271 51.9963 48.6788 54.2282Z" fill="#007FDD"/>
<path d="M75.4851 56.0042C74.7179 56.9928 73.7548 57.8098 72.657 58.4033C71.5287 58.9817 70.2764 59.2717 69.0105 59.2477C67.9084 59.2551 66.815 59.0506 65.7892 58.645C64.811 58.2577 63.9201 57.6765 63.1693 56.9359C62.4079 56.1741 61.8079 55.2649 61.4053 54.2631C60.5378 52.0107 60.5378 49.5131 61.4053 47.2607C61.8093 46.2597 62.4092 45.3508 63.1693 44.5879C63.9202 43.8482 64.8111 43.268 65.7892 42.8818C66.815 42.4762 67.9084 42.2717 69.0105 42.2791C70.18 42.2493 71.3389 42.5092 72.3851 43.0361C73.3418 43.5516 74.1949 44.2417 74.9009 45.0713L78.157 41.8977C77.0478 40.6301 75.6889 39.6088 74.1664 38.8988C72.5307 38.1809 70.7599 37.8283 68.9758 37.8652C67.2307 37.8485 65.5003 38.1882 63.8893 38.8639C62.3706 39.4935 60.9907 40.4197 59.8293 41.589C58.668 42.7584 57.7481 44.1477 57.1227 45.6769C55.8002 48.9371 55.8002 52.5896 57.1227 55.8499C57.7481 57.379 58.668 58.7683 59.8293 59.9377C60.9907 61.107 62.3706 62.0333 63.8893 62.6629C65.5779 63.3481 67.3852 63.6871 69.2055 63.6601C71.0259 63.6331 72.8225 63.2407 74.4903 62.5057C76.1513 61.7241 77.6154 60.5745 78.7729 59.1428L75.4851 56.0042Z" fill="#007FDD"/>
<path d="M80.8291 38.4153V42.8292H87.6796V63.1111H92.3034V42.8292H99.1539V38.4153H80.8291Z" fill="#007FDD"/>
<path d="M124.861 45.709C124.243 44.175 123.328 42.7799 122.17 41.6049C121.012 40.4298 119.633 39.4981 118.115 38.8639C114.851 37.5323 111.202 37.5323 107.939 38.8639C106.42 39.4995 105.041 40.4317 103.882 41.6066C102.729 42.785 101.815 44.1784 101.192 45.709C99.889 48.9499 99.889 52.5741 101.192 55.815C101.814 57.3468 102.728 58.7414 103.882 59.9203C105.041 61.0952 106.42 62.0274 107.939 62.663C111.202 63.9945 114.851 63.9945 118.115 62.663C119.634 62.0288 121.013 61.0968 122.171 59.9212C123.329 58.7455 124.243 57.3497 124.861 55.815C126.164 52.5741 126.164 48.9499 124.861 45.709ZM120.581 54.2282C120.187 55.2309 119.591 56.1408 118.832 56.901C118.085 57.6425 117.201 58.2291 116.229 58.6276C114.173 59.4545 111.88 59.4545 109.824 58.6276C108.853 58.2291 107.968 57.6425 107.221 56.901C106.462 56.1414 105.867 55.2313 105.475 54.2282C104.627 51.9963 104.627 49.5277 105.475 47.2958C105.868 46.2934 106.463 45.3836 107.221 44.623C107.969 43.8833 108.853 43.2978 109.824 42.8993C111.88 42.0725 114.173 42.0725 116.229 42.8993C117.2 43.2978 118.084 43.8833 118.832 44.623C119.59 45.3842 120.186 46.2938 120.581 47.2958C121.426 49.5284 121.426 51.9956 120.581 54.2282Z" fill="#007FDD"/>
<path d="M141.422 53.3488L141.456 53.1071C142.174 52.8496 142.854 52.4961 143.478 52.0561C144.105 51.6182 144.67 51.0961 145.158 50.5042C145.639 49.9159 146.021 49.252 146.288 48.5389C146.564 47.794 146.704 47.0047 146.699 46.2097C146.71 45.1407 146.512 44.08 146.115 43.0885C145.742 42.1568 145.176 41.316 144.455 40.6224C143.707 39.9153 142.827 39.3642 141.867 39.0006C140.794 38.5982 139.657 38.3998 138.512 38.4154H129.571V63.1112H134.195V53.8321H136.352L142.691 63.1112H148V62.8347L141.422 53.3488ZM138.478 49.555H134.195V42.6925H138.544C139.068 42.6834 139.588 42.7835 140.071 42.9866C140.491 43.1648 140.87 43.4285 141.184 43.761C141.477 44.0806 141.705 44.4557 141.852 44.8645C141.999 45.2734 142.075 45.7049 142.075 46.1398C142.088 46.5972 142.004 47.0522 141.83 47.4747C141.655 47.8973 141.394 48.2778 141.063 48.5913C140.362 49.2448 139.432 49.5915 138.478 49.555Z" fill="#007FDD"/>
<path d="M3.79866 45.6726H5.97328L9.77195 55.853H7.66792L6.83467 53.4216H2.93727L2.10403 55.853H0L3.79866 45.6726ZM6.21336 51.6585L5.30954 49.1135L4.94238 47.8764H4.82957L4.46241 49.1135L3.55859 51.6585H6.21336Z" fill="#007FDD"/>
<path d="M129.639 75.8439V74.4868C130.085 74.0459 130.496 73.6353 130.874 73.255L131.361 72.7647C131.527 72.5975 131.682 72.4416 131.825 72.297C131.969 72.1528 132.097 72.0217 132.21 71.9037C132.324 71.7858 132.41 71.6926 132.471 71.6242C132.591 71.4799 132.699 71.3507 132.794 71.2364C132.881 71.1329 132.957 71.0201 133.02 70.9C133.075 70.7947 133.119 70.6838 133.15 70.5693C133.182 70.4521 133.197 70.3313 133.196 70.21C133.196 70.0859 133.169 69.9633 133.119 69.8502C133.068 69.7372 132.994 69.6363 132.901 69.5543C132.68 69.3588 132.391 69.2585 132.097 69.2748C131.952 69.266 131.807 69.2873 131.671 69.3373C131.534 69.3873 131.41 69.4651 131.304 69.5657C131.122 69.7476 130.99 69.9733 130.919 70.2214L129.571 69.6627C129.64 69.4391 129.739 69.226 129.866 69.0296C130.006 68.8079 130.182 68.6113 130.387 68.448C130.614 68.2679 130.868 68.1255 131.14 68.026C131.454 67.9118 131.786 67.8557 132.12 67.8606C132.482 67.8556 132.843 67.9155 133.185 68.0374C133.482 68.1435 133.755 68.3083 133.989 68.5221C134.206 68.7256 134.38 68.9721 134.499 69.2464C134.62 69.5288 134.682 69.8337 134.68 70.1416C134.684 70.6126 134.56 71.0758 134.323 71.4816C134.081 71.8939 133.79 72.275 133.456 72.6164L132.482 73.5972C132.225 73.8558 131.935 74.1447 131.61 74.464L131.655 74.5324H134.793V75.8439H129.639Z" fill="#007FDD"/>
<path d="M139.323 75.844V74.407H135.744V73.1981L139.187 68.0432H140.796V73.0157H141.77V74.407H140.796V75.844H139.323ZM139.323 70.2671H139.233L137.387 73.0157H139.323V70.2671Z" fill="#007FDD"/>
<path d="M143.095 75.3307L146.324 69.5258L146.29 69.4574H142.722L142.744 68.0432H148V69.5258L144.341 76.0265L143.095 75.3307Z" fill="#007FDD"/>
</svg>
