<svg width="64" height="61" viewBox="0 0 64 61" fill="none" xmlns="http://www.w3.org/2000/svg">
<path d="M64 30.5C64 35.0452 63.2774 39.19 61.8321 42.9344C60.3821 46.6885 58.298 49.8984 55.5799 52.5641C52.8593 55.2323 49.5717 57.3059 45.7169 58.785C41.8622 60.2593 37.5242 60.9977 32.7027 61H12.1299V50.0901H32.1931C35.5382 50.0901 38.4861 49.6227 41.0368 48.6878C43.5922 47.7528 45.7194 46.432 47.4182 44.7252C49.1423 42.9814 50.4503 40.8695 51.2442 38.5475C52.0913 36.1383 52.5148 33.4486 52.5148 30.5C52.5148 27.5443 52.0913 24.8594 51.2442 22.4453C50.4502 20.1254 49.1421 18.0158 47.4182 16.2747C45.7169 14.5704 43.5898 13.2496 41.0368 12.3122C38.4884 11.37 35.5406 10.9002 32.1931 10.9026H12.1299V0H32.7028C37.5266 0 41.8646 0.738342 45.717 2.21502C49.5717 3.68926 52.8593 5.77728 55.5799 8.47905C58.3269 11.2184 60.4585 14.5137 61.8322 18.1447C63.275 21.8915 63.9976 26.0099 64 30.5Z" fill="#007FDD"/>
<path d="M48.9423 31.1712C48.9424 31.0998 48.9284 31.0292 48.9011 30.9632C48.8739 30.8973 48.834 30.8374 48.7836 30.7869C48.7333 30.7365 48.6735 30.6965 48.6077 30.6692C48.5418 30.6419 48.4713 30.6279 48.4001 30.628H40.331C40.2076 30.6276 40.0878 30.6695 39.9915 30.7468C39.8952 30.8241 39.8283 30.9321 39.8018 31.0528L38.9353 34.9542L36.0334 23.5737C36.0047 23.4602 35.9401 23.359 35.8492 23.2854C35.7583 23.2118 35.646 23.1696 35.5292 23.1652C35.5224 23.1643 35.5155 23.1639 35.5086 23.1641C35.3953 23.1642 35.2849 23.1998 35.1927 23.2658C35.1005 23.3318 35.0313 23.425 34.9946 23.5324L32.0092 32.3239L31.5396 30.9898C31.5024 30.8839 31.4332 30.7922 31.3417 30.7274C31.2502 30.6626 31.1409 30.6279 31.0289 30.628H24.8C24.7287 30.6279 24.6581 30.6418 24.5922 30.6691C24.5263 30.6963 24.4664 30.7363 24.416 30.7867C24.3655 30.8372 24.3255 30.8971 24.2982 30.9631C24.2709 31.0291 24.2568 31.0998 24.2568 31.1712C24.2568 31.2426 24.2709 31.3133 24.2982 31.3793C24.3255 31.4453 24.3655 31.5052 24.416 31.5557C24.4664 31.6061 24.5263 31.6461 24.5922 31.6734C24.6581 31.7006 24.7287 31.7145 24.8 31.7144H30.645L31.4041 33.8721L31.5071 34.1644C31.5442 34.2704 31.6133 34.3623 31.7048 34.4273C31.7963 34.4923 31.9057 34.5272 32.0179 34.5272H32.0211C32.1339 34.5266 32.2437 34.4909 32.3352 34.4248C32.4268 34.3588 32.4955 34.2659 32.5319 34.1589L35.4338 25.6119L38.4473 37.428C38.4773 37.5448 38.5451 37.6482 38.6401 37.7222C38.7351 37.7961 38.8519 37.8364 38.9722 37.8365H38.9809C39.1028 37.8346 39.2205 37.7915 39.315 37.7142C39.4094 37.6369 39.4751 37.53 39.5014 37.4106L40.7658 31.7144H48.4001C48.4713 31.7145 48.5418 31.7005 48.6077 31.6732C48.6735 31.6459 48.7333 31.6059 48.7836 31.5555C48.834 31.505 48.8739 31.4451 48.9011 31.3792C48.9284 31.3132 48.9424 31.2426 48.9423 31.1712Z" fill="#CC3333"/>
<path d="M9.42966 17.9268H14.8278L24.2575 43.0728H19.0345L16.9661 37.0672H7.29136L5.22296 43.0728H0L9.42966 17.9268ZM15.4238 32.7123L13.1802 26.4259L12.2688 23.3703H11.9887L11.0773 26.4259L8.83369 32.7123L15.4238 32.7123Z" fill="#007FDD"/>
</svg>
