<svg width="233" height="118" viewBox="0 0 233 118" fill="none" xmlns="http://www.w3.org/2000/svg">
<path d="M232.999 29.552C233 29.2886 232.948 29.0278 232.847 28.7845C232.747 28.5411 232.599 28.32 232.412 28.1338C232.226 27.9475 232.005 27.7999 231.761 27.6992C231.518 27.5985 231.257 27.5468 230.993 27.5471H201.14C200.684 27.5456 200.24 27.7003 199.884 27.9855C199.528 28.2708 199.28 28.6694 199.182 29.1149L195.977 43.5139L185.24 1.51184C185.134 1.09286 184.895 0.719559 184.559 0.447782C184.222 0.176004 183.807 0.0203714 183.375 0.00418223C183.35 0.000847641 183.324 -0.000500039 183.299 0.000164866C182.879 0.000531536 182.471 0.131735 182.13 0.375432C181.789 0.619129 181.533 0.963153 181.397 1.35947L170.352 33.8063L168.615 28.8824C168.477 28.4916 168.221 28.1533 167.882 27.9141C167.544 27.6749 167.139 27.5467 166.725 27.5471H143.68C143.148 27.5471 142.638 27.7583 142.261 28.1343C141.885 28.5103 141.674 29.0203 141.674 29.552C141.674 30.0837 141.885 30.5937 142.261 30.9696C142.638 31.3456 143.148 31.5569 143.68 31.5569H165.305L168.113 39.5202L168.494 40.5988C168.631 40.9902 168.887 41.3294 169.226 41.5693C169.564 41.8092 169.969 41.9381 170.384 41.9381H170.396C170.813 41.9359 171.219 41.8038 171.558 41.5602C171.897 41.3166 172.151 40.9735 172.286 40.5788L183.022 9.03415L194.171 52.6441C194.282 53.0749 194.533 53.4568 194.884 53.7297C195.236 54.0026 195.668 54.1511 196.113 54.1518H196.145C196.596 54.1445 197.032 53.9854 197.381 53.7002C197.731 53.4149 197.974 53.0202 198.071 52.5799L202.749 31.5569H230.993C231.257 31.5571 231.518 31.5054 231.761 31.4047C232.005 31.3041 232.226 31.1564 232.412 30.9702C232.599 30.784 232.747 30.5628 232.847 30.3195C232.948 30.0761 233 29.8153 232.999 29.552Z" fill="white"/>
<path d="M43.3382 40.1733C41.5148 42.4089 39.2107 44.2051 36.5971 45.4283C33.9713 46.5768 31.1424 47.1898 28.2764 47.2314C25.4105 47.2731 22.565 46.7425 19.9068 45.6708C17.5162 44.6872 15.3441 43.2402 13.516 41.4132C11.6879 39.5862 10.24 37.4154 9.25578 35.0262C7.17125 29.931 7.17125 24.2217 9.25578 19.1266C10.24 16.7373 11.6879 14.5666 13.516 12.7396C15.3441 10.9126 17.5162 9.46553 19.9068 8.48198C22.443 7.42536 25.1673 6.89369 27.9149 6.9191C30.7231 6.86173 33.5104 7.41325 36.085 8.53569C38.4824 9.64557 40.6221 11.2426 42.3676 13.225L37.2444 18.1834C36.1328 16.886 34.7885 15.8076 33.2807 15.0036C31.6345 14.1778 29.8099 13.7705 27.9686 13.8179C26.2343 13.8062 24.5138 14.1263 22.8999 14.7611C21.3587 15.3629 19.9552 16.2703 18.7742 17.4286C17.5775 18.6208 16.633 20.0413 15.9968 21.6058C14.631 25.1251 14.631 29.0276 15.9968 32.547C16.6324 34.1116 17.577 35.5321 18.7742 36.7237C19.9548 37.8827 21.3583 38.7904 22.8999 39.3917C24.5137 40.0267 26.2343 40.3469 27.9686 40.3349C29.9626 40.3732 31.9354 39.9197 33.7122 39.0145C35.4392 38.0879 36.9544 36.8123 38.1612 35.2687L43.3382 40.1733Z" fill="white"/>
<path d="M60.4332 7.78125H68.7377L83.2442 46.3714H75.2093L72.0273 37.1549H57.1437L53.9617 46.3714H45.9268L60.4332 7.78125ZM69.6546 30.4718L66.203 20.8245L64.8009 16.1351H64.3701L62.9679 20.8245L59.5164 30.4718H69.6546Z" fill="white"/>
<path d="M87.7734 7.78125H95.0536V39.4726H111.394V46.3714H87.7734V7.78125Z" fill="white"/>
<path d="M116.571 7.78125H123.851V39.4726H140.192V46.3714H116.571V7.78125Z" fill="white"/>
<path d="M40.5887 78.5213C40.6216 81.206 40.1554 83.8735 39.2138 86.3881C38.3479 88.6812 36.9951 90.7597 35.2486 92.4804C33.4574 94.2093 31.3277 95.5493 28.9935 96.416C26.3512 97.384 23.5536 97.859 20.7398 97.8174H7.69238V90.9152H20.4166C22.3237 90.9502 24.2222 90.6499 26.0253 90.028C27.5423 89.4999 28.9242 88.6439 30.0724 87.521C31.1658 86.4178 31.9954 85.0816 32.4989 83.6126C33.5733 80.3018 33.5733 76.7362 32.4989 73.4254C31.9953 71.9577 31.1657 70.6231 30.0724 69.5215C28.9242 68.3987 27.5423 67.5427 26.0253 67.0146C24.223 66.3889 22.3242 66.0869 20.4166 66.1228H7.69238V59.2252H20.7398C23.5536 59.1836 26.3512 59.6585 28.9935 60.6265C31.3336 61.4943 33.4648 62.8445 35.2486 64.5895C36.9907 66.3226 38.3426 68.4074 39.2138 70.7046C40.1523 73.2026 40.6185 75.8531 40.5887 78.5213Z" fill="white"/>
<path d="M83.377 70.6227C82.4038 68.2255 80.9637 66.0454 79.1405 64.2091C77.3172 62.3728 75.147 60.9169 72.756 59.9259C67.6189 57.845 61.8729 57.845 56.7358 59.9259C54.3446 60.9191 52.1738 62.3758 50.3487 64.2119C48.5337 66.0533 47.0956 68.2309 46.1149 70.6227C44.0633 75.6873 44.0633 81.3508 46.1149 86.4154C47.0944 88.8091 48.5327 90.9884 50.3487 92.8307C52.1738 94.6668 54.3446 96.1235 56.7359 97.1168C61.873 99.1976 67.6189 99.1976 72.7561 97.1168C75.1478 96.1257 77.3185 94.6693 79.1418 92.8321C80.9652 90.9949 82.4048 88.8137 83.377 86.4154C85.4286 81.3508 85.4286 75.6873 83.377 70.6227ZM76.6347 83.9357C76.0174 85.5032 75.081 86.9255 73.885 88.1125C72.7092 89.2713 71.3171 90.188 69.7878 90.8106C66.5509 92.1028 62.9409 92.1028 59.704 90.8106C58.1747 90.188 56.7826 89.2713 55.6068 88.1125C54.4094 86.9257 53.4715 85.5034 52.8526 83.9357C51.5232 80.4468 51.5232 76.5913 52.8526 73.1024C53.4738 71.5358 54.4113 70.1139 55.6068 68.9255C56.7841 67.7697 58.1759 66.8547 59.704 66.232C62.941 64.9399 66.5509 64.9399 69.7878 66.232C71.316 66.8547 72.7078 67.7697 73.885 68.9255C75.0791 70.1142 76.0151 71.536 76.6347 73.1024C77.9702 76.5902 77.9702 80.4479 76.6347 83.9357Z" fill="white"/>
<path d="M118.837 86.7113C117.629 88.2562 116.113 89.533 114.385 90.4604C112.608 91.3643 110.637 91.8175 108.644 91.7799C106.909 91.7916 105.188 91.4719 103.572 90.8381C102.033 90.2329 100.63 89.3247 99.4479 88.1673C98.2493 86.9769 97.3047 85.556 96.6709 83.9905C95.3052 80.4706 95.3052 76.5677 96.6709 73.0479C97.307 71.4836 98.2513 70.0632 99.4479 68.8711C100.63 67.7151 102.033 66.8084 103.572 66.2049C105.188 65.5711 106.909 65.2514 108.644 65.2631C110.485 65.2165 112.31 65.6227 113.957 66.4461C115.463 67.2517 116.806 68.3301 117.917 69.6264L123.043 64.667C121.297 62.6862 119.158 61.0902 116.761 59.9806C114.186 58.8588 111.398 58.3077 108.589 58.3654C105.842 58.3393 103.118 58.8702 100.581 59.9261C98.1905 60.91 96.0182 62.3574 94.1898 64.1847C92.3614 66.0121 90.9132 68.1832 89.9287 70.5728C87.8467 75.6676 87.8467 81.3753 89.9287 86.4701C90.9132 88.8597 92.3614 91.0308 94.1898 92.8582C96.0182 94.6856 98.1905 96.133 100.581 97.117C103.24 98.1877 106.085 98.7175 108.951 98.6753C111.817 98.6331 114.645 98.0198 117.271 96.8713C119.886 95.6498 122.191 93.8533 124.013 91.6161L118.837 86.7113Z" fill="white"/>
<path d="M127.25 59.2256V66.1232H138.035V97.8178H145.314V66.1232H156.099V59.2256H127.25Z" fill="white"/>
<path d="M196.57 70.6227C195.597 68.2255 194.157 66.0455 192.334 64.2092C190.511 62.3729 188.34 60.9169 185.949 59.9259C180.812 57.845 175.066 57.845 169.929 59.9259C167.538 60.9191 165.367 62.3758 163.542 64.2119C161.727 66.0533 160.289 68.2309 159.308 70.6227C157.257 75.6873 157.257 81.3508 159.308 86.4154C160.288 88.8091 161.726 90.9884 163.542 92.8307C165.367 94.6668 167.538 96.1235 169.929 97.1168C175.066 99.1976 180.812 99.1976 185.949 97.1168C188.341 96.1257 190.512 94.6693 192.335 92.8321C194.159 90.9949 195.598 88.8137 196.57 86.4154C198.622 81.3508 198.622 75.6873 196.57 70.6227ZM189.833 83.9357C189.212 85.5026 188.274 86.9245 187.078 88.1125C185.903 89.2713 184.511 90.188 182.981 90.8106C179.744 92.1028 176.134 92.1028 172.897 90.8106C171.368 90.188 169.976 89.2713 168.8 88.1125C167.604 86.9255 166.668 85.5032 166.051 83.9357C164.715 80.4479 164.715 76.5902 166.051 73.1024C166.67 71.536 167.606 70.1142 168.8 68.9255C169.978 67.7697 171.369 66.8547 172.897 66.232C176.134 64.9399 179.744 64.9399 182.981 66.232C184.509 66.8547 185.901 67.7697 187.078 68.9255C188.272 70.1151 189.21 71.5366 189.833 73.1024C191.162 76.5913 191.162 80.4468 189.833 83.9357Z" fill="white"/>
<path d="M222.642 82.5614L222.697 82.1838C223.827 81.7813 224.897 81.2289 225.879 80.5413C226.867 79.857 227.757 79.0411 228.524 78.1162C229.282 77.1968 229.883 76.1593 230.304 75.045C230.739 73.881 230.958 72.6475 230.951 71.4051C230.969 69.7346 230.656 68.077 230.031 66.5276C229.445 65.0717 228.554 63.7578 227.418 62.6738C226.24 61.5689 224.856 60.7076 223.344 60.1395C221.655 59.5107 219.864 59.2006 218.063 59.225H203.986V97.8172H211.266V83.3167H214.662L224.641 97.8172H232.999V97.385L222.642 82.5614ZM218.008 76.6329H211.266V65.9088H218.113C218.937 65.8945 219.755 66.051 220.516 66.3683C221.178 66.6469 221.774 67.0589 222.269 67.5786C222.731 68.0781 223.088 68.6642 223.321 69.303C223.552 69.942 223.671 70.6163 223.671 71.2959C223.691 72.0107 223.56 72.7217 223.285 73.382C223.011 74.0423 222.599 74.637 222.078 75.1269C220.975 76.1481 219.511 76.6898 218.008 76.6329Z" fill="white"/>
<path d="M5.98033 70.5654H9.40388L15.3842 86.4743H12.0718L10.76 82.6748H4.62422L3.31242 86.4743H0L5.98033 70.5654ZM9.78184 79.9197L8.35893 75.9425L7.78091 74.0093H7.6033L7.02527 75.9425L5.60237 79.9197H9.78184Z" fill="white"/>
<path d="M204.094 117.714V115.593C204.796 114.904 205.443 114.263 206.038 113.669L206.805 112.902C207.066 112.641 207.31 112.397 207.536 112.171C207.761 111.946 207.963 111.741 208.142 111.557C208.32 111.373 208.457 111.227 208.552 111.12C208.742 110.895 208.912 110.693 209.061 110.514C209.198 110.352 209.318 110.176 209.417 109.988C209.503 109.824 209.572 109.651 209.622 109.472C209.671 109.288 209.695 109.1 209.693 108.91C209.693 108.716 209.652 108.525 209.572 108.348C209.492 108.171 209.376 108.014 209.23 107.885C208.881 107.58 208.427 107.423 207.964 107.449C207.736 107.435 207.507 107.468 207.292 107.546C207.078 107.625 206.881 107.746 206.716 107.903C206.429 108.188 206.22 108.54 206.109 108.928L203.987 108.055C204.096 107.705 204.252 107.372 204.451 107.066C204.672 106.719 204.949 106.412 205.271 106.157C205.629 105.875 206.029 105.653 206.457 105.497C206.951 105.319 207.474 105.231 207.999 105.239C208.57 105.231 209.138 105.324 209.676 105.515C210.144 105.681 210.574 105.938 210.942 106.272C211.284 106.59 211.558 106.976 211.744 107.404C211.936 107.846 212.033 108.322 212.03 108.803C212.036 109.539 211.842 110.263 211.468 110.897C211.087 111.542 210.629 112.137 210.104 112.671L208.57 114.203C208.166 114.607 207.708 115.059 207.197 115.558L207.268 115.665H212.208V117.714H204.094Z" fill="white"/>
<path d="M219.341 117.715V115.469H213.706V113.58L219.127 105.524H221.659V113.295H223.193V115.469H221.659V117.715H219.341ZM219.341 109H219.198L216.292 113.295H219.341V109Z" fill="white"/>
<path d="M225.279 116.913L230.361 107.841L230.308 107.734H224.69L224.726 105.524H233V107.841L227.24 118L225.279 116.913Z" fill="white"/>
</svg>
