<svg width="39" height="24" viewBox="0 0 39 24" fill="none" xmlns="http://www.w3.org/2000/svg">
<g clip-path="url(#clip0_2555_4883)">
<path d="M24.6401 2.56641H14.1509V21.4352H24.6401V2.56641Z" fill="#FF5F00"/>
<path d="M14.8171 12C14.8155 10.1828 15.2268 8.38904 16.0201 6.75451C16.8133 5.11998 17.9677 3.68753 19.3957 2.5656C17.6273 1.17415 15.5034 0.308826 13.267 0.0685353C11.0305 -0.171756 8.77157 0.222674 6.74843 1.20676C4.7253 2.19084 3.01957 3.72488 1.8262 5.63351C0.632841 7.54213 0 9.74835 0 12C0 14.2516 0.632841 16.4579 1.8262 18.3665C3.01957 20.2751 4.7253 21.8092 6.74843 22.7932C8.77157 23.7773 11.0305 24.1718 13.267 23.9315C15.5034 23.6912 17.6273 22.8258 19.3957 21.4344C17.9677 20.3125 16.8133 18.88 16.0201 17.2455C15.2268 15.611 14.8155 13.8172 14.8171 12Z" fill="#EB001B"/>
<path d="M38.7906 12C38.7907 14.2516 38.1579 16.4578 36.9646 18.3665C35.7713 20.2751 34.0656 21.8091 32.0426 22.7932C30.0195 23.7773 27.7606 24.1718 25.5241 23.9315C23.2877 23.6912 21.1639 22.8259 19.3955 21.4344C20.8223 20.3113 21.9757 18.8787 22.7688 17.2444C23.562 15.6101 23.9741 13.8169 23.9741 12C23.9741 10.1831 23.562 8.38988 22.7688 6.75561C21.9757 5.12134 20.8223 3.68866 19.3955 2.5656C21.1639 1.17415 23.2877 0.30882 25.5241 0.0685322C27.7606 -0.171756 30.0195 0.222691 32.0426 1.20679C34.0656 2.19088 35.7713 3.72491 36.9646 5.63354C38.1579 7.54217 38.7907 9.74838 38.7906 12Z" fill="#F79E1B"/>
</g>
<defs>
<clipPath id="clip0_2555_4883">
<rect width="38.7908" height="24" fill="white"/>
</clipPath>
</defs>
</svg>
