<svg width="47" height="16" viewBox="0 0 47 16" fill="none" xmlns="http://www.w3.org/2000/svg">
<path d="M33.7308 1.4731C32.6524 1.08016 31.5126 0.882985 30.3649 0.890851C26.6534 0.890851 24.0321 2.76053 24.0136 5.44443C23.9904 7.41617 25.8763 8.52731 27.3029 9.1861C28.7666 9.86346 29.2561 10.2903 29.2514 10.8957C29.2422 11.8166 28.0823 12.2342 27.0037 12.2342C25.5214 12.2342 24.7118 12.0277 23.4661 11.5104L23.0045 11.2947L22.4779 14.3846C23.3803 14.7604 25.0064 15.0828 26.6859 15.1106C30.6317 15.1106 33.2112 13.2525 33.2413 10.397C33.2738 8.82191 32.2531 7.63191 30.1051 6.64835C28.7991 6.01043 27.9895 5.58361 27.9895 4.93641C27.9895 4.36344 28.6831 3.75104 30.1329 3.75104C31.0978 3.7277 32.0568 3.90873 32.9467 4.28226L33.2947 4.43767L33.8213 1.45222L33.7308 1.4731ZM43.3622 1.14138H40.4626C39.5602 1.14138 38.8805 1.38959 38.4862 2.28499L32.9096 14.9181H36.8554L37.6441 12.8466L42.4598 12.8512C42.5735 13.3361 42.9214 14.9181 42.9214 14.9181H46.401L43.3622 1.14138ZM18.6759 1.02539H22.4362L20.084 14.8091H16.3284L18.6759 1.02075V1.02539ZM9.13035 8.62242L9.52006 10.5362L13.1945 1.14138H17.1774L11.2598 14.8995H7.28618L4.0386 3.24999C3.986 3.0579 3.86248 2.89292 3.69297 2.78837C2.52245 2.18371 1.2822 1.72485 0 1.42206L0.0510333 1.1321H6.10314C6.92431 1.16457 7.58543 1.42206 7.8058 2.29891L9.12803 8.62938L9.13035 8.62242ZM38.7228 10.0282L40.2213 6.17281C40.2028 6.21457 40.5298 5.37715 40.7201 4.85986L40.9775 6.04987L41.8474 10.0258H38.7205L38.7228 10.0282Z" fill="black"/>
</svg>
